<?xml version="1.0" encoding="UTF-8"?>
<svg id="Layer_1" data-name="Layer 1" xmlns="http://www.w3.org/2000/svg" xmlns:xlink="http://www.w3.org/1999/xlink" viewBox="0 0 892.14 858.81">
  <defs>
    <style>
      .cls-1, .cls-2, .cls-3, .cls-4, .cls-5, .cls-6, .cls-7, .cls-8 {
        fill: none;
      }

      .cls-2 {
        stroke: #241f20;
        stroke-miterlimit: 10;
        stroke-width: 1.5px;
      }

      .cls-2, .cls-3, .cls-4, .cls-5, .cls-6, .cls-7, .cls-8 {
        stroke-linecap: round;
      }

      .cls-3 {
        stroke-width: .75px;
      }

      .cls-3, .cls-4, .cls-5, .cls-6, .cls-7, .cls-8 {
        stroke-linejoin: round;
      }

      .cls-3, .cls-5, .cls-6, .cls-8 {
        stroke: #000;
      }

      .cls-9 {
        clip-path: url(#clippath);
      }

      .cls-10 {
        fill: #010101;
      }

      .cls-11 {
        fill: #fff;
      }

      .cls-12 {
        fill: #a6a8ac;
      }

      .cls-13 {
        fill: url(#New_Gradient_Swatch_3);
      }

      .cls-14 {
        fill: url(#New_Gradient_Swatch_1);
      }

      .cls-15 {
        fill: url(#New_Gradient_Swatch_4);
      }

      .cls-4, .cls-7 {
        stroke: #fff;
        stroke-width: 2px;
      }

      .cls-5, .cls-6 {
        stroke-width: .25px;
      }

      .cls-6 {
        stroke-dasharray: 0 0 2.02 2.02;
      }

      .cls-7 {
        stroke-dasharray: 0 0 5.01 5.01;
      }

      .cls-8 {
        stroke-width: 3px;
      }
    </style>
    <clipPath id="clippath">
      <polygon class="cls-1" points="443.16 398.91 791.07 187.79 830.39 274.25 853.16 407.9 808.27 608.88 780.22 610.53 637.33 527.7 557.13 553.77 443.16 398.91"/>
    </clipPath>
    <linearGradient id="New_Gradient_Swatch_3" data-name="New Gradient Swatch 3" x1="201.65" y1="733.26" x2="753.44" y2="157.72" gradientUnits="userSpaceOnUse">
      <stop offset="0" stop-color="#9f6d29"/>
      <stop offset=".03" stop-color="#a56f28"/>
      <stop offset=".15" stop-color="#bf7927"/>
      <stop offset=".27" stop-color="#d28125"/>
      <stop offset=".4" stop-color="#de8525"/>
      <stop offset=".53" stop-color="#e28725"/>
      <stop offset="1" stop-color="#9f6d29"/>
    </linearGradient>
    <linearGradient id="New_Gradient_Swatch_1" data-name="New Gradient Swatch 1" x1="304.85" y1="623.72" x2="629.59" y2="250.14" gradientUnits="userSpaceOnUse">
      <stop offset="0" stop-color="#808185"/>
      <stop offset=".02" stop-color="#86878b"/>
      <stop offset=".11" stop-color="#a8a9ac"/>
      <stop offset=".21" stop-color="#c2c3c5"/>
      <stop offset=".32" stop-color="#d5d6d8"/>
      <stop offset=".42" stop-color="#e1e2e3"/>
      <stop offset=".53" stop-color="#e5e6e7"/>
      <stop offset="1" stop-color="#808185"/>
    </linearGradient>
    <linearGradient id="New_Gradient_Swatch_4" data-name="New Gradient Swatch 4" x1="367.93" y1="504.64" x2="527.66" y2="339.63" gradientUnits="userSpaceOnUse">
      <stop offset="0" stop-color="#b68c2e"/>
      <stop offset=".1" stop-color="#c99b28"/>
      <stop offset=".24" stop-color="#dbaa23"/>
      <stop offset=".38" stop-color="#e7b320"/>
      <stop offset=".53" stop-color="#ebb61f"/>
      <stop offset="1" stop-color="#b68c2e"/>
    </linearGradient>
  </defs>
  <g class="cls-9">
    <g>
      <path class="cls-13" d="m443.79,165.68l63.21,56.25-62.02,69.47-1.35,106.66,97.37,59.99,26.24,84.11,76.49-24,143.88,85.21c33.97-59.06,53.4-127.54,53.4-200.57C841.02,182,663.37,2.7,443.22.01l.57,165.66Z"/>
      <path class="cls-14" d="m443.79,165.68l63.21,56.25-62.02,69.47-1.35,106.66,97.37,59.99,26.24,84.11,76.49-24,14.24,8.43c20.21-36.07,31.75-77.66,31.75-121.95,0-136.69-109.78-247.72-245.97-249.79l.04,10.84Z"/>
      <path class="cls-15" d="m444.98,291.39l-1.35,106.66,97.37,59.99.4,1.3c9.09-16.54,14.26-35.54,14.26-55.74,0-61.24-47.48-111.38-107.63-115.63l-3.06,3.42Z"/>
      <g>
        <line class="cls-4" x1="445.17" y1="397.69" x2="447.31" y2="396.4"/>
        <line class="cls-7" x1="451.59" y1="393.8" x2="783.55" y2="192.36"/>
        <line class="cls-4" x1="785.69" y1="191.06" x2="787.83" y2="189.76"/>
      </g>
    </g>
  </g>
  <g>
    <path class="cls-11" d="m596.23,325.42l1.96-1.19c.57.67,1.42.71,2.19.24.65-.4.96-.97.66-1.47-.25-.41-.75-.54-1.72-.25l-.99.29c-1.62.48-3.12.17-3.96-1.19-1.02-1.64-.42-3.39,1.39-4.49,1.91-1.16,3.95-.49,4.82.82l-1.95,1.18c-.62-.57-1.3-.48-1.77-.19-.57.34-.87.87-.6,1.34.28.49.85.53,1.63.29l1.16-.35c1.66-.5,3.11-.1,3.94,1.27.91,1.49.38,3.4-1.51,4.54-2.17,1.32-4.28.56-5.25-.86Z"/>
    <path class="cls-11" d="m604.62,319.44l-3.21-5.29,1.96-1.19,3.22,5.31c.64,1.05,1.69,1.28,2.66.69.97-.59,1.25-1.64.61-2.68l-3.22-5.31,1.96-1.19,3.21,5.29c1.32,2.18.69,4.53-1.41,5.8s-4.47.75-5.79-1.43Z"/>
    <path class="cls-11" d="m611.29,308.15l3.29-2c1.43-.87,3.31-.42,4.18,1.02.37.62.44,1.28.28,1.89.97-.07,1.93.38,2.5,1.32.88,1.44.4,3.28-1.1,4.19l-3.85,2.33-5.31-8.76Zm5.22,1.68c.53-.32.67-.95.39-1.42s-.92-.66-1.45-.33l-1.11.67,1.06,1.75,1.11-.67Zm2.69,3.04c.52-.31.68-.94.38-1.43-.29-.48-.93-.64-1.46-.31l-1.71,1.04,1.06,1.75,1.73-1.05Z"/>
    <path class="cls-11" d="m622.49,307.4l3.63-2.2,1.08,1.78-3.63,2.2-1.08-1.78Z"/>
    <path class="cls-11" d="m628.14,303.92c-1.54-2.54-.82-5.69,1.85-7.32,1.92-1.17,4.49-1.05,6.17.58l-2.13,1.29c-.86-.59-2.02-.49-2.88.03-1.6.97-1.92,2.75-1.03,4.22.89,1.47,2.62,2,4.22,1.03.86-.52,1.48-1.51,1.36-2.54l2.13-1.29c.67,2.24-.42,4.57-2.34,5.74-2.68,1.62-5.8.81-7.35-1.73Z"/>
    <path class="cls-11" d="m636.49,292.86l1.96-1.19,4.18,6.88,3.63-2.2,1.14,1.87-5.59,3.39-5.31-8.76Z"/>
    <path class="cls-11" d="m647.03,286.46l1.78-1.08,9.06,6.48-2.05,1.24-1.9-1.38-3.63,2.2.35,2.32-2.05,1.24-1.56-11.03Zm5.14,4l-2.7-1.97.5,3.3,2.2-1.33Z"/>
    <path class="cls-11" d="m657.17,288.44l1.96-1.19c.57.67,1.42.71,2.19.24.65-.4.96-.97.66-1.47-.25-.41-.75-.54-1.72-.25l-.99.29c-1.62.48-3.12.17-3.96-1.19-1.02-1.64-.42-3.39,1.39-4.49,1.91-1.16,3.95-.49,4.82.82l-1.95,1.18c-.62-.57-1.3-.48-1.77-.19-.57.34-.87.87-.6,1.34.28.49.85.53,1.63.29l1.16-.35c1.66-.5,3.11-.1,3.94,1.27.91,1.49.38,3.4-1.51,4.54-2.17,1.32-4.28.56-5.25-.86Z"/>
    <path class="cls-11" d="m665.52,283.38l1.96-1.19c.57.67,1.42.71,2.19.24.65-.4.96-.97.66-1.47-.25-.41-.75-.54-1.72-.25l-.99.29c-1.62.48-3.12.17-3.96-1.19-1.02-1.64-.42-3.39,1.39-4.49,1.91-1.16,3.95-.49,4.82.82l-1.95,1.18c-.62-.57-1.3-.48-1.77-.19-.57.34-.87.87-.6,1.34.28.49.85.53,1.63.29l1.16-.35c1.66-.5,3.11-.1,3.94,1.27.91,1.49.38,3.4-1.51,4.54-2.17,1.32-4.28.56-5.25-.86Z"/>
    <path class="cls-11" d="m670.8,272.04l1.96-1.19,5.31,8.76-1.96,1.19-5.31-8.76Z"/>
    <path class="cls-11" d="m675.53,269.17l5.39-3.27,1.14,1.87-3.43,2.08.96,1.58,2.68-1.62,1.14,1.87-2.68,1.62,2.08,3.43-1.96,1.19-5.31-8.76Z"/>
    <path class="cls-11" d="m683.18,264.53l1.96-1.19,5.31,8.76-1.96,1.19-5.31-8.76Z"/>
    <path class="cls-11" d="m690.09,266.32c-1.54-2.54-.82-5.69,1.85-7.32,1.92-1.17,4.49-1.05,6.17.58l-2.13,1.29c-.86-.59-2.02-.49-2.88.03-1.6.97-1.92,2.75-1.03,4.22.89,1.47,2.62,2,4.22,1.03.86-.52,1.48-1.51,1.36-2.54l2.13-1.29c.67,2.24-.42,4.57-2.34,5.74-2.68,1.62-5.8.81-7.35-1.73Z"/>
    <path class="cls-11" d="m701,253.72l1.78-1.08,9.06,6.48-2.05,1.24-1.9-1.38-3.63,2.2.35,2.32-2.05,1.24-1.56-11.03Zm5.14,4l-2.7-1.97.5,3.3,2.2-1.33Z"/>
    <path class="cls-11" d="m710.2,250.69l-2.23,1.35-1.14-1.87,6.46-3.92,1.14,1.87-2.26,1.37,4.18,6.88-1.97,1.2-4.18-6.88Z"/>
    <path class="cls-11" d="m715.42,244.96l1.96-1.19,5.31,8.76-1.96,1.19-5.31-8.76Z"/>
    <path class="cls-11" d="m722.32,246.77c-1.51-2.49-.72-5.75,1.78-7.27,2.49-1.51,5.76-.71,7.27,1.78,1.51,2.49.71,5.76-1.78,7.27s-5.76.71-7.27-1.78Zm7.07-4.29c-.86-1.42-2.72-1.95-4.13-1.08-1.43.87-1.82,2.76-.96,4.17.86,1.42,2.71,1.94,4.14,1.08s1.81-2.75.95-4.17Z"/>
    <path class="cls-11" d="m742.54,240.49l-7.55-2.82,3.28,5.41-1.96,1.19-5.31-8.76,1.69-1.03,7.53,2.82-3.28-5.4,1.97-1.2,5.31,8.76-1.69,1.03Z"/>
  </g>
  <g>
    <path class="cls-10" d="m579.79,381.19v-1.38h5.26v1.38h-1.91v5.72h-1.46v-5.72h-1.89Z"/>
    <path class="cls-10" d="m590.71,379.81v1.38h-2.97v1.46h2.37v1.38h-2.37v1.5h2.97v1.38h-4.42v-7.1h4.42Z"/>
    <path class="cls-10" d="m596.65,385.28h-3.02l-.69,1.62h-1.5l3.06-7.1h1.29l3.07,7.1h-1.52l-.69-1.62Zm-.53-1.27l-.98-2.31-.98,2.31h1.96Z"/>
    <path class="cls-10" d="m604.14,386.9l-2.43-2.99h-.36v2.99h-1.45v-7.1h2.72c1.31,0,2.18.91,2.18,2.1,0,.92-.49,1.54-1.46,1.85l2.55,3.15h-1.75Zm-1.69-4.23c.55,0,.91-.29.91-.77s-.36-.77-.91-.77h-1.1v1.54h1.1Z"/>
    <path class="cls-10" d="m616.27,379.81v7.1h-1.45v-4.62l-2.18,2.99-2.18-2.99v4.62h-1.45v-7.1h1.32l2.31,3.16,2.31-3.16h1.32Z"/>
    <path class="cls-10" d="m622.52,379.81v1.38h-2.97v1.46h2.37v1.38h-2.37v1.5h2.97v1.38h-4.42v-7.1h4.42Z"/>
    <path class="cls-10" d="m630.37,379.81v7.1h-1.25l-3.64-4.63v4.63h-1.45v-7.1h1.25l3.64,4.63v-4.63h1.45Z"/>
    <path class="cls-10" d="m633.65,379.81v7.1h-1.45v-7.1h1.45Z"/>
    <path class="cls-10" d="m637.76,387.02c-1.63.03-2.68-1.13-2.72-2.32h1.44c.09.61.63.98,1.28.98.59,0,1.01-.28,1.01-.72,0-.39-.31-.68-.94-.86l-.76-.22c-1.16-.33-1.85-1.05-1.86-2.1,0-.65.22-1.16.65-1.53.43-.38,1.01-.57,1.73-.57,1.47-.02,2.45,1.08,2.49,2.16h-1.43c-.16-.56-.59-.82-1.06-.82-.53,0-.92.27-.92.68s.29.66.89.83l.84.23c1.16.33,1.84,1.07,1.84,2.15,0,1.2-1.01,2.11-2.48,2.11Z"/>
    <path class="cls-10" d="m648.42,384.48c-.38,1.49-1.84,2.54-3.44,2.54-2.11.04-3.76-1.64-3.72-3.67-.04-2.03,1.61-3.71,3.72-3.67,1.6,0,3.06,1.05,3.44,2.54h-1.57c-.29-.69-1.06-1.14-1.87-1.14-1.33,0-2.26,1-2.26,2.27s.93,2.27,2.26,2.27c.81,0,1.58-.45,1.87-1.14h1.57Z"/>
    <path class="cls-10" d="m649.64,379.81h1.45v4.32c0,.93.57,1.5,1.44,1.5s1.44-.57,1.44-1.5v-4.32h1.45v4.3c0,1.76-1.21,2.92-2.89,2.92s-2.89-1.16-2.89-2.92v-4.3Z"/>
    <path class="cls-10" d="m659.45,387.02c-1.63.03-2.68-1.13-2.72-2.32h1.44c.09.61.63.98,1.28.98.59,0,1.01-.28,1.01-.72,0-.39-.31-.68-.94-.86l-.76-.22c-1.16-.33-1.85-1.05-1.86-2.1,0-.65.22-1.16.65-1.53.43-.38,1.01-.57,1.73-.57,1.47-.02,2.45,1.08,2.49,2.16h-1.43c-.16-.56-.59-.82-1.06-.82-.53,0-.92.27-.92.68s.29.66.89.83l.84.23c1.16.33,1.84,1.07,1.84,2.15,0,1.2-1.01,2.11-2.48,2.11Z"/>
    <path class="cls-10" d="m603.94,389.81v2.83h3.08v-2.83h1.45v7.1h-1.45v-2.89h-3.08v2.89h-1.45v-7.1h1.45Z"/>
    <path class="cls-10" d="m614.71,389.81v1.38h-2.97v1.46h2.37v1.38h-2.37v1.5h2.97v1.38h-4.42v-7.1h4.42Z"/>
    <path class="cls-10" d="m617.67,389.81v7.1h-1.45v-7.1h1.45Z"/>
    <path class="cls-10" d="m622.83,397.02c-2.12.04-3.77-1.64-3.74-3.67-.04-2.03,1.61-3.71,3.72-3.67,1.49,0,2.87.89,3.35,2.22h-1.66c-.35-.51-1-.82-1.69-.82-1.33,0-2.26,1-2.26,2.27s.93,2.27,2.28,2.27c1.13,0,1.84-.61,2-1.61h-2.17v-1.36h3.67c.03.21.04.44.04.68.03,2.39-1.58,3.71-3.54,3.69Z"/>
    <path class="cls-10" d="m629.25,389.81v2.83h3.08v-2.83h1.45v7.1h-1.45v-2.89h-3.08v2.89h-1.45v-7.1h1.45Z"/>
    <path class="cls-10" d="m635.04,391.19v-1.38h5.26v1.38h-1.91v5.72h-1.46v-5.72h-1.89Z"/>
  </g>
  <g>
    <path class="cls-10" d="m481.4,401.63v7.1h-1.45v-4.62l-2.18,2.99-2.18-2.99v4.62h-1.45v-7.1h1.32l2.31,3.16,2.31-3.16h1.32Z"/>
    <path class="cls-10" d="m487.65,401.63v1.38h-2.97v1.46h2.37v1.38h-2.37v1.5h2.97v1.38h-4.42v-7.1h4.42Z"/>
    <path class="cls-10" d="m490.61,401.63v7.1h-1.45v-7.1h1.45Z"/>
    <path class="cls-10" d="m495.04,401.63c1.17,0,2.11.94,2.11,2.06,0,.52-.19.94-.56,1.27.64.31,1.05.91,1.05,1.68,0,1.17-.94,2.09-2.2,2.09h-3v-7.1h2.6Zm-.14,1.32h-1.01v1.59h1.01c.49,0,.84-.34.84-.79s-.35-.8-.84-.8Zm.44,2.82h-1.45v1.63h1.45c.53,0,.89-.34.89-.81s-.36-.82-.89-.82Z"/>
    <path class="cls-10" d="m502.28,401.51c1.98-.04,3.71,1.69,3.67,3.67.04,1.98-1.69,3.71-3.67,3.67-1.98.04-3.71-1.69-3.67-3.67-.04-1.98,1.69-3.71,3.67-3.67Zm0,1.4c-1.21-.03-2.23,1.06-2.21,2.27-.02,1.21,1,2.3,2.21,2.27,1.21.03,2.23-1.06,2.21-2.27.02-1.21-1-2.3-2.21-2.27Z"/>
    <path class="cls-10" d="m510.69,408.85c-2.12.04-3.77-1.64-3.74-3.67-.04-2.03,1.61-3.71,3.72-3.67,1.49,0,2.87.89,3.35,2.22h-1.66c-.35-.51-1-.82-1.69-.82-1.33,0-2.26,1-2.26,2.27s.93,2.27,2.28,2.27c1.13,0,1.84-.61,2-1.61h-2.17v-1.36h3.67c.03.21.04.44.04.68.03,2.39-1.58,3.71-3.54,3.69Z"/>
    <path class="cls-10" d="m519.9,408.73l-2.43-2.99h-.36v2.99h-1.45v-7.1h2.72c1.31,0,2.18.91,2.18,2.1,0,.92-.49,1.54-1.46,1.85l2.55,3.15h-1.75Zm-1.69-4.23c.55,0,.91-.29.91-.77s-.36-.77-.91-.77h-1.1v1.54h1.1Z"/>
    <path class="cls-10" d="m526.9,407.11h-3.02l-.69,1.62h-1.5l3.06-7.1h1.29l3.07,7.1h-1.52l-.69-1.62Zm-.53-1.27l-.98-2.31-.98,2.31h1.96Z"/>
    <path class="cls-10" d="m531.6,406.41v2.32h-1.45v-7.1h2.36c1.43,0,2.49,1.04,2.49,2.39s-1.06,2.39-2.49,2.39h-.91Zm0-3.42v2.06h.89c.65,0,1.1-.44,1.1-1.03s-.45-1.03-1.1-1.03h-.89Z"/>
    <path class="cls-10" d="m537.76,401.63v2.83h3.08v-2.83h1.45v7.1h-1.45v-2.89h-3.08v2.89h-1.45v-7.1h1.45Z"/>
    <path class="cls-10" d="m543.43,401.63h1.68l1.66,2.69,1.67-2.69h1.69l-2.63,4.12v2.98h-1.45v-2.99l-2.62-4.11Z"/>
  </g>
  <circle cx="620.6" cy="349.22" r="4.94"/>
  <path class="cls-8" d="m596.8,359.04s20.87-30.76,47.59,0c0,0-22.9,31.26-47.59,0Z"/>
  <g>
    <path class="cls-5" d="m599.97,356.95s.2.3.58.81"/>
    <path class="cls-6" d="m601.83,359.32c4.85,5.51,18.84,17.42,38.04-.53"/>
    <path class="cls-5" d="m640.6,358.1c.24-.23.47-.46.71-.7"/>
  </g>
  <line class="cls-3" x1="620.6" y1="360.89" x2="620.6" y2="367.81"/>
  <line class="cls-3" x1="619.38" y1="368.23" x2="621.83" y2="368.23"/>
  <g>
    <line class="cls-3" x1="620.64" y1="374.83" x2="620.64" y2="378.57"/>
    <line class="cls-3" x1="619.42" y1="374.83" x2="621.87" y2="374.83"/>
  </g>
  <path class="cls-8" d="m609.85,348.78c0,5.94,4.81,10.75,10.75,10.75s10.75-4.81,10.75-10.75"/>
  <g>
    <path class="cls-12" d="m683.36,36.59l-12.44,17.87-6.49-4.51,20.17-28.97,5.92,4.12.37,18.79,17.75-6.18,5.92,4.12-20.17,28.97-6.53-4.54,12.44-17.87-16.6,5.83-.34-17.62Z"/>
    <path class="cls-12" d="m725.21,50.5l17.07,14.46-4.88,5.76-11.04-9.35-4.08,4.82,8.76,7.42-4.88,5.76-8.76-7.42-4.08,4.82,11.04,9.35-4.88,5.76-17.07-14.46,22.82-26.93Z"/>
    <path class="cls-12" d="m759.2,81.1l5.04,5.08-14.42,35.59-5.81-5.86,3.09-7.47-10.29-10.38-7.5,3.03-5.81-5.86,35.71-14.12Zm-9.26,20.46l4.44-10.63-10.67,4.35,6.23,6.28Z"/>
    <path class="cls-12" d="m760.56,117.1l5.07,6.06c-1.97,2.3-1.67,5.22.31,7.58,1.69,2.02,3.81,2.77,5.34,1.5,1.26-1.05,1.45-2.84-.03-6l-1.52-3.21c-2.46-5.27-2.2-10.54,2-14.11,5.08-4.31,11.33-3.19,16.02,2.41,4.94,5.91,3.73,13.21-.3,16.84l-5.04-6.02c1.62-2.4.95-4.68-.27-6.13-1.47-1.75-3.41-2.53-4.89-1.35-1.52,1.21-1.38,3.16-.16,5.7l1.78,3.76c2.56,5.38,1.95,10.55-2.28,14.09-4.61,3.86-11.39,3.04-16.27-2.79-5.61-6.71-4.12-14.31.22-18.33Z"/>
    <path class="cls-12" d="m785.34,143.14l17.46-12.24,4.54,6.47-17.54,12.3c-3.46,2.43-4.04,6.11-1.78,9.32,2.25,3.22,5.91,3.93,9.37,1.5l17.54-12.3,4.54,6.47-17.46,12.24c-7.2,5.05-15.41,3.4-20.26-3.52-4.88-6.96-3.61-15.2,3.59-20.25Z"/>
    <path class="cls-12" d="m826.48,165.82l6.94,12.07c3.32,5.77,1.32,11.86-3.77,14.78-3.96,2.28-7.72,1.63-11.33-1.45l-7.27,18.57-4.73-8.23,6.78-17.43-.64-1.12-12.63,7.26-3.94-6.85,30.6-17.6Zm-5.68,18.24c1.17,2.03,3.17,2.82,4.94,1.81,1.85-1.07,2.09-3.15.92-5.18l-2.53-4.4-5.86,3.37,2.53,4.4Z"/>
    <path class="cls-12" d="m845.28,199.79l9.53,20.23-6.83,3.22-6.17-13.08-5.71,2.69,4.89,10.39-6.83,3.22-4.89-10.39-5.71,2.69,6.17,13.08-6.83,3.22-9.53-20.23,31.93-15.04Z"/>
    <path class="cls-12" d="m849.76,243.32l-20.49,7.37-2.67-7.44,33.22-11.94,2.44,6.78-10.58,15.53,18.05,5.24,2.44,6.78-33.22,11.94-2.69-7.49,20.49-7.37-16.91-4.86,9.93-14.56Z"/>
    <path class="cls-12" d="m875.82,278.88l5.53,21.67-7.32,1.87-3.58-14.01-6.12,1.56,2.84,11.12-7.32,1.87-2.84-11.12-6.12,1.56,3.58,14.01-7.32,1.87-5.53-21.67,34.19-8.73Z"/>
    <path class="cls-12" d="m853.2,342.81l18.78-20.48-21.54,3.5-1.27-7.8,34.84-5.66,1.09,6.72-18.74,20.42,21.49-3.49,1.28,7.85-34.84,5.66-1.09-6.72Z"/>
    <path class="cls-12" d="m883.38,364.3l-.65-8.97,7.54-.54,1.88,25.98-7.54.54-.66-9.07-27.67,2-.57-7.93,27.67-2Z"/>
  </g>
  <g>
    <g>
      <path class="cls-10" d="m738.37,428.04c1.17,0,2.11.94,2.11,2.06,0,.52-.19.94-.56,1.27.64.31,1.05.91,1.05,1.68,0,1.17-.94,2.09-2.2,2.09h-3v-7.1h2.6Zm-.14,1.32h-1.01v1.59h1.01c.49,0,.84-.34.84-.79s-.35-.8-.84-.8Zm.44,2.82h-1.45v1.63h1.45c.53,0,.89-.34.89-.81s-.36-.82-.89-.82Z"/>
      <path class="cls-10" d="m743.81,428.04v5.72h3.04v1.38h-4.49v-7.1h1.45Z"/>
      <path class="cls-10" d="m749.57,428.04v7.1h-1.45v-7.1h1.45Z"/>
      <path class="cls-10" d="m757.74,428.04v7.1h-1.25l-3.64-4.63v4.63h-1.45v-7.1h1.25l3.64,4.63v-4.63h1.45Z"/>
      <path class="cls-10" d="m764.09,435.13l-3.08-3.23v3.23h-1.44v-7.1h1.44v3l2.56-3h1.79l-2.92,3.41,3.53,3.69h-1.88Z"/>
      <path class="cls-10" d="m773.23,435.13l-2.43-2.99h-.36v2.99h-1.45v-7.1h2.72c1.31,0,2.18.91,2.18,2.1,0,.92-.49,1.54-1.46,1.85l2.55,3.15h-1.75Zm-1.69-4.23c.55,0,.91-.29.91-.77s-.36-.77-.91-.77h-1.1v1.54h1.1Z"/>
      <path class="cls-10" d="m780.23,433.51h-3.02l-.69,1.62h-1.5l3.06-7.1h1.29l3.07,7.1h-1.52l-.69-1.62Zm-.53-1.27l-.98-2.31-.98,2.31h1.96Z"/>
      <path class="cls-10" d="m782.21,429.41v-1.38h5.26v1.38h-1.91v5.72h-1.46v-5.72h-1.89Z"/>
      <path class="cls-10" d="m793.14,428.04v1.38h-2.97v1.46h2.37v1.38h-2.37v1.5h2.97v1.38h-4.42v-7.1h4.42Z"/>
      <path class="cls-10" d="m802.34,435.13l-.86-.83c-.69.65-1.32.94-2.13.94-1.52,0-2.36-.94-2.36-2.13,0-.87.47-1.44,1.26-1.93-.48-.48-.77-.92-.77-1.49,0-.95.86-1.78,2.01-1.78s1.98.86,1.98,1.77c0,.79-.44,1.27-1.21,1.7l1.16,1.13.67-.81h1.64l-1.41,1.67,1.82,1.76h-1.8Zm-3.2-3.09c-.54.33-.81.7-.81,1.11,0,.57.48.88,1.01.88.43,0,.82-.18,1.26-.58l-1.46-1.41Zm.28-1.45h.02c.49-.25.68-.46.68-.85s-.28-.67-.65-.67-.68.24-.68.63c0,.31.16.48.63.89Z"/>
      <path class="cls-10" d="m736.26,442.71c-.38,1.49-1.84,2.54-3.44,2.54-2.11.04-3.76-1.64-3.72-3.67-.04-2.03,1.61-3.71,3.72-3.67,1.6,0,3.06,1.05,3.44,2.54h-1.57c-.29-.69-1.06-1.14-1.87-1.14-1.33,0-2.26,1-2.26,2.27s.93,2.27,2.26,2.27c.81,0,1.58-.45,1.87-1.14h1.57Z"/>
      <path class="cls-10" d="m740.81,437.91c1.98-.04,3.71,1.69,3.67,3.67.04,1.98-1.69,3.71-3.67,3.67-1.98.04-3.71-1.69-3.67-3.67-.04-1.98,1.69-3.71,3.67-3.67Zm0,1.4c-1.21-.03-2.23,1.06-2.21,2.27-.02,1.21,1,2.3,2.21,2.27,1.21.03,2.23-1.06,2.21-2.27.02-1.21-1-2.3-2.21-2.27Z"/>
      <path class="cls-10" d="m753.15,438.04v7.1h-1.45v-4.62l-2.18,2.99-2.18-2.99v4.62h-1.45v-7.1h1.32l2.31,3.16,2.31-3.16h1.32Z"/>
      <path class="cls-10" d="m756.43,442.81v2.32h-1.45v-7.1h2.36c1.43,0,2.49,1.04,2.49,2.39s-1.06,2.39-2.49,2.39h-.91Zm0-3.42v2.06h.89c.65,0,1.1-.44,1.1-1.03s-.45-1.03-1.1-1.03h-.89Z"/>
      <path class="cls-10" d="m762.59,438.04v5.72h3.04v1.38h-4.49v-7.1h1.45Z"/>
      <path class="cls-10" d="m771.32,438.04v1.38h-2.97v1.46h2.37v1.38h-2.37v1.5h2.97v1.38h-4.42v-7.1h4.42Z"/>
      <path class="cls-10" d="m772.25,439.41v-1.38h5.26v1.38h-1.91v5.72h-1.46v-5.72h-1.89Z"/>
      <path class="cls-10" d="m783.18,438.04v1.38h-2.97v1.46h2.37v1.38h-2.37v1.5h2.97v1.38h-4.42v-7.1h4.42Z"/>
      <path class="cls-10" d="m791.03,438.04v7.1h-1.25l-3.64-4.63v4.63h-1.45v-7.1h1.25l3.64,4.63v-4.63h1.45Z"/>
      <path class="cls-10" d="m797.28,438.04v1.38h-2.97v1.46h2.37v1.38h-2.37v1.5h2.97v1.38h-4.42v-7.1h4.42Z"/>
      <path class="cls-10" d="m801.07,445.25c-1.63.03-2.68-1.13-2.72-2.32h1.44c.09.61.63.98,1.28.98.59,0,1.01-.28,1.01-.72,0-.39-.31-.68-.94-.86l-.76-.22c-1.16-.33-1.85-1.05-1.86-2.1,0-.65.22-1.16.65-1.53.43-.38,1.01-.57,1.73-.57,1.47-.02,2.45,1.08,2.49,2.16h-1.43c-.16-.56-.59-.82-1.06-.82-.53,0-.92.27-.92.68s.29.66.89.83l.84.23c1.16.33,1.84,1.07,1.84,2.15,0,1.2-1.01,2.11-2.48,2.11Z"/>
      <path class="cls-10" d="m807.26,445.25c-1.63.03-2.68-1.13-2.72-2.32h1.44c.09.61.63.98,1.28.98.59,0,1.01-.28,1.01-.72,0-.39-.31-.68-.94-.86l-.76-.22c-1.16-.33-1.85-1.05-1.86-2.1,0-.65.22-1.16.65-1.53.43-.38,1.01-.57,1.73-.57,1.47-.02,2.45,1.08,2.49,2.16h-1.43c-.16-.56-.59-.82-1.06-.82-.53,0-.92.27-.92.68s.29.66.89.83l.84.23c1.16.33,1.84,1.07,1.84,2.15,0,1.2-1.01,2.11-2.48,2.11Z"/>
    </g>
    <g id="Pc4Sao">
      <g>
        <path d="m780.24,387.59c.01-5.94,3.79-11.35,9.35-13.31.8-.28,1.63-.44,2.46-.64.18-.04.27-.11.26-.29,0-.04,0-.08,0-.12.08-.56-.1-.93-.58-1.32-1.31-1.07-1.74-2.51-1.34-4.15.4-1.61,1.45-2.64,3.07-3.03,2.76-.67,5.36,1.58,5.1,4.41-.12,1.26-.69,2.28-1.74,3-.21.15-.32.3-.29.56.03.28-.06.65.09.83.14.17.51.14.79.2,3.19.71,5.84,2.32,7.93,4.83,1.61,1.93,2.62,4.15,3.03,6.62.64,3.88-.21,7.44-2.49,10.65-1.81,2.54-4.25,4.24-7.2,5.2-5.77,1.88-12.34-.35-15.81-5.34-1.25-1.8-2.06-3.78-2.41-5.94-.12-.72-.14-1.45-.2-2.17Zm25.3-.02c0-6.17-4.99-11.16-11.14-11.16-6.11,0-11.14,5.02-11.14,11.11,0,6.19,4.98,11.19,11.15,11.19,6.14,0,11.13-5,11.13-11.14Zm-11.13-16.9c.6,0,1.2.02,1.8-.01.15,0,.35-.11.44-.23.58-.77.72-1.64.41-2.55-.37-1.09-1.16-1.74-2.29-1.88-1.21-.15-2.19.33-2.79,1.4-.58,1.03-.48,2.07.19,3.05.11.16.25.23.45.23.6-.01,1.2,0,1.8,0Z"/>
        <path d="m803.63,375.08c.7-.69,1.4-1.38,2.11-2.07.04-.04.22.01.28.08.71.69,1.4,1.39,2.1,2.08.34.34.67.68,1.02,1.01.12.12.13.21,0,.32-.64.64-1.29,1.28-1.93,1.92-.1.11-.19.12-.3,0-1.06-1.07-2.13-2.13-3.2-3.19-.03-.03-.05-.08-.09-.17Z"/>
        <path d="m785.25,375.17c-.35.33-.69.62-1.01.93-.76.75-1.52,1.5-2.26,2.27-.18.18-.28.17-.45,0-.59-.61-1.19-1.2-1.8-1.8-.16-.15-.16-.26,0-.42,1.03-1.03,2.07-2.06,3.09-3.09.12-.12.2-.12.32,0,.67.68,1.35,1.35,2.11,2.11Z"/>
        <path d="m794.42,391.01c-1.67,0-3.13-1.22-3.4-2.78-.29-1.69.59-3.38,2.33-3.94,1.17-.38,2.27-.16,3.25.61.19.15.33.17.57.1,1.82-.59,3.65-1.17,5.48-1.74.12-.04.25-.06.38-.06.34,0,.6.19.69.47.08.29-.03.63-.32.8-.65.38-1.3.73-1.96,1.1-1.1.61-2.2,1.21-3.31,1.81-.16.09-.25.19-.26.39-.1,1.83-1.61,3.24-3.44,3.24Z"/>
      </g>
    </g>
    <g>
      <path d="m756.78,390.9c-7.09.05-12.88,2.33-18.02,6.13-1.35.99-2.58,2.12-3.85,3.19-.56.47-1.14.57-1.68.04-.5-.49-.4-1.02.09-1.48,4.55-4.25,9.73-7.56,16.12-9.04,6.4-1.48,12.62-.79,18.67,1.46,3.77,1.4,7.23,3.31,10.37,5.68.26.2.52.39.75.61.45.44.55.94.09,1.42-.46.48-1.03.46-1.55.1-.7-.49-1.34-1.05-2.04-1.54-4.72-3.3-9.94-5.57-15.87-6.35-.33-.04-.66-.08-1-.1-.82-.05-1.64-.1-2.08-.12Z"/>
      <path d="m766.91,405.08c1.03,1.14,2.27,1.99,3.87,2.59.24.09.5.17.74.26.58.21.83.53.56.95-.28.44-.85.5-1.4.33-.68-.21-1.34-.47-1.96-.75-1.41-.64-2.55-1.48-3.42-2.49-.27-.31-.52-.42-1.07-.32-1.09.21-2.2.38-3.32.5-.65.07-.82.26-.73.69.2.92.35,1.84.52,2.75.03.13.07.27.08.4.05.56-.27.91-.9.93-.73.03-1.04-.28-1.13-.74-.18-.99-.34-1.99-.54-2.99-.2-.98-.05-.8-1.34-.82-.77-.01-1.75-.24-2.25,0-.48.24-.4.99-.7,1.47-.57.9-1.2,1.78-1.88,2.63-.37.47-1.03.56-1.54.33-.5-.23-.55-.66-.11-1.12.92-.96,1.56-1.99,1.91-3.12.12-.38,0-.57-.58-.65-.81-.12-1.61-.27-2.4-.45-.48-.11-.73-.04-.98.28-1.21,1.56-3,2.71-5.25,3.51-.55.2-1.13.19-1.46-.21-.33-.41-.17-.78.47-1.02.27-.1.53-.21.79-.32,1.43-.6,2.57-1.39,3.45-2.38.11-.13.21-.27.36-.47-1.23-.43-2.43-.85-3.64-1.24-.11-.04-.39.09-.52.19-1.92,1.49-4.35,2.28-7.17,2.53-.14.01-.27.03-.41.03-.77.03-1.3-.22-1.31-.65,0-.5.46-.66,1.1-.77,1.23-.2,2.5-.37,3.64-.73.98-.3,1.8-.85,2.83-1.35-.97-.48-1.72-.87-2.51-1.21-.14-.06-.49,0-.65.07-2.43,1.25-5.24,1.59-8.16,1.64-.84.01-1.37-.28-1.31-.72.06-.53.57-.7,1.27-.7,1.99,0,3.92-.22,5.72-.83.41-.14.78-.33,1.22-.52-.47-.37-.86-.66-1.23-.97-.39-.33-.42-.69.06-.98.5-.3,1-.23,1.47.08,4.68,3.12,10.16,5.18,16.55,6,4.98.64,9.69-.1,14.2-1.56,2.14-.7,4.16-1.52,6.06-2.48,1.12-.57,2.2-1.18,3.24-1.83.14-.09.29-.25.44-.25.43-.01.96-.07,1.28.08.47.21.43.61.08.92-.28.24-.61.46-.96.64-.47.24-.45.47-.15.78,1.45,1.5,3.52,2.3,6.01,2.65.19.03.39.04.57.08.58.12.9.39.78.82-.12.43-.56.63-1.16.57-3.09-.35-5.74-1.25-7.63-3.06-.15-.14-.29-.28-.43-.42-.03-.03-.09-.05-.21-.11-.94.45-1.9.91-2.93,1.4,1.32,1.25,2.94,2.11,4.9,2.66.28.08.58.14.86.22.55.17.77.53.51.85-.18.23-.71.44-1.08.44-.53,0-1.06-.19-1.57-.35-2-.6-3.64-1.53-5-2.71-.35-.3-.6-.35-1.09-.17-1.09.4-2.22.76-3.44,1.16Z"/>
      <path d="m747.78,413.59c-.93,1.27-2.06,2.23-3.52,2.9-.22.1-.45.19-.67.29-.53.23-.75.59-.51,1.07.25.49.77.56,1.28.37.62-.24,1.22-.52,1.78-.84,1.28-.72,2.31-1.66,3.1-2.79.24-.34.47-.47.97-.35.99.23,2,.42,3.02.56.59.08.75.29.66.78-.18,1.02-.32,2.06-.48,3.08-.02.15-.06.3-.07.45-.05.63.24,1.02.82,1.04.66.03.95-.31,1.03-.83.17-1.11.31-2.23.49-3.34.18-1.09.05-.89,1.22-.92.7-.01,1.59-.27,2.05,0,.44.27.36,1.1.64,1.64.52,1,1.09,1.99,1.71,2.95.34.53.93.63,1.4.37.45-.25.5-.74.1-1.26-.84-1.07-1.42-2.23-1.73-3.49-.11-.43,0-.63.52-.73.74-.13,1.47-.31,2.18-.51.44-.12.67-.05.89.31,1.09,1.75,2.72,3.03,4.77,3.93.5.22,1.03.22,1.32-.24.3-.46.15-.88-.43-1.14-.24-.11-.48-.24-.72-.36-1.29-.67-2.34-1.56-3.13-2.66-.1-.15-.19-.3-.32-.52,1.12-.48,2.2-.95,3.31-1.39.1-.04.36.1.47.21,1.75,1.67,3.95,2.56,6.51,2.84.12.01.25.03.37.04.7.04,1.18-.25,1.19-.73,0-.56-.41-.74-1-.86-1.12-.22-2.27-.42-3.31-.82-.89-.34-1.64-.95-2.57-1.51.88-.54,1.57-.97,2.28-1.36.13-.07.44-.01.59.08,2.21,1.4,4.76,1.78,7.41,1.83.77.02,1.24-.31,1.19-.81-.06-.59-.52-.78-1.15-.78-1.8,0-3.56-.24-5.2-.93-.37-.16-.71-.37-1.11-.58.42-.41.78-.74,1.11-1.08.36-.37.38-.77-.06-1.09-.46-.34-.91-.26-1.34.09-4.25,3.5-9.23,5.8-15.03,6.72-4.52.72-8.8-.11-12.9-1.75-3.1-1.24-5.91-2.86-8.44-4.83-.13-.1-.26-.27-.4-.28-.39-.02-.87-.07-1.16.09-.43.24-.4.69-.07,1.03.25.27.55.51.87.71.42.27.41.53.14.87-1.32,1.68-3.2,2.58-5.46,2.97-.17.03-.35.04-.52.09-.53.14-.81.44-.71.92.1.48.51.71,1.05.63,2.81-.39,5.21-1.4,6.93-3.43.13-.16.26-.32.39-.47.03-.03.08-.05.19-.12.85.5,1.73,1.02,2.66,1.57-1.19,1.4-2.67,2.36-4.45,2.98-.26.09-.53.15-.78.25-.5.19-.7.59-.46.95.17.25.65.5.98.49.48,0,.96-.22,1.42-.39,1.81-.68,3.31-1.72,4.54-3.03.32-.34.55-.39.99-.19.99.45,2.02.85,3.12,1.3Z"/>
      <path class="cls-2" d="m733.58,400.62c.03,1.55,1.32,5.35,3.81,6.47"/>
      <path class="cls-2" d="m778.01,400.62s.33,2.37-2.13,5.74c-.82,1.12-.33,1.08-1.88,2.37"/>
    </g>
  </g>
  <g>
    <g>
      <path class="cls-10" d="m576.05,478.53v7.1h-1.45v-4.62l-2.18,2.99-2.18-2.99v4.62h-1.45v-7.1h1.32l2.31,3.16,2.31-3.16h1.32Z"/>
      <path class="cls-10" d="m582.3,478.53v1.38h-2.97v1.46h2.37v1.38h-2.37v1.5h2.97v1.38h-4.42v-7.1h4.42Z"/>
      <path class="cls-10" d="m585.26,478.53v7.1h-1.45v-7.1h1.45Z"/>
      <path class="cls-10" d="m589.69,478.53c1.17,0,2.11.94,2.11,2.06,0,.52-.19.94-.56,1.27.64.31,1.05.91,1.05,1.68,0,1.17-.94,2.09-2.2,2.09h-3v-7.1h2.6Zm-.14,1.32h-1.01v1.59h1.01c.49,0,.84-.34.84-.79s-.35-.8-.84-.8Zm.44,2.82h-1.45v1.63h1.45c.53,0,.89-.34.89-.81s-.36-.82-.89-.82Z"/>
      <path class="cls-10" d="m596.93,478.41c1.98-.04,3.71,1.69,3.67,3.67.04,1.98-1.69,3.71-3.67,3.67-1.98.04-3.71-1.69-3.67-3.67-.04-1.98,1.69-3.71,3.67-3.67Zm0,1.4c-1.21-.03-2.23,1.06-2.21,2.27-.02,1.21,1,2.3,2.21,2.27,1.21.03,2.23-1.06,2.21-2.27.02-1.21-1-2.3-2.21-2.27Z"/>
      <path class="cls-10" d="m609.27,478.53v7.1h-1.45v-4.62l-2.18,2.99-2.18-2.99v4.62h-1.45v-7.1h1.32l2.31,3.16,2.31-3.16h1.32Z"/>
      <path class="cls-10" d="m612.55,478.53v7.1h-1.45v-7.1h1.45Z"/>
      <path class="cls-10" d="m618.81,484h-3.02l-.69,1.62h-1.5l3.06-7.1h1.29l3.07,7.1h-1.52l-.69-1.62Zm-.53-1.27l-.98-2.31-.98,2.31h1.96Z"/>
      <path class="cls-10" d="m628.4,478.53v7.1h-1.25l-3.64-4.63v4.63h-1.45v-7.1h1.25l3.64,4.63v-4.63h1.45Z"/>
      <path class="cls-10" d="m636.06,485.74c-2.12.04-3.77-1.64-3.74-3.67-.04-2.03,1.61-3.71,3.72-3.67,1.49,0,2.87.89,3.35,2.22h-1.66c-.35-.51-1-.82-1.69-.82-1.33,0-2.26,1-2.26,2.27s.93,2.27,2.28,2.27c1.13,0,1.84-.61,2-1.61h-2.17v-1.36h3.67c.03.21.04.44.04.68.03,2.39-1.58,3.71-3.54,3.69Z"/>
      <path class="cls-10" d="m642.48,478.53v5.72h3.04v1.38h-4.49v-7.1h1.45Z"/>
      <path class="cls-10" d="m651.22,484h-3.02l-.69,1.62h-1.5l3.06-7.1h1.29l3.07,7.1h-1.52l-.69-1.62Zm-.53-1.27l-.98-2.31-.98,2.31h1.96Z"/>
      <path class="cls-10" d="m660.81,478.53v7.1h-1.25l-3.64-4.63v4.63h-1.45v-7.1h1.25l3.64,4.63v-4.63h1.45Z"/>
      <path class="cls-10" d="m664.98,478.53c1.99-.04,3.69,1.62,3.65,3.55.04,1.93-1.66,3.59-3.65,3.55h-2.34v-7.1h2.34Zm0,1.33h-.89v4.44h.89c1.29,0,2.19-.99,2.19-2.22s-.9-2.22-2.19-2.22Z"/>
      <path class="cls-10" d="m591.73,488.53v1.38h-2.97v1.46h2.37v1.38h-2.37v1.5h2.97v1.38h-4.42v-7.1h4.42Z"/>
      <path class="cls-10" d="m597.78,495.62l-1.84-2.46-1.85,2.46h-1.7l2.67-3.59-2.52-3.51h1.68l1.72,2.38,1.71-2.38h1.68l-2.52,3.51,2.67,3.59h-1.7Z"/>
      <path class="cls-10" d="m601.92,493.31v2.32h-1.45v-7.1h2.36c1.43,0,2.49,1.04,2.49,2.39s-1.06,2.39-2.49,2.39h-.91Zm0-3.42v2.06h.89c.65,0,1.1-.44,1.1-1.03s-.45-1.03-1.1-1.03h-.89Z"/>
      <path class="cls-10" d="m610.86,495.62l-2.43-2.99h-.36v2.99h-1.45v-7.1h2.72c1.31,0,2.18.91,2.18,2.1,0,.92-.49,1.54-1.46,1.85l2.55,3.15h-1.75Zm-1.69-4.23c.55,0,.91-.29.91-.77s-.36-.77-.91-.77h-1.1v1.54h1.1Z"/>
      <path class="cls-10" d="m617.85,488.53v1.38h-2.97v1.46h2.37v1.38h-2.37v1.5h2.97v1.38h-4.42v-7.1h4.42Z"/>
      <path class="cls-10" d="m621.64,495.74c-1.63.03-2.68-1.13-2.72-2.32h1.44c.09.61.63.98,1.28.98.59,0,1.01-.28,1.01-.72,0-.39-.31-.68-.94-.86l-.76-.22c-1.16-.33-1.85-1.05-1.86-2.1,0-.65.22-1.16.65-1.53.43-.38,1.01-.57,1.73-.57,1.47-.02,2.45,1.08,2.49,2.16h-1.43c-.16-.56-.59-.82-1.06-.82-.53,0-.92.27-.92.68s.29.66.89.83l.84.23c1.16.33,1.84,1.07,1.84,2.15,0,1.2-1.01,2.11-2.48,2.11Z"/>
      <path class="cls-10" d="m627.83,495.74c-1.63.03-2.68-1.13-2.72-2.32h1.44c.09.61.63.98,1.28.98.59,0,1.01-.28,1.01-.72,0-.39-.31-.68-.94-.86l-.76-.22c-1.16-.33-1.85-1.05-1.86-2.1,0-.65.22-1.16.65-1.53.43-.38,1.01-.57,1.73-.57,1.47-.02,2.45,1.08,2.49,2.16h-1.43c-.16-.56-.59-.82-1.06-.82-.53,0-.92.27-.92.68s.29.66.89.83l.84.23c1.16.33,1.84,1.07,1.84,2.15,0,1.2-1.01,2.11-2.48,2.11Z"/>
      <path class="cls-10" d="m633.19,488.53v7.1h-1.45v-7.1h1.45Z"/>
      <path class="cls-10" d="m638.27,488.41c1.98-.04,3.71,1.69,3.67,3.67.04,1.98-1.69,3.71-3.67,3.67-1.98.04-3.71-1.69-3.67-3.67-.04-1.98,1.69-3.71,3.67-3.67Zm0,1.4c-1.21-.03-2.23,1.06-2.21,2.27-.02,1.21,1,2.3,2.21,2.27,1.21.03,2.23-1.06,2.21-2.27.02-1.21-1-2.3-2.21-2.27Z"/>
      <path class="cls-10" d="m649.69,488.53v7.1h-1.25l-3.64-4.63v4.63h-1.45v-7.1h1.25l3.64,4.63v-4.63h1.45Z"/>
    </g>
    <g>
      <g>
        <g>
          <path class="cls-1" d="m627.87,425.03c-.78-.33-1.49-.78-2.25-1.15-.76-.37-1.54-.69-2.3-1.04-.05-.02-.1-.04-.15-.06-.19-.08-.39-.16-.58-.24-.4-.16-.8-.33-1.19-.49-.63-.26-1.1-.56-1.47-1.13-.07-.1-.11-.22-.16-.33-.1.01-.2.02-.3.03-.33.03-.21-.02-.06-.03-.25.01-.67.15-.82.18-1.91.34-3.86.83-5.82,1-.1.29-.26.54-.49.76-.22.24-.49.41-.79.51-.29.15-.61.22-.95.21-.52.06-1.04.09-1.55.14-.27.05-.53.11-.79.19-.26.92-.41,1.88-.41,2.89,0,5.94,4.81,10.75,10.75,10.75s10.75-4.81,10.75-10.75c0-.35-.03-.7-.06-1.04-.45-.08-.89-.2-1.33-.39Z"/>
          <circle cx="618.51" cy="425.79" r="4.94"/>
          <path class="cls-8" d="m594.71,435.61s20.87-30.76,47.59,0c0,0-22.9,31.26-47.59,0Z"/>
          <path class="cls-5" d="m598.4,432.65s15.99,26.15,40.82,1.32"/>
        </g>
        <path class="cls-10" d="m637.86,437.69c.64,0,.64-1,0-1s-.64,1,0,1h0Z"/>
        <path class="cls-10" d="m635.32,439.69c.64,0,.64-1,0-1s-.64,1,0,1h0Z"/>
        <path class="cls-10" d="m632.32,441.9c.64,0,.64-1,0-1s-.64,1,0,1h0Z"/>
        <path class="cls-10" d="m628.66,444.34c.64,0,.64-1,0-1s-.64,1,0,1h0Z"/>
        <path class="cls-10" d="m624.78,445.89c.64,0,.64-1,0-1s-.64,1,0,1h0Z"/>
        <path class="cls-10" d="m620.46,446.89c.64,0,.64-1,0-1s-.64,1,0,1h0Z"/>
        <path class="cls-10" d="m616.25,446.89c.64,0,.64-1,0-1s-.64,1,0,1h0Z"/>
        <path class="cls-10" d="m611.93,446c.64,0,.64-1,0-1s-.64,1,0,1h0Z"/>
        <path class="cls-10" d="m608.05,444.45c.64,0,.64-1,0-1s-.64,1,0,1h0Z"/>
        <path class="cls-10" d="m604.5,441.9c.64,0,.64-1,0-1s-.64,1,0,1h0Z"/>
        <path class="cls-10" d="m601.29,439.13c.64,0,.64-1,0-1s-.64,1,0,1h0Z"/>
        <path class="cls-10" d="m598.4,436.58c.64,0,.64-1,0-1s-.64,1,0,1h0Z"/>
      </g>
      <path class="cls-8" d="m607.76,426.46c0,5.94,4.81,10.75,10.75,10.75s10.75-4.81,10.75-10.75"/>
    </g>
  </g>
  <g>
    <g>
      <path d="m523.92,387.49c1.1-.4,2.22-1.14,2.78-2.38,1.03-2.26-1.24-6.03.61-6.25,1.33-.16,1.58.99,1.26,1.03-.26-.58-.54-1.67-.97-2.32-.2-.31-.49,0-.69-.27-.21-.07-.4-1.96-.81-1.39-.27.38-.87-.64-1-.85l.25,9.12c0,.42-.49.77-1.09.77s-1.09-.35-1.09-.77v-9.97c-.47-.33-.97-.64-1.5-.92v10.89c0,.42-.49.77-1.09.77s-1.09-.35-1.09-.77v-11.88c-.48-.18-.98-.35-1.5-.51v12.39c0,.42-.49.77-1.09.77s-1.09-.35-1.09-.77v-12.92c-.49-.09-1.01-.19-1.54-.28,0,.04.03.08.03.12v13.08c0,.42-.49.77-1.09.77s-1.09-.35-1.09-.77v-13.08c0-.1.03-.2.08-.29-.61,0-1.13,0-1.46.01-.05,0-.13,0-.2,0,.05.08.08.17.08.27v5.69c0,.42-.49.77-1.09.77s-1.09-.35-1.09-.77v-5.69s.01-.03.02-.05c-.51.06-1.01.14-1.52.23v5.51c0,.42-.49.77-1.09.77s-1.09-.35-1.09-.77v-5.05c-.52.15-1.01.33-1.5.52v11.92c0,.42-.49.77-1.09.77s-1.09-.35-1.09-.77v-10.91s-.08.04-.12.06c-.03.01-.07.02-.1.04-.47.23-.9.51-1.28.78v10.03c0,.42-.49.77-1.09.77s-1.09-.35-1.09-.77l-.32-8.75c-2.35,2.38-2.74,3.59-2.65,3.72.11.15.47-1.11,1.71-.39.82.48-.93,3.55,0,5.89.61,1.54,2.17,2.28,3.46,2.67,8.08.06,16.17.11,24.25.17Z"/>
      <path d="m517.32,395.34c1.28-1.08.94-2.49-.99-3.36-1.5-.68-3.18-.93-4.97-.94-1.78.02-3.48.25-4.96.95-1.6.76-2.1,1.79-1.52,2.73,4.02.94,8.27,1.3,12.45.62Z"/>
      <path class="cls-3" d="m511.35,387.49c2.58.01,5,.38,7.17,1.33,3.27,1.45,3.38,3.94.25,5.51-3.85,1.92-10.79,1.94-14.66.04-3.27-1.6-3.25-3.98.09-5.53,2.14-.99,4.59-1.32,7.16-1.35Z"/>
    </g>
    <path class="cls-8" d="m488.57,384s20.11-29.65,45.88,0c0,0-22.07,30.13-45.88,0Z"/>
  </g>
  <g id="Fktjwz">
    <g>
      <path d="m647.74,452.23c5.85,1.6,11.7,3.21,17.56,4.81.14.04.28.07.41.12.38.12.55.41.46.8-.1.4-.35.58-.76.52-.16-.02-.31-.07-.47-.11-11.38-3.12-22.76-6.24-34.14-9.34-.71-.19-1.45-.32-2.19-.36-.58-.03-1.16.11-1.74.2-.71.11-1.36.41-1.98.77-.72.42-1.36.95-1.89,1.59-.37.45-.66.94-.93,1.45-.3.56-.52,1.14-.61,1.75-.11.8-.17,1.61-.02,2.43.18,1.02.53,1.96,1.09,2.82.4.6.88,1.13,1.44,1.6.94.79,2.03,1.23,3.2,1.54,11.34,3.1,22.68,6.21,34.01,9.32.19.05.37.11.55.19.31.14.41.46.29.82-.12.34-.39.51-.72.44-.14-.03-.28-.07-.42-.11-11.45-3.14-22.9-6.27-34.36-9.41-.53-.14-1.07-.28-1.56-.5-.68-.3-1.34-.66-1.88-1.19-.4-.38-.83-.74-1.17-1.17-.42-.54-.82-1.11-1.12-1.73-.31-.63-.53-1.31-.69-1.98-.13-.52-.14-1.08-.17-1.62-.06-1.22.25-2.38.7-3.49.21-.52.52-1.02.84-1.49.29-.43.63-.84,1-1.22.5-.51,1.07-.93,1.7-1.29.82-.47,1.68-.82,2.6-.98.61-.11,1.22-.16,1.85-.17,1.04-.01,1.99.31,2.96.57,5.39,1.47,10.78,2.95,16.17,4.42Z"/>
      <path d="m628.52,461.4c-.76-.14-1.47-.44-2.14-.82-.71-.41-1.28-.97-1.74-1.64-.38-.55-.63-1.16-.77-1.79-.12-.52-.15-1.09-.11-1.62.08-1,.4-1.95,1.01-2.76.67-.89,1.54-1.55,2.62-1.9,1.19-.4,2.38-.36,3.57-.02.34.1.68.19,1.02.28.95.25,1.78.73,2.43,1.46.45.5.76,1.09.95,1.76.28.99.18,1.96-.09,2.93-.09.31-.14.63-.26.92-.21.53-.38,1.09-.69,1.56-.49.75-1.18,1.32-2.03,1.67-1.12.46-2.24.42-3.38.09-.13-.04-.26-.07-.39-.11Zm2.42-9.03c-.28-.08-.57-.15-.85-.23-.87-.25-1.72-.15-2.53.19-1.1.46-1.79,1.32-2.23,2.4-.07.18-.09.39-.11.59-.03.2-.05.4-.04.6.02.32.03.64.1.94.15.62.43,1.18.86,1.66.4.45.84.85,1.42,1.04.75.24,1.52.45,2.28.66.78.22,1.52.1,2.21-.28.63-.35,1.14-.84,1.36-1.55.23-.75.43-1.5.63-2.26.13-.48.07-.96-.08-1.43-.32-1.05-1-1.74-2.05-2.07-.32-.1-.65-.18-.97-.27Z"/>
      <path d="m645,460.32c-.16.58-.35,1.15-.46,1.73-.13.66-.14,1.34-.02,2,.03.17.12.33.18.49.24.57-.1,1.07-.71,1.07-.3,0-.48-.24-.58-.46-.27-.55-.37-1.14-.38-1.77-.02-1.62.37-3.15.88-4.66.28-.84.63-1.66,1.14-2.38.29-.4.68-.74,1.08-1.04.4-.29.78-.16,1.07.28.16.25,0,.7-.31.94-.37.27-.67.6-.88,1.01-.14.28-.34.55-.44.85-.23.63-.42,1.28-.63,1.92l.07.02Z"/>
      <path d="m652.68,462.66c-.22.59-.49,1.42-.85,2.2-.25.54-.59,1.06-.96,1.53-.26.33-.59.61-1.03.73-.41.11-.85-.2-.82-.63.02-.31.15-.54.42-.76.33-.27.62-.62.84-.98.67-1.09.93-2.33,1.27-3.55.2-.7.23-1.43.26-2.14.02-.44-.03-.9-.28-1.31-.14-.23,0-.78.22-.93.32-.22.67-.17.94.14.33.38.42.84.49,1.32.19,1.32-.2,3.07-.5,4.37Z"/>
      <path d="m647.42,460.95c.4-1.45.8-2.91,1.19-4.36.1-.36.41-.63.76-.66.24-.03.55.18.62.47.04.17.07.37.03.54-.8,2.94-1.6,5.88-2.41,8.82-.1.37-.36.56-.72.62-.12.02-.3-.03-.39-.12-.26-.25-.41-.54-.29-.95.42-1.45.8-2.9,1.2-4.36Z"/>
    </g>
  </g>
</svg>