<svg xmlns="http://www.w3.org/2000/svg" xmlns:xlink="http://www.w3.org/1999/xlink" preserveAspectRatio="xMidYMid meet" width="1920" height="1080" viewBox="0 0 1920 1080" style="width:100%;height:100%"><defs><animateTransform repeatCount="indefinite" dur="6s" begin="0s" xlink:href="#_R_G_L_5_G_L_1_G" fill="freeze" attributeName="transform" from="0 0" to="1 1" type="scale" additive="sum" keyTimes="0;0.1041667;0.1388889;1" values="0 0;0 0;1 1;1 1" keySplines="0.167 0.167 0 1;0.167 0.167 0 1;0 0 0 0" calcMode="spline"/><animateTransform repeatCount="indefinite" dur="6s" begin="0s" xlink:href="#_R_G_L_5_G_L_1_G" fill="freeze" attributeName="transform" from="-20.432 -20.432" to="-20.432 -20.432" type="translate" additive="sum" keyTimes="0;1" values="-20.432 -20.432;-20.432 -20.432" keySplines="0 0 1 1" calcMode="spline"/><animateTransform repeatCount="indefinite" dur="6s" begin="0s" xlink:href="#_R_G_L_5_G_L_0_G" fill="freeze" attributeName="transform" from="0 0" to="1 1" type="scale" additive="sum" keyTimes="0;0.1111111;0.1458333;1" values="0 0;0 0;1 1;1 1" keySplines="0.167 0.167 0 1;0.167 0.167 0 1;0 0 0 0" calcMode="spline"/><animateTransform repeatCount="indefinite" dur="6s" begin="0s" xlink:href="#_R_G_L_5_G_L_0_G" fill="freeze" attributeName="transform" from="-173.869 -20.432" to="-173.869 -20.432" type="translate" additive="sum" keyTimes="0;1" values="-173.869 -20.432;-173.869 -20.432" keySplines="0 0 1 1" calcMode="spline"/><animateMotion repeatCount="indefinite" dur="6s" begin="0s" xlink:href="#_R_G_L_4_G_N_2_T_0" fill="freeze" keyTimes="0;0.4791667;0.6041667;0.6875;0.7638889;0.8888889;1" path="M1185.93 590.65 C1185.93,590.65 1185.93,590.65 1185.93,590.65 C1157.59,590.65 1040.09,590.65 1015.93,590.65 C991.76,590.65 1040.93,590.65 1040.93,590.65 C1040.93,590.65 991.76,590.65 1015.93,590.65 C1040.09,590.65 1157.59,590.65 1185.93,590.65 C1185.93,590.65 1185.93,590.65 1185.93,590.65 " keyPoints="0;0;0.41;0.5;0.59;1;1" keySplines="0.333 0 0.667 1;0.333 0 0.667 1;0.333 0 0.667 1;0.333 0 0.667 1;0.333 0 0.667 1;0 0 0 0" calcMode="spline"/><animateTransform repeatCount="indefinite" dur="6s" begin="0s" xlink:href="#_R_G_L_4_G_N_2_T_0" fill="freeze" attributeName="transform" from="-165.64 -116.411" to="-165.64 -116.411" type="translate" additive="sum" keyTimes="0;1" values="-165.64 -116.411;-165.64 -116.411" keySplines="0 0 1 1" calcMode="spline"/><animateMotion repeatCount="indefinite" dur="6s" begin="0s" xlink:href="#_R_G_L_3_G_N_2_T_0" fill="freeze" keyTimes="0;0.4791667;0.6041667;0.6875;0.7638889;0.8888889;1" path="M1185.93 590.65 C1185.93,590.65 1185.93,590.65 1185.93,590.65 C1157.59,590.65 1040.09,590.65 1015.93,590.65 C991.76,590.65 1040.93,590.65 1040.93,590.65 C1040.93,590.65 991.76,590.65 1015.93,590.65 C1040.09,590.65 1157.59,590.65 1185.93,590.65 C1185.93,590.65 1185.93,590.65 1185.93,590.65 " keyPoints="0;0;0.41;0.5;0.59;1;1" keySplines="0.333 0 0.667 1;0.333 0 0.667 1;0.333 0 0.667 1;0.333 0 0.667 1;0.333 0 0.667 1;0 0 0 0" calcMode="spline"/><animateTransform repeatCount="indefinite" dur="6s" begin="0s" xlink:href="#_R_G_L_3_G_N_2_T_0" fill="freeze" attributeName="transform" from="-165.64 -116.411" to="-165.64 -116.411" type="translate" additive="sum" keyTimes="0;1" values="-165.64 -116.411;-165.64 -116.411" keySplines="0 0 1 1" calcMode="spline"/><animateMotion repeatCount="indefinite" dur="6s" begin="0s" xlink:href="#_R_G_L_2_G_N_2_T_0" fill="freeze" keyTimes="0;0.4791667;0.6041667;0.6875;0.7638889;0.8888889;1" path="M1185.93 590.65 C1185.93,590.65 1185.93,590.65 1185.93,590.65 C1157.59,590.65 1040.09,590.65 1015.93,590.65 C991.76,590.65 1040.93,590.65 1040.93,590.65 C1040.93,590.65 991.76,590.65 1015.93,590.65 C1040.09,590.65 1157.59,590.65 1185.93,590.65 C1185.93,590.65 1185.93,590.65 1185.93,590.65 " keyPoints="0;0;0.41;0.5;0.59;1;1" keySplines="0.333 0 0.667 1;0.333 0 0.667 1;0.333 0 0.667 1;0.333 0 0.667 1;0.333 0 0.667 1;0 0 0 0" calcMode="spline"/><animateTransform repeatCount="indefinite" dur="6s" begin="0s" xlink:href="#_R_G_L_2_G_N_2_T_0" fill="freeze" attributeName="transform" from="-165.64 -116.411" to="-165.64 -116.411" type="translate" additive="sum" keyTimes="0;1" values="-165.64 -116.411;-165.64 -116.411" keySplines="0 0 1 1" calcMode="spline"/><animateMotion repeatCount="indefinite" dur="6s" begin="0s" xlink:href="#_R_G_L_1_G" fill="freeze" keyTimes="0;0.4791667;0.6041667;0.6875;0.7638889;0.8888889;1" path="M1185.93 590.65 C1185.93,590.65 1185.93,590.65 1185.93,590.65 C1157.59,590.65 1040.09,590.65 1015.93,590.65 C991.76,590.65 1040.93,590.65 1040.93,590.65 C1040.93,590.65 991.76,590.65 1015.93,590.65 C1040.09,590.65 1157.59,590.65 1185.93,590.65 C1185.93,590.65 1185.93,590.65 1185.93,590.65 " keyPoints="0;0;0.41;0.5;0.59;1;1" keySplines="0.333 0 0.667 1;0.333 0 0.667 1;0.333 0 0.667 1;0.333 0 0.667 1;0.333 0 0.667 1;0 0 0 0" calcMode="spline"/><animateTransform repeatCount="indefinite" dur="6s" begin="0s" xlink:href="#_R_G_L_1_G" fill="freeze" attributeName="transform" from="-165.64 -116.411" to="-165.64 -116.411" type="translate" additive="sum" keyTimes="0;1" values="-165.64 -116.411;-165.64 -116.411" keySplines="0 0 1 1" calcMode="spline"/><animateMotion repeatCount="indefinite" dur="6s" begin="0s" xlink:href="#_R_G_L_0_G_N_2_T_0" fill="freeze" keyTimes="0;0.4791667;0.6041667;0.6875;0.7638889;0.8888889;1" path="M1185.93 590.65 C1185.93,590.65 1185.93,590.65 1185.93,590.65 C1157.59,590.65 1040.09,590.65 1015.93,590.65 C991.76,590.65 1040.93,590.65 1040.93,590.65 C1040.93,590.65 991.76,590.65 1015.93,590.65 C1040.09,590.65 1157.59,590.65 1185.93,590.65 C1185.93,590.65 1185.93,590.65 1185.93,590.65 " keyPoints="0;0;0.41;0.5;0.59;1;1" keySplines="0.333 0 0.667 1;0.333 0 0.667 1;0.333 0 0.667 1;0.333 0 0.667 1;0.333 0 0.667 1;0 0 0 0" calcMode="spline"/><animateTransform repeatCount="indefinite" dur="6s" begin="0s" xlink:href="#_R_G_L_0_G_N_2_T_0" fill="freeze" attributeName="transform" from="-165.64 -116.411" to="-165.64 -116.411" type="translate" additive="sum" keyTimes="0;1" values="-165.64 -116.411;-165.64 -116.411" keySplines="0 0 1 1" calcMode="spline"/><animate attributeType="XML" attributeName="opacity" dur="6s" from="0" to="1" xlink:href="#time_group"/></defs><g id="_R_G"><g id="_R_G_L_5_G" transform=" translate(960, 540) translate(-960, -662.5)"><g id="_R_G_L_5_G_L_6_G" transform=" translate(793.357, 658.665) translate(-206.501, -263.68)"><path id="_R_G_L_5_G_L_6_G_D_0_P_0" fill="#000000" fill-opacity="1" fill-rule="nonzero" d=" M408.08 169.24 C402.59,144.88 391.72,122.6 376.49,102.45 C320.4,28.24 219.66,0.25 131.8,34.21 C49.85,65.88 0.25,139.61 4.18,225.31 C6.36,272.8 18.26,318.23 37,361.81 C54.12,401.61 75.87,438.35 108.9,467.41 C148.94,502.64 194.65,517.02 246.44,500.83 C269.34,493.67 369.16,473.46 399.96,291.4 C413.14,213.53 408.08,169.24 408.08,169.24z  M97.03 76.7 C149.31,39.68 206.73,32.8 269.38,50.24 C266.98,55.41 265.5,59.41 263.38,63.03 C246.62,91.7 222.77,113.62 196.03,132.58 C149.07,165.88 97.23,187.23 40.04,195.12 C36.02,195.68 31.95,195.94 25.75,196.55 C32.66,145.23 56.29,105.54 97.03,76.7z  M390.06 260.6 C382.36,323.31 359.49,381.58 344.41,404.16 C339.47,411.55 335.43,417.45 332.12,422.22 C319.7,437.61 306.1,451.89 290.01,463.7 C248.92,493.9 205.1,500.74 158.12,478.13 C134.09,466.56 115.27,448.57 99.51,427.77 C54.69,368.61 31.14,301.3 25.23,227.53 C24.65,220.37 26.15,217.48 33.98,216.7 C64.6,213.67 94.44,206.7 123.06,195.33 C176.92,173.93 225.18,144.17 263.24,99.59 C266.36,95.95 269.36,92.21 273.25,87.51 C290.73,131.82 350.89,177.56 395.56,194.05 C390.91,190.15 395.78,178.22 390.06,174.8 C339.46,144.55 294.54,106.27 289.77,60.92 C291.31,60.59 291.91,60.26 292.34,60.41 C293.88,60.94 295.42,61.53 296.86,62.29 C344.88,87.62 375.9,125.94 388.72,178.42 C391.69,192.49 395.08,219.72 390.06,260.6z "/></g><g id="_R_G_L_5_G_L_5_G" transform=" translate(960, 662.5) translate(0, 0)"><path id="_R_G_L_5_G_L_5_G_D_0_P_0" stroke="#ff0000" stroke-linecap="round" stroke-linejoin="round" fill="none" stroke-width="21" stroke-opacity="1" d=" M-90 -225.5 C-170.08,-259.5 -351.5,-227 -358,-53 C-359.05,-24.98 -345.5,129.84 -239.5,208 C-180.5,251.5 -102.22,229.41 -59.05,188.85 C-38.11,169.17 -22.43,144.73 -15.5,132 C3,98 37.25,-5.73 24.07,-93.51 C14.81,-155.19 -37,-203 -90,-225.5z "/></g><g id="_R_G_L_5_G_L_4_G" transform=" translate(793.357, 658.665) translate(-206.501, -263.68)"><path id="_R_G_L_5_G_L_4_G_D_0_P_0" fill="#000000" fill-opacity="1" fill-rule="nonzero" d=" M408.08 169.24 C402.59,144.88 391.72,122.6 376.49,102.45 C320.4,28.24 219.66,0.25 131.8,34.21 C49.85,65.88 0.25,139.61 4.18,225.31 C6.36,272.8 18.26,318.23 37,361.81 C54.12,401.61 75.87,438.35 108.9,467.41 C148.94,502.64 194.65,517.02 246.44,500.83 C269.34,493.67 369.16,473.46 399.96,291.4 C413.14,213.53 408.08,169.24 408.08,169.24z  M97.03 76.7 C149.31,39.68 206.73,32.8 269.38,50.24 C266.98,55.41 265.5,59.41 263.38,63.03 C246.62,91.7 222.77,113.62 196.03,132.58 C149.07,165.88 97.23,187.23 40.04,195.12 C36.02,195.68 31.95,195.94 25.75,196.55 C32.66,145.23 56.29,105.54 97.03,76.7z  M390.06 260.6 C382.36,323.31 359.49,381.58 344.41,404.16 C339.47,411.55 335.43,417.45 332.12,422.22 C319.7,437.61 306.1,451.89 290.01,463.7 C248.92,493.9 205.1,500.74 158.12,478.13 C134.09,466.56 115.27,448.57 99.51,427.77 C54.69,368.61 31.14,301.3 25.23,227.53 C24.65,220.37 26.15,217.48 33.98,216.7 C64.6,213.67 94.44,206.7 123.06,195.33 C176.92,173.93 225.18,144.17 263.24,99.59 C266.36,95.95 269.36,92.21 273.25,87.51 C290.73,131.82 350.89,177.56 395.56,194.05 C390.91,190.15 395.78,178.22 390.06,174.8 C339.46,144.55 294.54,106.27 289.77,60.92 C291.31,60.59 291.91,60.26 292.34,60.41 C293.88,60.94 295.42,61.53 296.86,62.29 C344.88,87.62 375.9,125.94 388.72,178.42 C391.69,192.49 395.08,219.72 390.06,260.6z "/></g><g id="_R_G_L_5_G_L_3_G" transform=" translate(960, 662.5) translate(0, 0)"><path id="_R_G_L_5_G_L_3_G_D_0_P_0" stroke="#ff0000" stroke-linecap="round" stroke-linejoin="round" fill="none" stroke-width="21" stroke-opacity="1" d=" M-91.5 -220 C-91.5,-220 -146,-75 -379,-57.5 "/><path id="_R_G_L_5_G_L_3_G_D_1_P_0" stroke="#ff0000" stroke-linecap="round" stroke-linejoin="round" fill="none" stroke-width="21" stroke-opacity="1" d=" M-93 -223 C-93,-223 -112.5,-123 55.5,-73 "/></g><g id="_R_G_L_5_G_L_2_G" transform=" translate(793.357, 658.665) translate(-206.501, -263.68)"><path id="_R_G_L_5_G_L_2_G_D_0_P_0" stroke="#000000" stroke-linecap="round" stroke-linejoin="round" fill="none" stroke-width="20" stroke-opacity="1" d=" M277.86 389.31 C277.86,389.31 262.81,421.32 220.83,422.37 C178.85,423.41 168.95,388.21 169.02,387.09 "/></g><g id="_R_G_L_5_G_L_1_G" transform=" translate(725.577, 675.524)"><path id="_R_G_L_5_G_L_1_G_D_0_P_0" fill="#000000" fill-opacity="1" fill-rule="nonzero" d=" M40.61 20.43 C40.61,31.58 31.58,40.61 20.43,40.61 C9.28,40.61 0.25,31.58 0.25,20.43 C0.25,9.29 9.28,0.25 20.43,0.25 C31.58,0.25 40.61,9.29 40.61,20.43z "/></g><g id="_R_G_L_5_G_L_0_G" transform=" translate(879.015, 675.524)"><path id="_R_G_L_5_G_L_0_G_D_0_P_0" fill="#000000" fill-opacity="1" fill-rule="nonzero" d=" M194.05 20.43 C194.05,31.58 185.01,40.61 173.87,40.61 C162.72,40.61 153.69,31.58 153.69,20.43 C153.69,9.29 162.72,0.25 173.87,0.25 C185.01,0.25 194.05,9.29 194.05,20.43z "/></g></g><g id="_R_G_L_4_G_N_2_T_0"><g id="_R_G_L_4_G" transform=" translate(-60.286, 65.765) translate(-960, -662.5)"><g id="_R_G_L_4_G_L_1_G" transform=" translate(1063.497, 678.011) translate(-59.565, -72.395)"><path id="_R_G_L_4_G_L_1_G_D_0_P_0" fill="#000000" fill-opacity="1" fill-rule="nonzero" d=" M118.88 144.54 C118.88,144.54 0.25,144.54 0.25,144.54 C0.25,144.54 0.25,0.25 0.25,0.25 C0.25,0.25 118.88,0.25 118.88,0.25 C118.88,0.25 118.88,144.54 118.88,144.54z "/></g><g id="_R_G_L_4_G_L_0_G" transform=" translate(1185.927, 713.147) translate(-165.64, -116.411)"><path id="_R_G_L_4_G_L_0_G_D_0_P_0" fill="#000000" fill-opacity="1" fill-rule="nonzero" d=" M320.47 108.84 C317.42,107.6 314.42,106.16 311.29,105.18 C292.6,99.32 276.76,89.28 262.86,75.3 C249.99,62.36 234.22,53.3 217.19,46.52 C183.19,32.98 149.25,19.3 115.28,5.69 C101.7,0.25 87.72,8.12 85.18,22.61 C84.91,24.14 84.56,25.65 84.12,27.81 C74.17,23.14 64.53,20.58 54.75,26.1 C44.84,31.68 40.99,40.73 41.32,52.2 C28.41,50.52 18.09,54.04 12.04,65.47 C6.01,76.89 9.15,87.38 17.03,96.64 C16.4,97.51 16.14,97.99 15.76,98.37 C0.25,114.08 4.45,134.49 24.94,142.75 C44.46,150.61 64,158.41 83.53,166.24 C87.38,167.79 91.24,169.34 95.47,171.03 C89.19,175.53 83.09,178.98 78.14,183.64 C67.56,193.6 64.96,209.62 71.4,220.26 C75.01,226.21 79.25,228.43 86.1,227.13 C92.01,226.01 97.83,224.33 103.66,222.76 C118.27,218.83 132.76,216.95 148.05,220.06 C175.46,225.63 202.05,225.04 224.35,204.42 C227.07,201.9 231.79,204.44 233.36,207.91 C234.57,210.58 236.72,213.62 239.23,214.76 C249.06,219.21 259.18,223 269.21,227 C277.66,230.36 279.44,229.6 282.84,221.13 C296.26,187.68 309.67,154.23 323.08,120.77 C323.49,119.75 323.9,118.74 324.27,117.7 C325.74,113.58 324.65,110.54 320.47,108.84z "/></g></g></g><g id="_R_G_L_3_G_N_2_T_0"><g id="_R_G_L_3_G" transform=" translate(43.211, 81.275) translate(-69.922, -82.751)"><path id="_R_G_L_3_G_D_0_P_0" stroke="#000000" stroke-linecap="round" stroke-linejoin="round" fill="none" stroke-width="15" stroke-opacity="1" d=" M129.24 154.9 C129.24,154.9 10.61,154.9 10.61,154.9 C10.61,154.9 10.61,10.61 10.61,10.61 C10.61,10.61 129.24,10.61 129.24,10.61 C129.24,10.61 129.24,154.9 129.24,154.9z "/></g></g><g id="_R_G_L_2_G_N_2_T_0"><g id="_R_G_L_2_G"><path id="_R_G_L_2_G_D_0_P_0" fill="#000000" fill-opacity="1" fill-rule="nonzero" d=" M320.47 108.84 C317.42,107.6 314.42,106.16 311.29,105.18 C292.6,99.32 276.76,89.28 262.86,75.3 C249.99,62.36 234.22,53.3 217.19,46.52 C183.19,32.98 149.25,19.3 115.28,5.69 C101.7,0.25 87.72,8.12 85.18,22.61 C84.91,24.14 84.56,25.65 84.12,27.81 C74.17,23.14 64.53,20.58 54.75,26.1 C44.84,31.68 40.99,40.73 41.32,52.2 C28.41,50.52 18.09,54.04 12.04,65.47 C6.01,76.89 9.15,87.38 17.03,96.64 C16.4,97.51 16.14,97.99 15.76,98.37 C0.25,114.08 4.45,134.49 24.94,142.75 C44.46,150.61 64,158.41 83.53,166.24 C87.38,167.79 91.24,169.34 95.47,171.03 C89.19,175.53 83.09,178.98 78.14,183.64 C67.56,193.6 64.96,209.62 71.4,220.26 C75.01,226.21 79.25,228.43 86.1,227.13 C92.01,226.01 97.83,224.33 103.66,222.76 C118.27,218.83 132.76,216.95 148.05,220.06 C175.46,225.63 202.05,225.04 224.35,204.42 C227.07,201.9 231.79,204.44 233.36,207.91 C234.57,210.58 236.72,213.62 239.23,214.76 C249.06,219.21 259.18,223 269.21,227 C277.66,230.36 279.44,229.6 282.84,221.13 C296.26,187.68 309.67,154.23 323.08,120.77 C323.49,119.75 323.9,118.74 324.27,117.7 C325.74,113.58 324.65,110.54 320.47,108.84z "/></g></g><g id="_R_G_L_1_G"><path id="_R_G_L_1_G_D_0_P_0" fill="#000000" fill-opacity="1" fill-rule="nonzero" d=" M95.47 171.03 C91.24,169.34 87.38,167.79 83.53,166.24 C64,158.41 44.45,150.61 24.94,142.75 C4.45,134.49 0.25,114.08 15.76,98.37 C16.13,97.99 16.4,97.51 17.03,96.64 C9.15,87.38 6.01,76.89 12.04,65.47 C18.09,54.04 28.4,50.52 41.31,52.2 C40.99,40.73 44.84,31.68 54.75,26.1 C64.53,20.58 74.17,23.14 84.12,27.81 C84.56,25.65 84.91,24.14 85.18,22.61 C87.72,8.12 101.7,0.25 115.28,5.69 C149.25,19.3 183.19,32.98 217.19,46.52 C234.22,53.3 249.99,62.36 262.86,75.3 C276.76,89.28 292.6,99.32 311.29,105.18 C314.42,106.16 317.42,107.6 320.47,108.84 C324.65,110.54 325.74,113.58 324.27,117.7 C323.9,118.74 323.49,119.75 323.08,120.77 C309.67,154.23 296.26,187.68 282.84,221.13 C279.43,229.6 277.66,230.36 269.21,227 C259.18,223 249.05,219.21 239.23,214.76 C236.71,213.62 234.57,210.58 233.36,207.91 C231.79,204.44 227.07,201.9 224.35,204.41 C202.04,225.03 175.46,225.63 148.05,220.06 C132.76,216.95 118.27,218.83 103.66,222.76 C97.83,224.33 92.01,226.01 86.1,227.13 C79.25,228.43 75.01,226.21 71.4,220.26 C64.95,209.62 67.56,193.6 78.14,183.64 C83.09,178.98 89.19,175.53 95.47,171.03z  M166.35 39.92 C166.35,39.92 166.35,39.91 166.36,39.9 C147.67,32.41 129,24.9 110.3,17.45 C105.27,15.45 100.52,17.65 98.35,22.78 C96.12,28.02 98.08,33.4 103.21,35.49 C114.9,40.26 126.64,44.9 138.36,49.6 C139.72,50.14 141.1,50.64 142.42,51.27 C145.93,52.92 147.36,55.77 145.99,59.36 C144.61,62.95 141.6,64.1 137.91,63.09 C136.33,62.66 134.82,61.97 133.29,61.36 C113.07,53.26 92.88,45.12 72.64,37.08 C65.08,34.08 58.16,36.83 55.28,43.71 C52.41,50.57 55.34,57.42 62.66,60.85 C64.48,61.7 66.36,62.42 68.23,63.17 C85.21,69.98 102.2,76.78 119.18,83.6 C125.27,86.05 127.24,89.05 125.53,93.11 C123.83,97.13 120.46,97.8 114.23,95.34 C113.04,94.87 111.85,94.39 110.66,93.91 C88.07,84.86 65.48,75.8 42.89,66.75 C41.54,66.2 40.2,65.58 38.8,65.16 C32.34,63.21 25.9,65.98 23.12,71.86 C20.22,77.99 22.28,84.95 28.23,88.55 C30.09,89.68 32.18,90.45 34.22,91.27 C57.31,100.54 80.41,109.8 103.51,119.06 C104.86,119.61 106.25,120.1 107.56,120.73 C111.01,122.39 112.61,125.07 111.19,128.78 C109.79,132.43 106.88,133.57 103.17,132.42 C101.43,131.88 99.74,131.15 98.04,130.47 C78,122.45 57.98,114.36 37.9,106.41 C31.33,103.81 24.85,105.84 21.44,111.18 C18.18,116.29 18.75,123.14 23.28,127.26 C25.23,129.04 27.86,130.24 30.37,131.25 C64.66,145.03 98.97,158.77 133.33,172.4 C139.82,174.98 144.39,179.33 147.56,185.4 C149.63,189.35 149.55,193.06 145.38,195.33 C141.37,197.51 138.68,195.26 136.28,191.85 C134.36,189.1 132.09,186.05 129.23,184.59 C116.37,178.03 95.49,182.66 86.08,193.73 C82.25,198.24 80.28,203.45 80.91,209.43 C81.29,213.05 82.8,215.26 87.08,213.92 C90.92,212.73 94.89,211.97 98.75,210.84 C116.94,205.5 135.2,203.27 153.93,208.25 C158.65,209.51 163.71,209.75 168.62,209.89 C187.94,210.43 205.79,207.08 219.17,191.16 C220.55,189.51 224.34,189.39 226.99,189.45 C229.05,189.5 231.17,190.74 233.09,191.78 C237.11,193.93 239.07,192.8 240.74,188.55 C250.02,164.87 259.62,141.32 269.03,117.7 C270.92,112.97 274.46,107.72 273.62,103.42 C272.84,99.48 267.14,96.54 263.68,93.08 C246.46,75.87 226.56,63.01 203.57,54.75 C191.01,50.24 178.75,44.89 166.35,39.92z  M270.89 213.83 C271.9,213.05 272.12,212.97 272.18,212.83 C284.42,182.5 296.64,152.15 308.91,121.83 C310,119.14 309.02,117.79 306.52,116.83 C301.57,114.94 296.54,113.18 291.79,110.85 C287.31,108.65 285.49,110.04 283.78,114.41 C273.89,139.59 263.74,164.66 253.67,189.77 C252.18,193.51 250.43,197.17 249.36,201.02 C248.99,202.37 249.85,205.15 250.9,205.63 C257.52,208.66 264.35,211.21 270.89,213.83z "/></g><g id="_R_G_L_0_G_N_2_T_0"><g id="_R_G_L_0_G" transform=" translate(-141.286, 65.765) translate(0, 0)"><path id="_R_G_L_0_G_D_0_P_0" stroke="#ff0000" stroke-linecap="round" stroke-linejoin="round" fill="none" stroke-width="16" stroke-opacity="1" d=" M423.5 35 C423.5,35 381.25,142.25 381.25,142.25 C381.25,142.25 417.25,157 417.25,157 C417.25,157 459.25,50.5 459.25,50.5 C459.25,50.5 423.5,35 423.5,35z "/><path id="_R_G_L_0_G_D_1_P_0" stroke="#ff0000" stroke-linecap="round" stroke-linejoin="round" fill="none" stroke-width="16" stroke-opacity="1" d=" M387.5 139 C387.5,139 370.25,126.5 365.25,131.75 C360.25,137 348,145.5 336,149 C324,152.5 296.75,149.75 286.75,147.5 C276.75,145.25 259,147 250.25,149.25 C241.5,151.5 229,156.25 229,156.25 C229,156.25 216.5,159.25 215.75,146 C215,132.75 226.5,109.75 253.25,108.75 C280,107.75 287.25,132.5 287.25,132 "/><path id="_R_G_L_0_G_D_2_P_0" stroke="#ff0000" stroke-linecap="round" stroke-linejoin="round" fill="none" stroke-width="16" stroke-opacity="1" d=" M435.5 55.5 C435.5,55.5 420.74,31.19 403.5,17 C395,10 384,-2.25 364,-10 C344,-17.75 256,-53.25 256,-53.25 C256,-53.25 237.75,-60 233,-47.5 C228.25,-35 231.5,-30 239.5,-26 C249.01,-21.25 289,-5.5 289,-5.5 C289,-5.5 217.25,-34.5 217.25,-34.5 C217.25,-34.5 197.25,-43 190.5,-24 C183.75,-5 200.25,0.75 200,1.75 C199.75,2.75 274.25,29.25 273.5,29.25 C272.75,29.25 184.5,-5.25 183.75,-5.25 C183,-5.25 164.25,-13.25 157.75,5.75 C151.25,24.75 178,34 178,34 C178,34 261.25,67 261.25,67 C261.25,67 178.25,33.75 178.25,33.75 C178.25,33.75 160.25,29.5 155.25,49 C150.57,67.24 175,73.25 175,73.25 C175,73.25 254.75,105 254.75,105 C254.75,105 289.25,110.5 291.5,137.5 "/></g></g></g><g id="time_group"/></svg>