<svg xmlns="http://www.w3.org/2000/svg" xmlns:xlink="http://www.w3.org/1999/xlink" preserveAspectRatio="xMidYMid meet" width="1920" height="1080" viewBox="0 0 1920 1080" style="width:100%;height:100%"><defs><animateTransform repeatCount="indefinite" dur="12.012012s" begin="0s" xlink:href="#_R_G_L_9_G" fill="freeze" attributeName="transform" from="0 0" to="5 5" type="scale" additive="sum" keyTimes="0;0.0972222;0.125;1" values="0 0;0 0;5 5;5 5" keySplines="0.167 0.167 0.667 1;0.167 0.167 0.667 1;0 0 0 0" calcMode="spline"/><animateTransform repeatCount="indefinite" dur="12.012012s" begin="0s" xlink:href="#_R_G_L_9_G" fill="freeze" attributeName="transform" from="-9.653 -9.653" to="-9.653 -9.653" type="translate" additive="sum" keyTimes="0;1" values="-9.653 -9.653;-9.653 -9.653" keySplines="0 0 1 1" calcMode="spline"/><animateTransform repeatCount="indefinite" dur="12.012012s" begin="0s" xlink:href="#_R_G_L_8_G" fill="freeze" attributeName="transform" from="0 0" to="5 5" type="scale" additive="sum" keyTimes="0;0.2361111;0.2638889;1" values="0 0;0 0;5 5;5 5" keySplines="0.167 0.167 0.667 1;0.167 0.167 0.667 1;0 0 0 0" calcMode="spline"/><animateTransform repeatCount="indefinite" dur="12.012012s" begin="0s" xlink:href="#_R_G_L_8_G" fill="freeze" attributeName="transform" from="-3.864 -13.576" to="-3.864 -13.576" type="translate" additive="sum" keyTimes="0;1" values="-3.864 -13.576;-3.864 -13.576" keySplines="0 0 1 1" calcMode="spline"/><animateTransform repeatCount="indefinite" dur="12.012012s" begin="0s" xlink:href="#_R_G_L_7_G" fill="freeze" attributeName="transform" from="0 0" to="5 5" type="scale" additive="sum" keyTimes="0;0.2256945;0.2534722;1" values="0 0;0 0;5 5;5 5" keySplines="0.167 0.167 0.667 1;0.167 0.167 0.667 1;0 0 0 0" calcMode="spline"/><animateTransform repeatCount="indefinite" dur="12.012012s" begin="0s" xlink:href="#_R_G_L_7_G" fill="freeze" attributeName="transform" from="-25.109 -18.221" to="-25.109 -18.221" type="translate" additive="sum" keyTimes="0;1" values="-25.109 -18.221;-25.109 -18.221" keySplines="0 0 1 1" calcMode="spline"/><animateTransform repeatCount="indefinite" dur="12.012012s" begin="0s" xlink:href="#_R_G_L_6_G" fill="freeze" attributeName="transform" from="0 0" to="5 5" type="scale" additive="sum" keyTimes="0;0.2152778;0.2430556;1" values="0 0;0 0;5 5;5 5" keySplines="0.167 0.167 0.667 1;0.167 0.167 0.667 1;0 0 0 0" calcMode="spline"/><animateTransform repeatCount="indefinite" dur="12.012012s" begin="0s" xlink:href="#_R_G_L_6_G" fill="freeze" attributeName="transform" from="-18.827 -11.435" to="-18.827 -11.435" type="translate" additive="sum" keyTimes="0;1" values="-18.827 -11.435;-18.827 -11.435" keySplines="0 0 1 1" calcMode="spline"/><animateTransform repeatCount="indefinite" dur="12.012012s" begin="0s" xlink:href="#_R_G_L_5_G" fill="freeze" attributeName="transform" from="0 0" to="5 5" type="scale" additive="sum" keyTimes="0;0.2048611;0.2326389;1" values="0 0;0 0;5 5;5 5" keySplines="0.167 0.167 0.667 1;0.167 0.167 0.667 1;0 0 0 0" calcMode="spline"/><animateTransform repeatCount="indefinite" dur="12.012012s" begin="0s" xlink:href="#_R_G_L_5_G" fill="freeze" attributeName="transform" from="-2.759 -2.759" to="-2.759 -2.759" type="translate" additive="sum" keyTimes="0;1" values="-2.759 -2.759;-2.759 -2.759" keySplines="0 0 1 1" calcMode="spline"/><animateTransform repeatCount="indefinite" dur="12.012012s" begin="0s" xlink:href="#_R_G_L_4_G" fill="freeze" attributeName="transform" from="0 0" to="5 5" type="scale" additive="sum" keyTimes="0;0.1944445;0.2222222;1" values="0 0;0 0;5 5;5 5" keySplines="0.167 0.167 0.667 1;0.167 0.167 0.667 1;0 0 0 0" calcMode="spline"/><animateTransform repeatCount="indefinite" dur="12.012012s" begin="0s" xlink:href="#_R_G_L_4_G" fill="freeze" attributeName="transform" from="-36.552 -12.327" to="-36.552 -12.327" type="translate" additive="sum" keyTimes="0;1" values="-36.552 -12.327;-36.552 -12.327" keySplines="0 0 1 1" calcMode="spline"/><animateTransform repeatCount="indefinite" dur="12.012012s" begin="0s" xlink:href="#_R_G_L_3_G" fill="freeze" attributeName="transform" from="0 0" to="5 5" type="scale" additive="sum" keyTimes="0;0.1840278;0.2118056;1" values="0 0;0 0;5 5;5 5" keySplines="0.167 0.167 0.667 1;0.167 0.167 0.667 1;0 0 0 0" calcMode="spline"/><animateTransform repeatCount="indefinite" dur="12.012012s" begin="0s" xlink:href="#_R_G_L_3_G" fill="freeze" attributeName="transform" from="-35.048 -3.662" to="-35.048 -3.662" type="translate" additive="sum" keyTimes="0;1" values="-35.048 -3.662;-35.048 -3.662" keySplines="0 0 1 1" calcMode="spline"/><animateTransform repeatCount="indefinite" dur="12.012012s" begin="0s" xlink:href="#_R_G_L_2_G" fill="freeze" attributeName="transform" from="0 0" to="5 5" type="scale" additive="sum" keyTimes="0;0.1736111;0.2013889;1" values="0 0;0 0;5 5;5 5" keySplines="0.167 0.167 0.667 1;0.167 0.167 0.667 1;0 0 0 0" calcMode="spline"/><animateTransform repeatCount="indefinite" dur="12.012012s" begin="0s" xlink:href="#_R_G_L_2_G" fill="freeze" attributeName="transform" from="-9.982 -8.474" to="-9.982 -8.474" type="translate" additive="sum" keyTimes="0;1" values="-9.982 -8.474;-9.982 -8.474" keySplines="0 0 1 1" calcMode="spline"/><animateTransform repeatCount="indefinite" dur="12.012012s" begin="0s" xlink:href="#_R_G_L_1_G" fill="freeze" attributeName="transform" from="0 0" to="5 5" type="scale" additive="sum" keyTimes="0;0.1631945;0.1909722;1" values="0 0;0 0;5 5;5 5" keySplines="0.167 0.167 0.667 1;0.167 0.167 0.667 1;0 0 0 0" calcMode="spline"/><animateTransform repeatCount="indefinite" dur="12.012012s" begin="0s" xlink:href="#_R_G_L_1_G" fill="freeze" attributeName="transform" from="-12.474 -17.801" to="-12.474 -17.801" type="translate" additive="sum" keyTimes="0;1" values="-12.474 -17.801;-12.474 -17.801" keySplines="0 0 1 1" calcMode="spline"/><animateTransform repeatCount="indefinite" dur="12.012012s" begin="0s" xlink:href="#_R_G_L_0_G" fill="freeze" attributeName="transform" from="0 0" to="5 5" type="scale" additive="sum" keyTimes="0;0.1527778;0.1805556;1" values="0 0;0 0;5 5;5 5" keySplines="0.167 0.167 0.667 1;0.167 0.167 0.667 1;0 0 0 0" calcMode="spline"/><animateTransform repeatCount="indefinite" dur="12.012012s" begin="0s" xlink:href="#_R_G_L_0_G" fill="freeze" attributeName="transform" from="-28.586 -9.633" to="-28.586 -9.633" type="translate" additive="sum" keyTimes="0;1" values="-28.586 -9.633;-28.586 -9.633" keySplines="0 0 1 1" calcMode="spline"/><animate attributeType="XML" attributeName="opacity" dur="12s" from="0" to="1" xlink:href="#time_group"/></defs><g id="_R_G"><g id="_R_G_L_11_G" transform=" translate(960, 540) scale(5, 5) translate(-67.363, -38.283)"><path id="_R_G_L_11_G_D_0_P_0" stroke="#000000" stroke-linecap="round" stroke-linejoin="round" fill="none" stroke-width="5" stroke-opacity="1" d=" M12.5 38.37 C12.5,38.37 35.78,12.5 67.93,12.5 C100.08,12.5 122.23,38.37 122.23,38.37 C122.23,38.37 97.82,64.07 67.93,64.07 C38.05,64.07 12.5,38.37 12.5,38.37z "/></g><g id="_R_G_L_10_G" transform=" translate(960, 540) scale(4.77, 4.77) translate(-38.608, -38.283)"><path id="_R_G_L_10_G_D_0_P_0" stroke="#000000" stroke-linecap="round" stroke-linejoin="round" fill="none" stroke-width="5" stroke-opacity="1" d=" M64.72 38.28 C64.72,52.52 53.03,64.07 38.61,64.07 C24.19,64.07 12.5,52.52 12.5,38.28 C12.5,24.04 24.19,12.5 38.61,12.5 C53.03,12.5 64.72,24.04 64.72,38.28z "/></g><g id="_R_G_L_9_G" transform=" translate(960, 540)"><path id="_R_G_L_9_G_D_0_P_0" fill="#000000" fill-opacity="1" fill-rule="nonzero" d=" M19.06 9.65 C19.06,14.85 14.85,19.06 9.65,19.06 C4.46,19.06 0.25,14.85 0.25,9.65 C0.25,4.46 4.46,0.25 9.65,0.25 C14.85,0.25 19.06,4.46 19.06,9.65z "/></g><g id="_R_G_L_8_G" transform=" translate(881.044, 623.43)"><path id="_R_G_L_8_G_D_0_P_0" fill="#000000" fill-opacity="1" fill-rule="nonzero" d=" M6.37 13.58 C6.37,14.96 5.25,16.09 3.86,16.09 C2.48,16.09 1.35,14.96 1.35,13.58 C1.35,12.19 2.48,11.07 3.86,11.07 C5.25,11.07 6.37,12.19 6.37,13.58z "/></g><g id="_R_G_L_7_G" transform=" translate(987.269, 646.656)"><path id="_R_G_L_7_G_D_0_P_0" fill="#000000" fill-opacity="1" fill-rule="nonzero" d=" M27.62 18.22 C27.62,19.61 26.5,20.73 25.11,20.73 C23.72,20.73 22.6,19.61 22.6,18.22 C22.6,16.84 23.72,15.71 25.11,15.71 C26.5,15.71 27.62,16.84 27.62,18.22z "/></g><g id="_R_G_L_6_G" transform=" translate(955.858, 612.722)"><path id="_R_G_L_6_G_D_0_P_0" fill="#000000" fill-opacity="1" fill-rule="nonzero" d=" M21.34 11.44 C21.34,12.82 20.21,13.94 18.83,13.94 C17.44,13.94 16.32,12.82 16.32,11.44 C16.32,10.05 17.44,8.93 18.83,8.93 C20.21,8.93 21.34,10.05 21.34,11.44z "/></g><g id="_R_G_L_5_G" transform=" translate(875.519, 569.344)"><path id="_R_G_L_5_G_D_0_P_0" fill="#000000" fill-opacity="1" fill-rule="nonzero" d=" M5.27 2.76 C5.27,4.14 4.14,5.27 2.76,5.27 C1.37,5.27 0.25,4.14 0.25,2.76 C0.25,1.37 1.37,0.25 2.76,0.25 C4.14,0.25 5.27,1.37 5.27,2.76z "/></g><g id="_R_G_L_4_G" transform=" translate(1044.481, 617.185)"><path id="_R_G_L_4_G_D_0_P_0" fill="#000000" fill-opacity="1" fill-rule="nonzero" d=" M39.06 12.33 C39.06,13.71 37.94,14.84 36.55,14.84 C35.17,14.84 34.04,13.71 34.04,12.33 C34.04,10.94 35.17,9.82 36.55,9.82 C37.94,9.82 39.06,10.94 39.06,12.33z "/></g><g id="_R_G_L_3_G" transform=" translate(1036.963, 573.861)"><path id="_R_G_L_3_G_D_0_P_0" fill="#000000" fill-opacity="1" fill-rule="nonzero" d=" M37.56 3.66 C37.56,5.05 36.43,6.17 35.05,6.17 C33.66,6.17 32.54,5.05 32.54,3.66 C32.54,2.28 33.66,1.15 35.05,1.15 C36.43,1.15 37.56,2.28 37.56,3.66z "/></g><g id="_R_G_L_2_G" transform=" translate(911.632, 597.921)"><path id="_R_G_L_2_G_D_0_P_0" fill="#000000" fill-opacity="1" fill-rule="nonzero" d=" M12.49 8.47 C12.49,9.86 11.37,10.98 9.98,10.98 C8.6,10.98 7.47,9.86 7.47,8.47 C7.47,7.09 8.6,5.97 9.98,5.97 C11.37,5.97 12.49,7.09 12.49,8.47z "/></g><g id="_R_G_L_1_G" transform=" translate(924.092, 644.555)"><path id="_R_G_L_1_G_D_0_P_0" fill="#000000" fill-opacity="1" fill-rule="nonzero" d=" M14.98 17.8 C14.98,19.19 13.86,20.31 12.47,20.31 C11.09,20.31 9.96,19.19 9.96,17.8 C9.96,16.42 11.09,15.29 12.47,15.29 C13.86,15.29 14.98,16.42 14.98,17.8z "/></g><g id="_R_G_L_0_G" transform=" translate(1004.652, 603.715)"><path id="_R_G_L_0_G_D_0_P_0" fill="#000000" fill-opacity="1" fill-rule="nonzero" d=" M31.1 9.63 C31.1,11.02 29.97,12.14 28.59,12.14 C27.2,12.14 26.08,11.02 26.08,9.63 C26.08,8.25 27.2,7.12 28.59,7.12 C29.97,7.12 31.1,8.25 31.1,9.63z "/></g></g><g id="time_group"/></svg>