<svg xmlns="http://www.w3.org/2000/svg" xmlns:xlink="http://www.w3.org/1999/xlink" preserveAspectRatio="xMidYMid meet" width="1920" height="1080" viewBox="0 0 1920 1080" style="width:100%;height:100%"><defs><animateTransform repeatCount="indefinite" dur="10.01001s" begin="0s" xlink:href="#_R_G_L_0_G_L_3_G" fill="freeze" attributeName="transform" from="0 0" to="5 5" type="scale" additive="sum" keyTimes="0;0.0041667;0.0375;1" values="0 0;0 0;5 5;5 5" keySplines="0.167 0.167 0.204 1;0.167 0.167 0.204 1;0 0 0 0" calcMode="spline"/><animateTransform repeatCount="indefinite" dur="10.01001s" begin="0s" xlink:href="#_R_G_L_0_G_L_3_G" fill="freeze" attributeName="transform" from="-12.058 -8.125" to="-12.058 -8.125" type="translate" additive="sum" keyTimes="0;1" values="-12.058 -8.125;-12.058 -8.125" keySplines="0 0 1 1" calcMode="spline"/><animateTransform repeatCount="indefinite" dur="10.01001s" begin="0s" xlink:href="#_R_G_L_0_G_L_2_G" fill="freeze" attributeName="transform" from="0" to="19" type="rotate" additive="sum" keyTimes="0;0.1041667;0.2625;0.4291667;0.6041667;0.7916667;0.9375;1" values="0;0;37;0;37;19;19;19" keySplines="0.615 0 0.667 1;0.615 0 0.667 1;0.333 0 0.667 1;0.333 0 0.667 1;0.167 0 0.833 1;0.167 0 0.66 1;0 0 0 0" calcMode="spline"/><animateTransform repeatCount="indefinite" dur="10.01001s" begin="0s" xlink:href="#_R_G_L_0_G_L_2_G" fill="freeze" attributeName="transform" from="0 0" to="5 5" type="scale" additive="sum" keyTimes="0;0.0333333;0.0833333;1" values="0 0;0 0;5 5;5 5" keySplines="0.167 0.167 0.011 1;0.167 0.167 0.011 1;0 0 0 0" calcMode="spline"/><animateTransform repeatCount="indefinite" dur="10.01001s" begin="0s" xlink:href="#_R_G_L_0_G_L_2_G" fill="freeze" attributeName="transform" from="-24.088 -12.068" to="-24.088 -12.068" type="translate" additive="sum" keyTimes="0;1" values="-24.088 -12.068;-24.088 -12.068" keySplines="0 0 1 1" calcMode="spline"/><animateMotion repeatCount="indefinite" dur="10.01001s" begin="0s" xlink:href="#_R_G_L_0_G_L_1_G" fill="freeze" keyTimes="0;0.1041667;0.2625;0.4291667;0.6041667;0.7916667;0.9375;1" path="M10.33 1.86 C10.33,1.86 10.33,1.86 10.33,1.86 C9.71,2.02 6.58,2.81 6.58,2.79 C6.58,2.77 10.33,1.76 10.33,1.76 C10.33,1.76 6.63,2.84 6.58,2.79 C6.52,2.75 9.66,1.65 10,1.5 C10.35,1.34 8.87,1.8 8.65,1.86 C8.65,1.86 8.65,1.86 8.65,1.86 " keyPoints="0;0;0.23;0.46;0.69;0.91;1;1" keySplines="0.333 0 0.667 1;0.333 0 0.667 1;0.333 0 0.667 1;0.333 0 0.667 1;0.167 0 0.667 1;0.167 0 0.667 1;0 0 0 0" calcMode="spline"/><animateTransform repeatCount="indefinite" dur="10.01001s" begin="0s" xlink:href="#_R_G_L_0_G_L_1_G" fill="freeze" attributeName="transform" from="10" to="-19" type="rotate" additive="sum" keyTimes="0;0.1041667;0.2625;0.4291667;0.6041667;0.7916667;0.9375;1" values="10;10;-37;10;-37;-9;-19;-19" keySplines="0.615 0 0.667 1;0.615 0 0.667 1;0.333 0 0.667 1;0.333 0 0.667 1;0.167 0 0.833 1;0.163 0 0.621 1;0 0 0 0" calcMode="spline"/><animateTransform repeatCount="indefinite" dur="10.01001s" begin="0s" xlink:href="#_R_G_L_0_G_L_1_G" fill="freeze" attributeName="transform" from="0 0" to="1 1" type="scale" additive="sum" keyTimes="0;0.0125;0.0625;1" values="0 0;0 0;1 1;1 1" keySplines="0.167 0.167 0.011 1;0.167 0.167 0.011 1;0 0 0 0" calcMode="spline"/><animateTransform repeatCount="indefinite" dur="10.01001s" begin="0s" xlink:href="#_R_G_L_0_G_L_1_G" fill="freeze" attributeName="transform" from="-8.415 -12.217" to="-8.415 -12.217" type="translate" additive="sum" keyTimes="0;1" values="-8.415 -12.217;-8.415 -12.217" keySplines="0 0 1 1" calcMode="spline"/><animateTransform repeatCount="indefinite" dur="10.01001s" begin="0s" xlink:href="#_R_G_L_0_G_L_1_G_N_3_T_0" fill="freeze" attributeName="transform" from="0" to="19" type="rotate" additive="sum" keyTimes="0;0.1041667;0.2625;0.4291667;0.6041667;0.7916667;0.9375;1" values="0;0;37;0;37;19;19;19" keySplines="0.615 0 0.667 1;0.615 0 0.667 1;0.333 0 0.667 1;0.333 0 0.667 1;0.167 0 0.833 1;0.167 0 0.66 1;0 0 0 0" calcMode="spline"/><animateTransform repeatCount="indefinite" dur="10.01001s" begin="0s" xlink:href="#_R_G_L_0_G_L_1_G_N_3_T_0" fill="freeze" attributeName="transform" from="0 0" to="5 5" type="scale" additive="sum" keyTimes="0;0.0333333;0.0833333;1" values="0 0;0 0;5 5;5 5" keySplines="0.167 0.167 0.011 1;0.167 0.167 0.011 1;0 0 0 0" calcMode="spline"/><animateTransform repeatCount="indefinite" dur="10.01001s" begin="0s" xlink:href="#_R_G_L_0_G_L_1_G_N_3_T_0" fill="freeze" attributeName="transform" from="-24.088 -12.068" to="-24.088 -12.068" type="translate" additive="sum" keyTimes="0;1" values="-24.088 -12.068;-24.088 -12.068" keySplines="0 0 1 1" calcMode="spline"/><animateMotion repeatCount="indefinite" dur="10.01001s" begin="0s" xlink:href="#_R_G_L_0_G_L_0_G" fill="freeze" keyTimes="0;0.1041667;0.2625;0.4291667;0.6041667;0.7916667;0.9375;1" path="M32.5 -5.82 C32.5,-5.82 32.5,-5.82 32.5,-5.82 C31.88,-5.65 28.75,-4.81 28.75,-4.79 C28.75,-4.77 32.5,-5.72 32.5,-5.72 C32.5,-5.72 28.8,-4.74 28.75,-4.79 C28.7,-4.83 31.85,-5.85 32.2,-5.99 C32.55,-6.13 31.07,-5.69 30.85,-5.63 C30.85,-5.63 30.85,-5.63 30.85,-5.63 " keyPoints="0;0;0.23;0.46;0.69;0.91;1;1" keySplines="0.333 0 0.667 1;0.333 0 0.667 1;0.333 0 0.667 1;0.333 0 0.667 1;0.167 0 0.667 1;0.167 0 0.667 1;0 0 0 0" calcMode="spline"/><animateTransform repeatCount="indefinite" dur="10.01001s" begin="0s" xlink:href="#_R_G_L_0_G_L_0_G" fill="freeze" attributeName="transform" from="10" to="-19" type="rotate" additive="sum" keyTimes="0;0.1041667;0.2625;0.4291667;0.6041667;0.7916667;0.9375;1" values="10;10;-37;10;-37;-9;-19;-19" keySplines="0.615 0 0.667 1;0.615 0 0.667 1;0.333 0 0.667 1;0.333 0 0.667 1;0.167 0 0.833 1;0.163 0 0.621 1;0 0 0 0" calcMode="spline"/><animateTransform repeatCount="indefinite" dur="10.01001s" begin="0s" xlink:href="#_R_G_L_0_G_L_0_G" fill="freeze" attributeName="transform" from="0 0" to="1 1" type="scale" additive="sum" keyTimes="0;0.0125;0.0625;1" values="0 0;0 0;1 1;1 1" keySplines="0.167 0.167 0.011 1;0.167 0.167 0.011 1;0 0 0 0" calcMode="spline"/><animateTransform repeatCount="indefinite" dur="10.01001s" begin="0s" xlink:href="#_R_G_L_0_G_L_0_G" fill="freeze" attributeName="transform" from="-8.414 -12.01" to="-8.414 -12.01" type="translate" additive="sum" keyTimes="0;1" values="-8.414 -12.01;-8.414 -12.01" keySplines="0 0 1 1" calcMode="spline"/><animateTransform repeatCount="indefinite" dur="10.01001s" begin="0s" xlink:href="#_R_G_L_0_G_L_0_G_N_3_T_0" fill="freeze" attributeName="transform" from="0" to="19" type="rotate" additive="sum" keyTimes="0;0.1041667;0.2625;0.4291667;0.6041667;0.7916667;0.9375;1" values="0;0;37;0;37;19;19;19" keySplines="0.615 0 0.667 1;0.615 0 0.667 1;0.333 0 0.667 1;0.333 0 0.667 1;0.167 0 0.833 1;0.167 0 0.66 1;0 0 0 0" calcMode="spline"/><animateTransform repeatCount="indefinite" dur="10.01001s" begin="0s" xlink:href="#_R_G_L_0_G_L_0_G_N_3_T_0" fill="freeze" attributeName="transform" from="0 0" to="5 5" type="scale" additive="sum" keyTimes="0;0.0333333;0.0833333;1" values="0 0;0 0;5 5;5 5" keySplines="0.167 0.167 0.011 1;0.167 0.167 0.011 1;0 0 0 0" calcMode="spline"/><animateTransform repeatCount="indefinite" dur="10.01001s" begin="0s" xlink:href="#_R_G_L_0_G_L_0_G_N_3_T_0" fill="freeze" attributeName="transform" from="-24.088 -12.068" to="-24.088 -12.068" type="translate" additive="sum" keyTimes="0;1" values="-24.088 -12.068;-24.088 -12.068" keySplines="0 0 1 1" calcMode="spline"/><animate attributeType="XML" attributeName="opacity" dur="10s" from="0" to="1" xlink:href="#time_group"/></defs><g id="_R_G"><g id="_R_G_L_0_G" transform=" translate(960, 540) scale(2, 2) translate(-171.47, -191.43)"><g id="_R_G_L_0_G_L_3_G" transform=" translate(168.162, 257.753)"><path id="_R_G_L_0_G_L_3_G_D_0_P_0" fill="#000000" fill-opacity="1" fill-rule="nonzero" d=" M23.33 16 C23.33,16 0.78,16 0.78,16 C0.59,16 0.42,15.89 0.33,15.72 C0.25,15.55 0.27,15.35 0.39,15.2 C0.39,15.2 11.66,0.5 11.66,0.5 C11.85,0.25 12.27,0.25 12.46,0.5 C12.46,0.5 23.73,15.2 23.73,15.2 C23.85,15.35 23.87,15.55 23.78,15.72 C23.7,15.89 23.52,16 23.33,16z "/></g><g id="_R_G_L_0_G_L_2_G" transform=" translate(168.269, 218.988)"><path id="_R_G_L_0_G_L_2_G_D_0_P_0" fill="#000000" fill-opacity="1" fill-rule="nonzero" d=" M2.57 19.59 C2.57,19.59 46.84,4.14 46.84,4.14 C47.52,3.9 47.88,3.15 47.65,2.47 C47.65,2.47 47.24,1.29 47.24,1.29 C47,0.61 46.25,0.25 45.57,0.49 C45.57,0.49 1.29,15.94 1.29,15.94 C0.61,16.18 0.25,16.93 0.49,17.61 C0.49,17.61 0.9,18.79 0.9,18.79 C1.13,19.47 1.89,19.83 2.57,19.59z "/></g><g id="_R_G_L_0_G_L_1_G_N_3_T_0" transform=" translate(168.269, 218.988)"><g id="_R_G_L_0_G_L_1_G"><path id="_R_G_L_0_G_L_1_G_D_0_P_0" fill="#000000" fill-opacity="1" fill-rule="nonzero" d=" M8.46 0.25 C8.37,0.25 8.29,0.3 8.24,0.38 C8.24,0.38 5.75,4.69 5.75,4.69 C5.7,4.77 5.7,4.87 5.75,4.94 C5.79,5.02 5.87,5.07 5.96,5.07 C5.96,5.07 7.46,5.07 7.46,5.07 C7.46,5.07 7.46,8.93 7.46,8.93 C6.51,9.06 5.57,9.38 4.7,9.9 C1.33,11.95 0.25,16.36 2.3,19.73 C4.34,23.11 8.75,24.19 12.13,22.14 C15.5,20.09 16.58,15.68 14.53,12.31 C13.38,10.42 11.49,9.25 9.46,8.95 C9.46,8.95 9.46,5.07 9.46,5.07 C9.46,5.07 10.95,5.07 10.95,5.07 C11,5.07 11.04,5.05 11.08,5.03 C11.11,5.01 11.14,4.98 11.17,4.94 C11.21,4.87 11.21,4.77 11.17,4.69 C11.17,4.69 8.67,0.38 8.67,0.38 C8.63,0.3 8.55,0.25 8.46,0.25z  M12.82 13.35 C14.3,15.78 13.52,18.95 11.09,20.43 C8.66,21.9 5.48,21.13 4.01,18.7 C2.53,16.27 3.31,13.09 5.74,11.61 C8.17,10.14 11.35,10.92 12.82,13.35z "/></g></g><g id="_R_G_L_0_G_L_0_G_N_3_T_0" transform=" translate(168.269, 218.988)"><g id="_R_G_L_0_G_L_0_G"><path id="_R_G_L_0_G_L_0_G_D_0_P_0" fill="#000000" fill-opacity="1" fill-rule="nonzero" d=" M14.53 11.89 C13.38,10 11.49,8.83 9.45,8.53 C9.45,8.53 9.46,5.2 9.46,5.2 C9.46,5.2 11.27,5.2 11.27,5.2 C11.83,5.2 12.28,4.76 12.28,4.2 C12.28,3.65 11.83,3.2 11.28,3.2 C11.28,3.2 9.46,3.2 9.46,3.2 C9.46,3.2 9.46,1.25 9.46,1.25 C9.46,0.7 9.01,0.25 8.46,0.25 C7.9,0.25 7.46,0.7 7.46,1.25 C7.46,1.25 7.46,3.19 7.46,3.19 C7.46,3.19 5.5,3.18 5.5,3.18 C4.95,3.18 4.5,3.63 4.49,4.18 C4.49,4.53 4.67,4.83 4.93,5.01 C5.09,5.12 5.28,5.18 5.49,5.18 C5.49,5.18 7.46,5.19 7.46,5.19 C7.46,5.19 7.46,8.52 7.46,8.52 C6.51,8.65 5.57,8.96 4.7,9.49 C1.33,11.54 0.25,15.95 2.3,19.32 C4.34,22.69 8.75,23.77 12.13,21.72 C15.5,19.68 16.58,15.27 14.53,11.89z  M11.09 20.01 C8.66,21.49 5.48,20.71 4.01,18.28 C2.53,15.85 3.31,12.67 5.74,11.2 C8.17,9.72 11.35,10.5 12.82,12.93 C14.3,15.36 13.52,18.54 11.09,20.01z "/></g></g></g></g><g id="time_group"/></svg>