<svg xmlns="http://www.w3.org/2000/svg" xmlns:xlink="http://www.w3.org/1999/xlink" preserveAspectRatio="xMidYMid meet" width="1920" height="1080" viewBox="0 0 1920 1080" style="width:100%;height:100%"><defs><animate repeatCount="indefinite" dur="54.0540541s" begin="0s" xlink:href="#_R_G_L_2_G" fill="freeze" attributeName="opacity" from="0" to="1" keyTimes="0;0.0223765;1" values="0;1;1" keySplines="0.333 0 0.667 1;0 0 0 0" calcMode="spline"/><animateTransform repeatCount="indefinite" dur="54.0540541s" begin="0s" xlink:href="#_R_G_L_2_G" fill="freeze" attributeName="transform" from="2.31 2.31" to="5 5" type="scale" additive="sum" keyTimes="0;0.0046296;0.0339506;1" values="2.31 2.31;2.31 2.31;5 5;5 5" keySplines="0.005 0.165 0 1;0.005 0.165 0 1;0 0 0 0" calcMode="spline"/><animateTransform repeatCount="indefinite" dur="54.0540541s" begin="0s" xlink:href="#_R_G_L_2_G" fill="freeze" attributeName="transform" from="-414.776 -280.291" to="-414.776 -280.291" type="translate" additive="sum" keyTimes="0;1" values="-414.776 -280.291;-414.776 -280.291" keySplines="0 0 1 1" calcMode="spline"/><animate repeatCount="indefinite" dur="54.0540541s" begin="0s" xlink:href="#_R_G_L_1_G" fill="freeze" attributeName="opacity" from="0" to="1" keyTimes="0;0.0054012;0.0277778;1" values="0;0;1;1" keySplines="0.333 0 0.667 1;0.333 0 0.667 1;0 0 0 0" calcMode="spline"/><animateTransform repeatCount="indefinite" dur="54.0540541s" begin="0s" xlink:href="#_R_G_L_1_G" fill="freeze" attributeName="transform" from="2.31 2.31" to="5 5" type="scale" additive="sum" keyTimes="0;0.0100309;0.0393519;1" values="2.31 2.31;2.31 2.31;5 5;5 5" keySplines="0.005 0.165 0 1;0.005 0.165 0 1;0 0 0 0" calcMode="spline"/><animateTransform repeatCount="indefinite" dur="54.0540541s" begin="0s" xlink:href="#_R_G_L_1_G" fill="freeze" attributeName="transform" from="-414.776 -280.291" to="-414.776 -280.291" type="translate" additive="sum" keyTimes="0;1" values="-414.776 -280.291;-414.776 -280.291" keySplines="0 0 1 1" calcMode="spline"/><animate repeatCount="indefinite" dur="54.0540541s" begin="0s" xlink:href="#_R_G_L_0_G" fill="freeze" attributeName="opacity" from="0" to="1" keyTimes="0;0.0100309;0.0324074;1" values="0;0;1;1" keySplines="0.333 0 0.667 1;0.333 0 0.667 1;0 0 0 0" calcMode="spline"/><animateTransform repeatCount="indefinite" dur="54.0540541s" begin="0s" xlink:href="#_R_G_L_0_G" fill="freeze" attributeName="transform" from="2.31 2.31" to="5 5" type="scale" additive="sum" keyTimes="0;0.0146605;0.0439815;1" values="2.31 2.31;2.31 2.31;5 5;5 5" keySplines="0.005 0.165 0 1;0.005 0.165 0 1;0 0 0 0" calcMode="spline"/><animateTransform repeatCount="indefinite" dur="54.0540541s" begin="0s" xlink:href="#_R_G_L_0_G" fill="freeze" attributeName="transform" from="-414.776 -280.291" to="-414.776 -280.291" type="translate" additive="sum" keyTimes="0;1" values="-414.776 -280.291;-414.776 -280.291" keySplines="0 0 1 1" calcMode="spline"/><animate attributeType="XML" attributeName="opacity" dur="54s" from="0" to="1" xlink:href="#time_group"/></defs><g id="_R_G"><g id="_R_G_L_2_G" transform=" translate(816.392, 649.632)"><path id="_R_G_L_2_G_D_0_P_0" fill="#000000" fill-opacity="1" fill-rule="nonzero" d=" M427.96 276.28 C427.08,276.25 426.19,276.26 425.32,276.26 C424.95,276.27 424.57,276.27 424.2,276.27 C424.2,276.27 421.27,276.27 421.27,276.27 C421.48,275.99 421.66,275.74 421.82,275.52 C422.18,275.04 422.43,274.69 422.71,274.37 C423.39,273.57 424.08,272.77 424.77,271.97 C426.31,270.19 427.9,268.35 429.38,266.47 C429.9,265.81 430.27,264.54 429.98,263.77 C429.73,263.15 428.42,262.7 427.58,262.66 C425.72,262.57 423.82,262.58 421.99,262.6 C420.89,262.61 419.79,262.61 418.69,262.61 C418.69,262.61 417.7,262.62 417.7,262.62 C416.82,262.62 415.83,262.67 415.25,263.25 C414.92,263.58 414.76,264.07 414.78,264.69 C414.82,266.44 416.23,266.66 417.63,266.64 C419.31,266.63 420.7,266.63 421.98,266.66 C422.32,266.66 422.67,266.71 423.12,266.77 C423.29,266.79 423.47,266.81 423.67,266.84 C423.52,267.04 423.38,267.22 423.25,267.38 C422.93,267.8 422.67,268.12 422.41,268.44 C421.74,269.22 421.07,270.01 420.4,270.79 C418.77,272.69 417.08,274.65 415.49,276.64 C415.02,277.22 414.72,278.37 415.01,279.03 C415.3,279.66 416.41,280.2 417.14,280.22 C418.87,280.27 420.62,280.29 422.35,280.29 C423.68,280.29 425.01,280.28 426.32,280.27 C426.32,280.27 428.01,280.26 428.01,280.26 C429.45,280.25 430.24,279.59 430.28,278.35 C430.33,277.04 429.54,276.34 427.96,276.28z "/></g><g id="_R_G_L_1_G" transform=" translate(921.392, 580.632)"><path id="_R_G_L_1_G_D_0_P_0" fill="#000000" fill-opacity="1" fill-rule="nonzero" d=" M427.96 276.28 C427.08,276.25 426.19,276.26 425.32,276.26 C424.95,276.27 424.57,276.27 424.2,276.27 C424.2,276.27 421.27,276.27 421.27,276.27 C421.48,275.99 421.66,275.74 421.82,275.52 C422.18,275.04 422.43,274.69 422.71,274.37 C423.39,273.57 424.08,272.77 424.77,271.97 C426.31,270.19 427.9,268.35 429.38,266.47 C429.9,265.81 430.27,264.54 429.98,263.77 C429.73,263.15 428.42,262.7 427.58,262.66 C425.72,262.57 423.82,262.58 421.99,262.6 C420.89,262.61 419.79,262.61 418.69,262.61 C418.69,262.61 417.7,262.62 417.7,262.62 C416.82,262.62 415.83,262.67 415.25,263.25 C414.92,263.58 414.76,264.07 414.78,264.69 C414.82,266.44 416.23,266.66 417.63,266.64 C419.31,266.63 420.7,266.63 421.98,266.66 C422.32,266.66 422.67,266.71 423.12,266.77 C423.29,266.79 423.47,266.81 423.67,266.84 C423.52,267.04 423.38,267.22 423.25,267.38 C422.93,267.8 422.67,268.12 422.41,268.44 C421.74,269.22 421.07,270.01 420.4,270.79 C418.77,272.69 417.08,274.65 415.49,276.64 C415.02,277.22 414.72,278.37 415.01,279.03 C415.3,279.66 416.41,280.2 417.14,280.22 C418.87,280.27 420.62,280.29 422.35,280.29 C423.68,280.29 425.01,280.28 426.32,280.27 C426.32,280.27 428.01,280.26 428.01,280.26 C429.45,280.25 430.24,279.59 430.28,278.35 C430.33,277.04 429.54,276.34 427.96,276.28z "/></g><g id="_R_G_L_0_G" transform=" translate(1024.392, 511.632)"><path id="_R_G_L_0_G_D_0_P_0" fill="#000000" fill-opacity="1" fill-rule="nonzero" d=" M427.96 276.28 C427.08,276.25 426.19,276.26 425.32,276.26 C424.95,276.27 424.57,276.27 424.2,276.27 C424.2,276.27 421.27,276.27 421.27,276.27 C421.48,275.99 421.66,275.74 421.82,275.52 C422.18,275.04 422.43,274.69 422.71,274.37 C423.39,273.57 424.08,272.77 424.77,271.97 C426.31,270.19 427.9,268.35 429.38,266.47 C429.9,265.81 430.27,264.54 429.98,263.77 C429.73,263.15 428.42,262.7 427.58,262.66 C425.72,262.57 423.82,262.58 421.99,262.6 C420.89,262.61 419.79,262.61 418.69,262.61 C418.69,262.61 417.7,262.62 417.7,262.62 C416.82,262.62 415.83,262.67 415.25,263.25 C414.92,263.58 414.76,264.07 414.78,264.69 C414.82,266.44 416.23,266.66 417.63,266.64 C419.31,266.63 420.7,266.63 421.98,266.66 C422.32,266.66 422.67,266.71 423.12,266.77 C423.29,266.79 423.47,266.81 423.67,266.84 C423.52,267.04 423.38,267.22 423.25,267.38 C422.93,267.8 422.67,268.12 422.41,268.44 C421.74,269.22 421.07,270.01 420.4,270.79 C418.77,272.69 417.08,274.65 415.49,276.64 C415.02,277.22 414.72,278.37 415.01,279.03 C415.3,279.66 416.41,280.2 417.14,280.22 C418.87,280.27 420.62,280.29 422.35,280.29 C423.68,280.29 425.01,280.28 426.32,280.27 C426.32,280.27 428.01,280.26 428.01,280.26 C429.45,280.25 430.24,279.59 430.28,278.35 C430.33,277.04 429.54,276.34 427.96,276.28z "/></g></g><g id="time_group"/></svg>