<?xml version="1.0" encoding="UTF-8"?>
<svg id="Layer_1" data-name="Layer 1" xmlns="http://www.w3.org/2000/svg" xmlns:xlink="http://www.w3.org/1999/xlink" viewBox="0 0 892.14 858.81">
  <defs>
    <style>
      .cls-1, .cls-2, .cls-3 {
        fill: none;
      }

      .cls-4 {
        fill: url(#New_Gradient_Swatch_3);
      }

      .cls-5 {
        fill: url(#New_Gradient_Swatch_1);
      }

      .cls-6 {
        fill: url(#New_Gradient_Swatch_4);
      }

      .cls-2, .cls-3 {
        stroke: #fff;
        stroke-linecap: round;
        stroke-linejoin: round;
        stroke-width: 2px;
      }

      .cls-7 {
        fill: url(#New_Gradient_Swatch_4-2);
      }

      .cls-8 {
        fill: url(#New_Gradient_Swatch_3-5);
      }

      .cls-9 {
        fill: url(#New_Gradient_Swatch_3-2);
      }

      .cls-10 {
        fill: url(#New_Gradient_Swatch_3-6);
      }

      .cls-11 {
        fill: url(#New_Gradient_Swatch_3-7);
      }

      .cls-12 {
        fill: url(#New_Gradient_Swatch_3-8);
      }

      .cls-13 {
        fill: url(#New_Gradient_Swatch_3-3);
      }

      .cls-14 {
        fill: url(#New_Gradient_Swatch_3-4);
      }

      .cls-15 {
        fill: url(#New_Gradient_Swatch_1-5);
      }

      .cls-16 {
        fill: url(#New_Gradient_Swatch_1-2);
      }

      .cls-17 {
        fill: url(#New_Gradient_Swatch_1-3);
      }

      .cls-18 {
        fill: url(#New_Gradient_Swatch_1-6);
      }

      .cls-19 {
        fill: url(#New_Gradient_Swatch_1-4);
      }

      .cls-3 {
        stroke-dasharray: 0 0 5.01 5.01;
      }
    </style>
    <linearGradient id="New_Gradient_Swatch_3" data-name="New Gradient Swatch 3" x1="324.06" y1="850.61" x2="875.84" y2="275.06" gradientUnits="userSpaceOnUse">
      <stop offset="0" stop-color="#9f6d29"/>
      <stop offset=".03" stop-color="#a56f28"/>
      <stop offset=".15" stop-color="#bf7927"/>
      <stop offset=".27" stop-color="#d28125"/>
      <stop offset=".4" stop-color="#de8525"/>
      <stop offset=".53" stop-color="#e28725"/>
      <stop offset="1" stop-color="#9f6d29"/>
    </linearGradient>
    <linearGradient id="New_Gradient_Swatch_3-2" data-name="New Gradient Swatch 3" x1="97.79" y1="633.69" x2="649.58" y2="58.14" xlink:href="#New_Gradient_Swatch_3"/>
    <linearGradient id="New_Gradient_Swatch_3-3" data-name="New Gradient Swatch 3" x1="220.19" y1="751.03" x2="771.97" y2="175.48" xlink:href="#New_Gradient_Swatch_3"/>
    <linearGradient id="New_Gradient_Swatch_1" data-name="New Gradient Swatch 1" x1="154.51" y1="493.03" x2="479.24" y2="119.45" gradientUnits="userSpaceOnUse">
      <stop offset="0" stop-color="#808185"/>
      <stop offset=".02" stop-color="#86878b"/>
      <stop offset=".11" stop-color="#a8a9ac"/>
      <stop offset=".21" stop-color="#c2c3c5"/>
      <stop offset=".32" stop-color="#d5d6d8"/>
      <stop offset=".42" stop-color="#e1e2e3"/>
      <stop offset=".53" stop-color="#e5e6e7"/>
      <stop offset="1" stop-color="#808185"/>
    </linearGradient>
    <linearGradient id="New_Gradient_Swatch_3-4" data-name="New Gradient Swatch 3" x1="258.67" y1="787.93" x2="810.46" y2="212.38" xlink:href="#New_Gradient_Swatch_3"/>
    <linearGradient id="New_Gradient_Swatch_1-2" data-name="New Gradient Swatch 1" x1="377.88" y1="687.2" x2="702.62" y2="313.62" xlink:href="#New_Gradient_Swatch_1"/>
    <linearGradient id="New_Gradient_Swatch_3-5" data-name="New Gradient Swatch 3" x1="193.55" y1="725.49" x2="745.33" y2="149.94" xlink:href="#New_Gradient_Swatch_3"/>
    <linearGradient id="New_Gradient_Swatch_1-3" data-name="New Gradient Swatch 1" x1="313.17" y1="630.95" x2="637.9" y2="257.37" xlink:href="#New_Gradient_Swatch_1"/>
    <linearGradient id="New_Gradient_Swatch_3-6" data-name="New Gradient Swatch 3" x1="122.39" y1="657.28" x2="674.18" y2="81.73" xlink:href="#New_Gradient_Swatch_3"/>
    <linearGradient id="New_Gradient_Swatch_1-4" data-name="New Gradient Swatch 1" x1="240.15" y1="567.47" x2="564.88" y2="193.9" xlink:href="#New_Gradient_Swatch_1"/>
    <linearGradient id="New_Gradient_Swatch_3-7" data-name="New Gradient Swatch 3" x1="201.32" y1="732.95" x2="753.11" y2="157.4" xlink:href="#New_Gradient_Swatch_3"/>
    <linearGradient id="New_Gradient_Swatch_1-5" data-name="New Gradient Swatch 1" x1="315.46" y1="632.94" x2="640.19" y2="259.36" xlink:href="#New_Gradient_Swatch_1"/>
    <linearGradient id="New_Gradient_Swatch_4" data-name="New Gradient Swatch 4" x1="394.55" y1="530.41" x2="554.28" y2="365.4" gradientUnits="userSpaceOnUse">
      <stop offset="0" stop-color="#b68c2e"/>
      <stop offset=".1" stop-color="#c99b28"/>
      <stop offset=".24" stop-color="#dbaa23"/>
      <stop offset=".38" stop-color="#e7b320"/>
      <stop offset=".53" stop-color="#ebb61f"/>
      <stop offset="1" stop-color="#b68c2e"/>
    </linearGradient>
    <linearGradient id="New_Gradient_Swatch_3-8" data-name="New Gradient Swatch 3" x1="144.38" y1="678.35" x2="696.16" y2="102.8" xlink:href="#New_Gradient_Swatch_3"/>
    <linearGradient id="New_Gradient_Swatch_1-6" data-name="New Gradient Swatch 1" x1="258.99" y1="583.86" x2="583.73" y2="210.28" xlink:href="#New_Gradient_Swatch_1"/>
    <linearGradient id="New_Gradient_Swatch_4-2" data-name="New Gradient Swatch 4" x1="337.59" y1="475.27" x2="497.31" y2="310.26" xlink:href="#New_Gradient_Swatch_4"/>
  </defs>
  <path class="cls-1" d="m782.29,193.25l5.16-3.13-.06-.09-5.16,3.13s.04.06.05.09Z"/>
  <path class="cls-4" d="m782.29,193.25l-130.4,79.15c23.98,38.35,37.84,83.67,37.84,132.23,0,44.29-11.54,85.88-31.75,121.95l-14.24-8.43,143.88,85.21c33.97-59.06,53.4-127.54,53.4-200.57,0-76.76-21.47-148.49-58.73-209.54Z"/>
  <path class="cls-9" d="m651.82,272.3l130.41-79.14C712.3,78.64,586.8,1.76,443.22.01l.54,154.83c87.77,1.33,164.55,47.92,208.07,117.46Z"/>
  <path class="cls-13" d="m651.82,272.3s.04.07.06.11l130.4-79.15s-.04-.06-.05-.09l-130.41,79.14Z"/>
  <polygon class="cls-5" points="443.75 154.84 443.79 165.68 443.75 154.84 443.75 154.84"/>
  <path class="cls-14" d="m689.73,404.63c0-48.56-13.87-93.88-37.84-132.23l-114.13,69.27c11.34,17.91,17.91,39.15,17.91,61.92,0,20.21-5.17,39.2-14.26,55.74l-.4-1.3,26.24,84.11,76.49-24,14.24,8.43c20.21-36.07,31.75-77.66,31.75-121.95Z"/>
  <path class="cls-16" d="m689.73,404.63c0-48.56-13.87-93.88-37.84-132.23l-114.13,69.27c11.34,17.91,17.91,39.15,17.91,61.92,0,20.21-5.17,39.2-14.26,55.74l-.4-1.3,26.24,84.11,76.49-24,14.24,8.43c20.21-36.07,31.75-77.66,31.75-121.95Z"/>
  <path class="cls-8" d="m537.68,341.56s.05.08.07.12l114.13-69.27s-.04-.07-.06-.11l-114.14,69.26Z"/>
  <path class="cls-17" d="m537.68,341.56s.05.08.07.12l114.13-69.27s-.04-.07-.06-.11l-114.14,69.26Z"/>
  <path class="cls-10" d="m443.75,154.84l.04,10.84,63.21,56.25-62.02,69.47,3.06-3.42c37.73,2.67,70.47,23.4,89.64,53.59l114.14-69.26c-43.52-69.54-120.3-116.12-208.07-117.46Z"/>
  <path class="cls-19" d="m443.75,154.84l.04,10.84,63.21,56.25-62.02,69.47,3.06-3.42c37.73,2.67,70.47,23.4,89.64,53.59l114.14-69.26c-43.52-69.54-120.3-116.12-208.07-117.46Z"/>
  <path class="cls-11" d="m555.67,403.6c0-22.77-6.57-44.01-17.91-61.92l-93.5,56.76,96.75,59.61.4,1.3c9.09-16.54,14.26-35.54,14.26-55.74Z"/>
  <path class="cls-15" d="m555.67,403.6c0-22.77-6.57-44.01-17.91-61.92l-93.5,56.76,96.75,59.61.4,1.3c9.09-16.54,14.26-35.54,14.26-55.74Z"/>
  <path class="cls-6" d="m555.67,403.6c0-22.77-6.57-44.01-17.91-61.92l-93.5,56.76,96.75,59.61.4,1.3c9.09-16.54,14.26-35.54,14.26-55.74Z"/>
  <path class="cls-12" d="m537.68,341.56l-92.51,56.14,92.51-56.14c-19.17-30.19-51.91-50.92-89.64-53.59l-3.06,3.42-1.35,106.66.61.38,93.5-56.76s-.05-.08-.07-.12Z"/>
  <path class="cls-18" d="m537.68,341.56l-92.51,56.14,92.51-56.14c-19.17-30.19-51.91-50.92-89.64-53.59l-3.06,3.42-1.35,106.66.61.38,93.5-56.76s-.05-.08-.07-.12Z"/>
  <path class="cls-7" d="m537.68,341.56l-92.51,56.14,92.51-56.14c-19.17-30.19-51.91-50.92-89.64-53.59l-3.06,3.42-1.35,106.66.61.38,93.5-56.76s-.05-.08-.07-.12Z"/>
  <g>
    <line class="cls-2" x1="445.17" y1="397.69" x2="447.31" y2="396.4"/>
    <line class="cls-3" x1="451.59" y1="393.8" x2="783.55" y2="192.36"/>
    <line class="cls-2" x1="785.69" y1="191.06" x2="787.83" y2="189.76"/>
  </g>
</svg>