<svg xmlns="http://www.w3.org/2000/svg" xmlns:xlink="http://www.w3.org/1999/xlink" preserveAspectRatio="xMidYMid meet" width="1920" height="1080" viewBox="0 0 1920 1080" style="width:100%;height:100%"><defs><animate repeatCount="indefinite" dur="9s" begin="0s" xlink:href="#_R_G_L_8_G_D_0_P_0" fill="freeze" attributeName="d" attributeType="XML" from="M111.73 211.88 C111.73,156.57 156.57,111.73 211.88,111.73 C267.19,111.73 312.03,156.57 312.03,211.88 C312.03,267.19 267.19,312.03 211.88,312.03 C191.27,312.03 164.75,302.89 148.19,289.13 C143.38,285.13 135.88,276.63 134.2,274.13 C123.16,257.71 111.73,233.17 111.73,211.88z " to="M111.73 211.88 C111.73,156.57 156.57,111.73 211.88,111.73 C267.19,111.73 312.03,156.57 312.03,211.88 C312.03,267.19 267.19,312.03 211.88,312.03 C191.43,312.03 172.4,305.9 156.55,295.37 C151.38,278.88 142.88,272.38 129.48,268.81 C118.29,252.65 111.73,233.03 111.73,211.88z " keyTimes="0;0.3796296;0.5;1" values="M111.73 211.88 C111.73,156.57 156.57,111.73 211.88,111.73 C267.19,111.73 312.03,156.57 312.03,211.88 C312.03,267.19 267.19,312.03 211.88,312.03 C191.27,312.03 164.75,302.89 148.19,289.13 C143.38,285.13 135.88,276.63 134.2,274.13 C123.16,257.71 111.73,233.17 111.73,211.88z ;M111.73 211.88 C111.73,156.57 156.57,111.73 211.88,111.73 C267.19,111.73 312.03,156.57 312.03,211.88 C312.03,267.19 267.19,312.03 211.88,312.03 C191.27,312.03 164.75,302.89 148.19,289.13 C143.38,285.13 135.88,276.63 134.2,274.13 C123.16,257.71 111.73,233.17 111.73,211.88z ;M111.73 211.88 C111.73,156.57 156.57,111.73 211.88,111.73 C267.19,111.73 312.03,156.57 312.03,211.88 C312.03,267.19 267.19,312.03 211.88,312.03 C191.43,312.03 172.4,305.9 156.55,295.37 C151.38,278.88 142.88,272.38 129.48,268.81 C118.29,252.65 111.73,233.03 111.73,211.88z ;M111.73 211.88 C111.73,156.57 156.57,111.73 211.88,111.73 C267.19,111.73 312.03,156.57 312.03,211.88 C312.03,267.19 267.19,312.03 211.88,312.03 C191.43,312.03 172.4,305.9 156.55,295.37 C151.38,278.88 142.88,272.38 129.48,268.81 C118.29,252.65 111.73,233.03 111.73,211.88z " keySplines="0.167 0.167 0.667 1;0.167 0.167 0.667 1;0 0 0 0" calcMode="spline"/><animateTransform repeatCount="indefinite" dur="9s" begin="0s" xlink:href="#_R_G_L_8_G" fill="freeze" attributeName="transform" from="0 0" to="1.0482200000000002 1.0482200000000002" type="scale" additive="sum" keyTimes="0;0.0323704;0.0694444;1" values="0 0;0 0;1.0482200000000002 1.0482200000000002;1.0482200000000002 1.0482200000000002" keySplines="0.167 0.167 0.667 1;0.167 0.167 0.667 1;0 0 0 0" calcMode="spline"/><animateTransform repeatCount="indefinite" dur="9s" begin="0s" xlink:href="#_R_G_L_8_G" fill="freeze" attributeName="transform" from="-211.88 -211.88" to="-211.88 -211.88" type="translate" additive="sum" keyTimes="0;1" values="-211.88 -211.88;-211.88 -211.88" keySplines="0 0 1 1" calcMode="spline"/><animate repeatCount="indefinite" dur="9s" begin="0s" xlink:href="#_R_G_L_7_G_D_0_P_0" fill="freeze" attributeName="d" attributeType="XML" from="M84.46 211.88 C84.46,141.51 141.51,84.46 211.88,84.46 C282.25,84.46 339.3,141.51 339.3,211.88 C339.3,282.25 282.25,339.3 211.88,339.3 C185.87,339.3 151.63,329.38 127.53,308.39 C123.04,304.48 120.64,301.37 117.02,297.1 C95.63,271.88 84.46,240.01 84.46,211.88z " to="M84.46 211.88 C84.46,141.51 141.51,84.46 211.88,84.46 C282.25,84.46 339.3,141.51 339.3,211.88 C339.3,282.25 282.25,339.3 211.88,339.3 C186.07,339.3 162.06,331.63 142,318.44 C139.13,300.13 129.13,289.63 108.76,286.74 C93.47,265.73 84.46,239.86 84.46,211.88z " keyTimes="0;0.287037;0.4053729;1" values="M84.46 211.88 C84.46,141.51 141.51,84.46 211.88,84.46 C282.25,84.46 339.3,141.51 339.3,211.88 C339.3,282.25 282.25,339.3 211.88,339.3 C185.87,339.3 151.63,329.38 127.53,308.39 C123.04,304.48 120.64,301.37 117.02,297.1 C95.63,271.88 84.46,240.01 84.46,211.88z ;M84.46 211.88 C84.46,141.51 141.51,84.46 211.88,84.46 C282.25,84.46 339.3,141.51 339.3,211.88 C339.3,282.25 282.25,339.3 211.88,339.3 C185.87,339.3 151.63,329.38 127.53,308.39 C123.04,304.48 120.64,301.37 117.02,297.1 C95.63,271.88 84.46,240.01 84.46,211.88z ;M84.46 211.88 C84.46,141.51 141.51,84.46 211.88,84.46 C282.25,84.46 339.3,141.51 339.3,211.88 C339.3,282.25 282.25,339.3 211.88,339.3 C186.07,339.3 162.06,331.63 142,318.44 C139.13,300.13 129.13,289.63 108.76,286.74 C93.47,265.73 84.46,239.86 84.46,211.88z ;M84.46 211.88 C84.46,141.51 141.51,84.46 211.88,84.46 C282.25,84.46 339.3,141.51 339.3,211.88 C339.3,282.25 282.25,339.3 211.88,339.3 C186.07,339.3 162.06,331.63 142,318.44 C139.13,300.13 129.13,289.63 108.76,286.74 C93.47,265.73 84.46,239.86 84.46,211.88z " keySplines="0.167 0.167 0.667 1;0.167 0.167 0.667 1;0 0 0 0" calcMode="spline"/><animateTransform repeatCount="indefinite" dur="9s" begin="0s" xlink:href="#_R_G_L_7_G" fill="freeze" attributeName="transform" from="0 0" to="1.0482200000000002 1.0482200000000002" type="scale" additive="sum" keyTimes="0;0.0231111;0.0601852;1" values="0 0;0 0;1.0482200000000002 1.0482200000000002;1.0482200000000002 1.0482200000000002" keySplines="0.167 0.167 0.667 1;0.167 0.167 0.667 1;0 0 0 0" calcMode="spline"/><animateTransform repeatCount="indefinite" dur="9s" begin="0s" xlink:href="#_R_G_L_7_G" fill="freeze" attributeName="transform" from="-211.88 -211.88" to="-211.88 -211.88" type="translate" additive="sum" keyTimes="0;1" values="-211.88 -211.88;-211.88 -211.88" keySplines="0 0 1 1" calcMode="spline"/><animate repeatCount="indefinite" dur="9s" begin="0s" xlink:href="#_R_G_L_6_G_D_0_P_0" fill="freeze" attributeName="d" attributeType="XML" from="M56.79 211.88 C56.79,126.23 126.23,56.8 211.88,56.8 C297.53,56.8 366.97,126.23 366.97,211.88 C366.97,297.53 297.53,366.96 211.88,366.96 C178.65,366.96 137.13,353.13 109.12,328.97 C106.51,326.72 99.88,320.38 95.63,315.61 C72.85,289.99 56.79,246.09 56.79,211.88z " to="M56.79 211.88 C56.79,126.23 126.23,56.8 211.88,56.8 C297.53,56.8 366.97,126.23 366.97,211.88 C366.97,297.53 297.53,366.96 211.88,366.96 C178.86,366.96 148.25,356.65 123.1,339.06 C120.88,314.38 106.88,305.88 86.32,302.92 C67.75,277.36 56.79,245.9 56.79,211.88z " keyTimes="0;0.2037037;0.3101942;1" values="M56.79 211.88 C56.79,126.23 126.23,56.8 211.88,56.8 C297.53,56.8 366.97,126.23 366.97,211.88 C366.97,297.53 297.53,366.96 211.88,366.96 C178.65,366.96 137.13,353.13 109.12,328.97 C106.51,326.72 99.88,320.38 95.63,315.61 C72.85,289.99 56.79,246.09 56.79,211.88z ;M56.79 211.88 C56.79,126.23 126.23,56.8 211.88,56.8 C297.53,56.8 366.97,126.23 366.97,211.88 C366.97,297.53 297.53,366.96 211.88,366.96 C178.65,366.96 137.13,353.13 109.12,328.97 C106.51,326.72 99.88,320.38 95.63,315.61 C72.85,289.99 56.79,246.09 56.79,211.88z ;M56.79 211.88 C56.79,126.23 126.23,56.8 211.88,56.8 C297.53,56.8 366.97,126.23 366.97,211.88 C366.97,297.53 297.53,366.96 211.88,366.96 C178.86,366.96 148.25,356.65 123.1,339.06 C120.88,314.38 106.88,305.88 86.32,302.92 C67.75,277.36 56.79,245.9 56.79,211.88z ;M56.79 211.88 C56.79,126.23 126.23,56.8 211.88,56.8 C297.53,56.8 366.97,126.23 366.97,211.88 C366.97,297.53 297.53,366.96 211.88,366.96 C178.86,366.96 148.25,356.65 123.1,339.06 C120.88,314.38 106.88,305.88 86.32,302.92 C67.75,277.36 56.79,245.9 56.79,211.88z " keySplines="0.167 0.167 0.667 1;0.167 0.167 0.667 1;0 0 0 0" calcMode="spline"/><animateTransform repeatCount="indefinite" dur="9s" begin="0s" xlink:href="#_R_G_L_6_G" fill="freeze" attributeName="transform" from="0 0" to="1.0482200000000002 1.0482200000000002" type="scale" additive="sum" keyTimes="0;0.0138889;0.0509621;1" values="0 0;0 0;1.0482200000000002 1.0482200000000002;1.0482200000000002 1.0482200000000002" keySplines="0.167 0.167 0.667 1;0.167 0.167 0.667 1;0 0 0 0" calcMode="spline"/><animateTransform repeatCount="indefinite" dur="9s" begin="0s" xlink:href="#_R_G_L_6_G" fill="freeze" attributeName="transform" from="-211.88 -211.88" to="-211.88 -211.88" type="translate" additive="sum" keyTimes="0;1" values="-211.88 -211.88;-211.88 -211.88" keySplines="0 0 1 1" calcMode="spline"/><animateTransform repeatCount="indefinite" dur="9s" begin="0s" xlink:href="#_R_G_L_5_G" fill="freeze" attributeName="transform" from="0 0" to="1.0482200000000002 1.0482200000000002" type="scale" additive="sum" keyTimes="0;0.0416667;0.0787399;1" values="0 0;0 0;1.0482200000000002 1.0482200000000002;1.0482200000000002 1.0482200000000002" keySplines="0.167 0.167 0.667 1;0.167 0.167 0.667 1;0 0 0 0" calcMode="spline"/><animateTransform repeatCount="indefinite" dur="9s" begin="0s" xlink:href="#_R_G_L_5_G" fill="freeze" attributeName="transform" from="-211.88 -211.88" to="-211.88 -211.88" type="translate" additive="sum" keyTimes="0;1" values="-211.88 -211.88;-211.88 -211.88" keySplines="0 0 1 1" calcMode="spline"/><animateTransform repeatCount="indefinite" dur="9s" begin="0s" xlink:href="#_R_G_L_4_G" fill="freeze" attributeName="transform" from="0 0" to="1.0482200000000002 1.0482200000000002" type="scale" additive="sum" keyTimes="0;0.0046296;0.0417028;1" values="0 0;0 0;1.0482200000000002 1.0482200000000002;1.0482200000000002 1.0482200000000002" keySplines="0.167 0.167 0.667 1;0.167 0.167 0.667 1;0 0 0 0" calcMode="spline"/><animateTransform repeatCount="indefinite" dur="9s" begin="0s" xlink:href="#_R_G_L_4_G" fill="freeze" attributeName="transform" from="-211.88 -211.88" to="-211.88 -211.88" type="translate" additive="sum" keyTimes="0;1" values="-211.88 -211.88;-211.88 -211.88" keySplines="0 0 1 1" calcMode="spline"/><animate repeatCount="indefinite" dur="9s" begin="0s" xlink:href="#_R_G_L_1_G_L_3_G_M" fill="freeze" attributeName="opacity" from="0" to="1" keyTimes="0;0.0231481;0.0231481;0.0231486;1" values="0;0;0;1;1" keySplines="0 0 0 0;0 0 0 0;0 0 0 0;0 0 0 0" calcMode="spline"/><animateMotion repeatCount="indefinite" dur="9s" begin="0s" xlink:href="#_R_G_L_1_G_L_2_G" fill="freeze" keyTimes="0;0.0231481;0.1203704;0.1342593;0.1574074;1" path="M1353.4 276.84 C1353.4,276.84 1353.4,276.84 1353.4,276.84 C1353.4,276.84 1353.4,276.84 1353.4,276.84 C1350.32,280.26 1337.32,294.92 1334.9,297.34 C1332.48,299.76 1338.23,292.34 1338.9,291.34 C1338.9,291.34 1338.9,291.34 1338.9,291.34 " keyPoints="0;0;0;0.76;1;1" keySplines="0.167 0.167 0.667 1;0.167 0.167 0.667 1;0.167 0.167 0.667 1;0.333 0 0.667 1;0 0 0 0" calcMode="spline"/><animateTransform repeatCount="indefinite" dur="9s" begin="0s" xlink:href="#_R_G_L_1_G_L_2_G" fill="freeze" attributeName="transform" from="-175.895 -96.482" to="-175.895 -96.482" type="translate" additive="sum" keyTimes="0;0.0231481;1" values="-175.895 -96.482;-175.895 -96.482;-175.895 -96.482" keySplines="0 0 1 1;0 0 0 0" calcMode="spline"/><animate repeatCount="indefinite" dur="9s" begin="0s" xlink:href="#_R_G_L_1_G_L_2_G_M" fill="freeze" attributeName="opacity" from="0" to="1" keyTimes="0;0.0231481;0.0231481;0.0231486;1" values="0;0;0;1;1" keySplines="0 0 0 0;0 0 0 0;0 0 0 0;0 0 0 0" calcMode="spline"/><animate repeatCount="indefinite" dur="9s" begin="0s" xlink:href="#_R_G_L_1_G_L_1_G_M" fill="freeze" attributeName="opacity" from="0" to="1" keyTimes="0;0.0231481;0.0231481;0.0231486;1" values="0;0;0;1;1" keySplines="0 0 0 0;0 0 0 0;0 0 0 0;0 0 0 0" calcMode="spline"/><animateTransform repeatCount="indefinite" dur="9s" begin="0s" xlink:href="#_R_G_L_1_G_L_0_G" fill="freeze" attributeName="transform" from="0" to="49" type="rotate" additive="sum" keyTimes="0;0.0231481;0.1574074;0.4444444;1" values="0;0;0;49;49" keySplines="0.167 0.167 0.833 0.833;0.167 0.167 0.833 0.833;0.167 0.167 0.833 0.833;0 0 0 0" calcMode="spline"/><animateTransform repeatCount="indefinite" dur="9s" begin="0s" xlink:href="#_R_G_L_1_G_L_0_G" fill="freeze" attributeName="transform" from="-105.661 -170.482" to="-105.661 -170.482" type="translate" additive="sum" keyTimes="0;0.0231481;1" values="-105.661 -170.482;-105.661 -170.482;-105.661 -170.482" keySplines="0 0 1 1;0 0 0 0" calcMode="spline"/><animate repeatCount="indefinite" dur="9s" begin="0s" xlink:href="#_R_G_L_1_G_L_0_G_M" fill="freeze" attributeName="opacity" from="0" to="1" keyTimes="0;0.0231481;0.0231481;0.0231486;1" values="0;0;0;1;1" keySplines="0 0 0 0;0 0 0 0;0 0 0 0;0 0 0 0" calcMode="spline"/><animateTransform repeatCount="indefinite" dur="9s" begin="0s" xlink:href="#_R_G_L_1_G" fill="freeze" attributeName="transform" from="0 0" to="1.0482200000000002 1.0482200000000002" type="scale" additive="sum" keyTimes="0;0.0231481;0.0509259;1" values="0 0;0 0;1.0482200000000002 1.0482200000000002;1.0482200000000002 1.0482200000000002" keySplines="0.167 0.167 0 1;0.167 0.167 0 1;0 0 0 0" calcMode="spline"/><animateTransform repeatCount="indefinite" dur="9s" begin="0s" xlink:href="#_R_G_L_1_G" fill="freeze" attributeName="transform" from="-1283.297 -347.292" to="-1283.297 -347.292" type="translate" additive="sum" keyTimes="0;1" values="-1283.297 -347.292;-1283.297 -347.292" keySplines="0 0 1 1" calcMode="spline"/><animate repeatCount="indefinite" dur="9s" begin="0s" xlink:href="#_R_G_L_1_G_M" fill="freeze" attributeName="opacity" from="0" to="1" keyTimes="0;0.0231481;0.0231486;1" values="0;0;1;1" keySplines="0 0 0 0;0 0 0 0;0 0 0 0" calcMode="spline"/><animate attributeType="XML" attributeName="opacity" dur="9s" from="0" to="1" xlink:href="#time_group"/></defs><g id="_R_G"><g id="_R_G_L_8_G" transform=" translate(960, 540)"><path id="_R_G_L_8_G_D_0_P_0" stroke="#000000" stroke-linecap="round" stroke-linejoin="round" fill="none" stroke-width="12" stroke-opacity="1" d=" M111.73 211.88 C111.73,156.57 156.57,111.73 211.88,111.73 C267.19,111.73 312.03,156.57 312.03,211.88 C312.03,267.19 267.19,312.03 211.88,312.03 C191.27,312.03 164.75,302.89 148.19,289.13 C143.38,285.13 135.88,276.63 134.2,274.13 C123.16,257.71 111.73,233.17 111.73,211.88z "/></g><g id="_R_G_L_7_G" transform=" translate(960, 540)"><path id="_R_G_L_7_G_D_0_P_0" stroke="#000000" stroke-linecap="round" stroke-linejoin="round" fill="none" stroke-width="12" stroke-opacity="1" d=" M84.46 211.88 C84.46,141.51 141.51,84.46 211.88,84.46 C282.25,84.46 339.3,141.51 339.3,211.88 C339.3,282.25 282.25,339.3 211.88,339.3 C185.87,339.3 151.63,329.38 127.53,308.39 C123.04,304.48 120.64,301.37 117.02,297.1 C95.63,271.88 84.46,240.01 84.46,211.88z "/></g><g id="_R_G_L_6_G" transform=" translate(960, 540)"><path id="_R_G_L_6_G_D_0_P_0" stroke="#000000" stroke-linecap="round" stroke-linejoin="round" fill="none" stroke-width="12" stroke-opacity="1" d=" M56.79 211.88 C56.79,126.23 126.23,56.8 211.88,56.8 C297.53,56.8 366.97,126.23 366.97,211.88 C366.97,297.53 297.53,366.96 211.88,366.96 C178.65,366.96 137.13,353.13 109.12,328.97 C106.51,326.72 99.88,320.38 95.63,315.61 C72.85,289.99 56.79,246.09 56.79,211.88z "/></g><g id="_R_G_L_5_G" transform=" translate(960, 540)"><path id="_R_G_L_5_G_D_0_P_0" stroke="#000000" stroke-linecap="round" stroke-linejoin="round" fill="none" stroke-width="12" stroke-opacity="1" d=" M139.99 211.88 C139.99,172.17 172.17,139.99 211.88,139.99 C251.59,139.99 283.77,172.17 283.77,211.88 C283.77,251.59 251.59,283.77 211.88,283.77 C172.17,283.77 139.99,251.59 139.99,211.88z "/></g><g id="_R_G_L_4_G" transform=" translate(960, 540)"><path id="_R_G_L_4_G_D_0_P_0" stroke="#000000" stroke-linecap="round" stroke-linejoin="round" fill="none" stroke-width="12" stroke-opacity="1" d=" M30 211.88 C30,111.43 111.43,30 211.88,30 C312.33,30 393.76,111.43 393.76,211.88 C393.76,312.33 312.33,393.76 211.88,393.76 C111.43,393.76 30,312.33 30,211.88z "/></g><g id="_R_G_L_3_G" transform=" translate(414.706, 551.742) scale(1.04822, 1.04822) translate(-269.629, -159.91)"><path id="_R_G_L_3_G_D_0_P_0" fill="#000000" fill-opacity="1" fill-rule="nonzero" d=" M364.57 238.4 C374.34,253.84 386.12,265.46 401.31,273.55 C403.62,274.78 406.02,275.86 408.36,277.05 C413.84,279.84 416.23,284.23 413.68,290 C411.05,295.96 405.64,296.79 400.36,294.45 C393.91,291.59 387.66,288.13 381.76,284.26 C368.4,275.51 357.6,264.12 349.34,250.48 C346.81,246.3 344.4,244.76 339.21,246.18 C328.86,249.02 318.31,251.31 307.71,253 C301.56,253.99 299.88,256.48 300.8,262.4 C302.73,274.83 304.14,287.33 305.78,299.8 C306.01,301.62 306.4,303.43 306.52,305.25 C307.03,312.89 303.98,317.56 298.01,317.87 C291.11,318.23 288.09,314.07 287.29,307.83 C285.56,294.32 284.03,280.78 282.15,267.3 C280.3,254.03 281.63,256.46 269.42,256.18 C262.1,256.01 252.81,252.88 248.03,256.22 C243.43,259.44 244.24,269.62 241.34,276.16 C235.96,288.32 229.99,300.27 223.52,311.9 C219.96,318.3 213.77,319.57 208.88,316.39 C204.16,313.32 203.62,307.37 207.81,301.15 C216.56,288.17 222.62,274.11 225.89,258.77 C226.98,253.62 225.87,251.08 220.4,249.94 C212.71,248.34 205.1,246.23 197.63,243.79 C193.03,242.29 190.67,243.19 188.3,247.57 C176.86,268.75 159.85,284.32 138.49,295.25 C133.23,297.94 127.77,297.87 124.68,292.35 C121.58,286.81 123.11,281.7 129.13,278.49 C131.68,277.13 134.15,275.64 136.63,274.15 C150.15,266.03 161.03,255.22 169.34,241.83 C170.43,240.08 171.3,238.18 172.73,235.52 C161.05,229.73 149.69,223.98 138.15,218.62 C137.09,218.13 134.41,219.85 133.2,221.18 C114.95,241.42 91.94,252.19 65.16,255.58 C63.86,255.74 62.56,255.94 61.25,256.02 C53.94,256.45 48.89,253.02 48.81,247.15 C48.72,240.31 53.14,238.15 59.26,236.73 C70.94,234.04 82.97,231.66 93.82,226.84 C103.1,222.71 110.94,215.34 120.69,208.51 C111.45,202.02 104.33,196.75 96.86,192.03 C95.51,191.18 92.23,191.91 90.69,193.05 C67.6,210.04 40.97,214.61 13.24,215.3 C5.23,215.5 0.25,211.56 0.76,205.51 C1.36,198.34 6.17,196.02 12.82,196 C31.68,195.96 49.99,193.08 67.11,184.76 C71,182.87 74.55,180.29 78.72,177.74 C74.29,172.77 70.55,168.81 67.09,164.63 C63.37,160.15 63.12,155.33 67.67,151.38 C72.43,147.25 77.16,148.26 81.64,152.53 C126.01,194.94 178.1,222.84 238.64,234 C285.89,242.7 330.56,232.7 373.4,212.8 C405.76,197.77 435.14,178.14 461.59,154.19 C462.95,152.96 464.33,150.86 465.78,150.79 C469.86,150.59 474.87,149.89 477.89,151.86 C482.34,154.78 482.01,160.21 478.62,164.39 C476,167.62 472.87,170.57 469.52,173.03 C465.08,176.29 465.24,179.41 468.1,183.63 C481.85,203.97 501.5,214.87 525.1,219.63 C526.89,219.99 528.76,220.13 530.5,220.66 C536,222.35 539.01,226 537.92,231.85 C536.82,237.73 532.57,240.44 526.94,239.53 C497.59,234.79 472.49,222.49 454.52,197.95 C453.12,196.05 451.8,194.09 450.4,192.2 C450.1,191.8 449.58,191.57 448.43,190.71 C439.52,196.8 430.38,203.05 420.62,209.72 C433.1,226.72 448.49,238.34 467.12,245.87 C469.8,246.95 472.61,247.71 475.24,248.89 C480.43,251.22 482.52,256.06 480.05,260.45 C478.32,263.52 473.31,266.49 469.82,266.43 C464.83,266.35 459.74,263.78 454.95,261.71 C436.01,253.51 420.37,240.89 407.53,224.92 C404.22,220.8 401.83,220.18 397.17,222.64 C386.8,228.11 376.07,232.9 364.57,238.4z "/><path id="_R_G_L_3_G_D_1_P_0" fill="#000000" fill-opacity="1" fill-rule="nonzero" d=" M270.43 25.15 C209.23,25.62 159.25,47.13 114.86,82.89 C103.24,92.25 92.62,102.83 81.6,112.92 C76.79,117.32 71.75,118.25 67.07,113.32 C62.72,108.72 63.61,103.73 67.89,99.36 C107.13,59.35 151.88,28.15 207.06,14.21 C262.28,0.25 315.97,6.77 368.23,27.94 C400.81,41.14 430.63,59.06 457.73,81.45 C459.95,83.29 462.21,85.13 464.17,87.22 C468.08,91.39 468.93,96.1 464.96,100.59 C460.99,105.09 456.04,104.95 451.55,101.52 C445.51,96.91 440,91.6 433.96,87 C393.21,55.93 348.17,34.55 296.98,27.24 C294.13,26.83 291.26,26.49 288.38,26.29 C281.31,25.79 274.23,25.39 270.43,25.15z "/></g><g id="_R_G_L_2_G_N_5_T_0" transform=" translate(414.706, 551.742) scale(1.04822, 1.04822) translate(-269.629, -159.91)"><g id="_R_G_L_2_G" transform=" translate(814.924, 148.168) translate(0, 0)"><path id="_R_G_L_2_G_D_0_P_0" stroke="#ff0000" stroke-linecap="round" stroke-linejoin="round" fill="none" stroke-width="20" stroke-opacity="1" d=" M-526.5 93.5 C-526.5,93.5 -519.5,147 -516,172 "/><path id="_R_G_L_2_G_D_1_P_0" stroke="#ff0000" stroke-linecap="round" stroke-linejoin="round" fill="none" stroke-width="20" stroke-opacity="1" d=" M-468.5 77.5 C-468.5,77.5 -450,127 -395.5,144.5 "/><path id="_R_G_L_2_G_D_2_P_0" stroke="#ff0000" stroke-linecap="round" stroke-linejoin="round" fill="none" stroke-width="20" stroke-opacity="1" d=" M-572.5 87 C-572.5,87 -580.5,136.5 -608,172.5 "/><path id="_R_G_L_2_G_D_3_P_0" stroke="#ff0000" stroke-linecap="round" stroke-linejoin="round" fill="none" stroke-width="20" stroke-opacity="1" d=" M-412 51.5 C-412,51.5 -388.5,99.5 -333.5,112.5 "/><path id="_R_G_L_2_G_D_4_P_0" stroke="#ff0000" stroke-linecap="round" stroke-linejoin="round" fill="none" stroke-width="20" stroke-opacity="1" d=" M-626.5 75.5 C-626.5,75.5 -636.5,120.5 -694,145 "/><path id="_R_G_L_2_G_D_5_P_0" stroke="#ff0000" stroke-linecap="round" stroke-linejoin="round" fill="none" stroke-width="20" stroke-opacity="1" d=" M-364 18 C-364,18 -353,79.5 -270.5,83.5 "/><path id="_R_G_L_2_G_D_6_P_0" stroke="#ff0000" stroke-linecap="round" stroke-linejoin="round" fill="none" stroke-width="20" stroke-opacity="1" d=" M-675 50 C-675,50 -696,96.5 -771.5,100.5 "/><path id="_R_G_L_2_G_D_7_P_0" stroke="#ff0000" stroke-linecap="round" stroke-linejoin="round" fill="none" stroke-width="20" stroke-opacity="1" d=" M-713 24.5 C-713,24.5 -745,61 -817,57 "/><path id="_R_G_L_2_G_D_8_P_0" stroke="#ff0000" stroke-linecap="round" stroke-linejoin="round" fill="none" stroke-width="20" stroke-opacity="1" d=" M-752 -2 C-752,-2 -669,98 -543,98 C-417,98 -329,-6 -329,-6 "/><path id="_R_G_L_2_G_D_9_P_0" stroke="#ff0000" stroke-linecap="round" stroke-linejoin="round" fill="none" stroke-width="20" stroke-opacity="1" d=" M-347 -43 C-347,-43 -422,-132 -550,-132 C-678,-132 -752,-27 -752,-27 "/></g></g><g id="_R_G_L_1_G_M"><g id="_R_G_L_1_G" transform=" translate(1298.886, 338)"><g id="_R_G_L_1_G_L_3_G_M"><g id="_R_G_L_1_G_L_3_G" transform=" translate(1283.166, 350.841) translate(-105.661, -170.482)"><path id="_R_G_L_1_G_L_3_G_D_0_P_0" fill="#000000" fill-opacity="1" fill-rule="nonzero" d=" M5.09 167.62 C5.17,125.39 32.04,86.86 71.59,72.94 C77.25,70.95 83.21,69.8 89.07,68.4 C90.37,68.09 90.96,67.63 90.88,66.33 C90.87,66.05 90.86,65.76 90.89,65.48 C91.46,61.49 90.16,58.85 86.77,56.08 C77.49,48.48 74.36,38.2 77.23,26.59 C80.06,15.15 87.58,7.81 99.07,5.02 C118.72,0.25 137.2,16.25 135.33,36.39 C134.51,45.34 130.43,52.62 122.95,57.76 C121.43,58.81 120.66,59.88 120.89,61.76 C121.13,63.77 120.47,66.38 121.51,67.67 C122.48,68.87 125.17,68.68 127.1,69.11 C149.79,74.19 168.63,85.62 183.49,103.5 C194.91,117.24 202.15,133.02 205.04,150.6 C209.56,178.2 203.56,203.55 187.35,226.33 C174.48,244.41 157.12,256.5 136.1,263.35 C95.04,276.72 48.3,260.84 23.66,225.36 C14.75,212.53 8.99,198.47 6.53,183.09 C5.71,177.99 5.55,172.78 5.09,167.62z  M185.08 167.45 C185.05,123.57 149.62,88.1 105.81,88.1 C62.37,88.09 26.59,123.8 26.6,167.15 C26.62,211.19 62.04,246.72 105.93,246.71 C149.59,246.71 185.11,211.14 185.08,167.45z  M105.9 47.24 C110.16,47.24 114.42,47.35 118.67,47.17 C119.75,47.12 121.13,46.39 121.78,45.53 C125.89,40.04 126.91,33.9 124.7,27.41 C122.06,19.63 116.45,15 108.38,14.01 C99.75,12.95 92.81,16.39 88.54,23.98 C84.4,31.32 85.12,38.7 89.92,45.65 C90.7,46.8 91.67,47.3 93.12,47.27 C97.37,47.18 101.64,47.24 105.9,47.24z "/></g></g><g id="_R_G_L_1_G_L_2_G_M"><g id="_R_G_L_1_G_L_2_G"><path id="_R_G_L_1_G_L_2_G_D_0_P_0" fill="#000000" fill-opacity="1" fill-rule="nonzero" d=" M171.46 78.65 C176.43,73.75 181.4,68.8 186.47,63.95 C186.74,63.7 188.02,64.06 188.47,64.49 C193.49,69.39 198.44,74.36 203.41,79.32 C205.82,81.72 208.19,84.16 210.63,86.53 C211.48,87.36 211.54,88 210.69,88.84 C206.11,93.38 201.55,97.94 196.99,102.51 C196.25,103.26 195.66,103.34 194.86,102.54 C187.3,94.96 179.71,87.41 172.13,79.84 C171.9,79.61 171.79,79.24 171.46,78.65z "/></g></g><g id="_R_G_L_1_G_L_1_G_M"><g id="_R_G_L_1_G_L_1_G" transform=" translate(1211.666, 277.841) translate(-34.161, -97.482)"><path id="_R_G_L_1_G_L_1_G_D_0_P_0" fill="#000000" fill-opacity="1" fill-rule="nonzero" d=" M40.68 79.27 C38.15,81.59 35.75,83.68 33.49,85.91 C28.09,91.24 22.71,96.61 17.41,102.04 C16.16,103.32 15.41,103.27 14.19,102.01 C9.98,97.69 5.69,93.45 1.38,89.23 C0.25,88.14 0.27,87.35 1.37,86.26 C8.73,78.96 16.06,71.62 23.36,64.27 C24.21,63.41 24.81,63.38 25.65,64.23 C30.44,69.06 35.27,73.86 40.68,79.27z "/></g></g><g id="_R_G_L_1_G_L_0_G_M"><g id="_R_G_L_1_G_L_0_G" transform=" translate(1283.166, 350.841)"><path id="_R_G_L_1_G_L_0_G_D_0_P_0" fill="#000000" fill-opacity="1" fill-rule="nonzero" d=" M128.29 178.01 C123.73,188.97 111.75,195.23 100.76,192.75 C88.89,190.07 80.16,179.62 81.22,166.69 C81.93,157.99 86.39,151.33 94.09,147.05 C95.58,146.22 96.14,145.33 96.28,143.6 C97.36,130.02 98.57,116.45 99.77,102.88 C99.85,101.97 100.07,101.04 100.41,100.2 C101.3,97.97 103.28,96.73 105.39,96.97 C107.54,97.22 109.47,98.89 109.79,101.28 C110.51,106.56 111.06,111.86 111.64,117.15 C112.62,126.04 113.6,134.94 114.52,143.84 C114.66,145.17 115.09,145.98 116.37,146.6 C128.12,152.28 133.29,166 128.29,178.01z "/></g></g></g></g><g id="_R_G_L_0_G" transform=" translate(960, 540) translate(0, 0)"><path id="_R_G_L_0_G_D_0_P_0" fill="#ffffff" fill-opacity="1" fill-rule="nonzero" d=" M1159.7 -412.09 C1159.7,-412.09 1159.7,-87.23 1159.7,-87.23 C1159.7,-87.23 213.78,-87.23 213.78,-87.23 C213.78,-87.23 213.78,-412.09 213.78,-412.09 C213.78,-412.09 1159.7,-412.09 1159.7,-412.09z "/></g></g><g id="time_group"/></svg>