<?xml version="1.0" encoding="UTF-8"?>
<svg id="Layer_1" data-name="Layer 1" xmlns="http://www.w3.org/2000/svg" xmlns:xlink="http://www.w3.org/1999/xlink" viewBox="0 0 892.14 858.81">
  <defs>
    <style>
      .cls-1, .cls-2, .cls-3 {
        fill: none;
      }

      .cls-4 {
        clip-path: url(#clippath);
      }

      .cls-2 {
        stroke-dasharray: 0 0 4.95 4.95;
      }

      .cls-2, .cls-3 {
        stroke: #fff;
        stroke-linecap: round;
        stroke-linejoin: round;
        stroke-width: 2px;
      }

      .cls-5 {
        fill: url(#New_Gradient_Swatch_3);
      }

      .cls-6 {
        fill: url(#New_Gradient_Swatch_1);
      }

      .cls-7 {
        fill: url(#New_Gradient_Swatch_4);
      }
    </style>
    <clipPath id="clippath">
      <polygon class="cls-1" points="91.15 185.8 455.49 409.88 522.48 206.26 467.7 -16.17 315.89 9.57 187.51 77.56 102.04 167.32 91.15 185.8"/>
    </clipPath>
    <linearGradient id="New_Gradient_Swatch_3" data-name="New Gradient Swatch 3" x1="12.46" y1="551.88" x2="564.25" y2="-23.66" gradientUnits="userSpaceOnUse">
      <stop offset="0" stop-color="#9f6d29"/>
      <stop offset=".03" stop-color="#a56f28"/>
      <stop offset=".15" stop-color="#bf7927"/>
      <stop offset=".27" stop-color="#d28125"/>
      <stop offset=".4" stop-color="#de8525"/>
      <stop offset=".53" stop-color="#e28725"/>
      <stop offset="1" stop-color="#9f6d29"/>
    </linearGradient>
    <linearGradient id="New_Gradient_Swatch_1" data-name="New Gradient Swatch 1" x1="176.05" y1="511.76" x2="500.78" y2="138.18" gradientUnits="userSpaceOnUse">
      <stop offset="0" stop-color="#808185"/>
      <stop offset=".02" stop-color="#86878b"/>
      <stop offset=".11" stop-color="#a8a9ac"/>
      <stop offset=".21" stop-color="#c2c3c5"/>
      <stop offset=".32" stop-color="#d5d6d8"/>
      <stop offset=".42" stop-color="#e1e2e3"/>
      <stop offset=".53" stop-color="#e5e6e7"/>
      <stop offset="1" stop-color="#808185"/>
    </linearGradient>
    <linearGradient id="New_Gradient_Swatch_4" data-name="New Gradient Swatch 4" x1="310.29" y1="448.85" x2="470.02" y2="283.84" gradientUnits="userSpaceOnUse">
      <stop offset="0" stop-color="#b68c2e"/>
      <stop offset=".1" stop-color="#c99b28"/>
      <stop offset=".24" stop-color="#dbaa23"/>
      <stop offset=".38" stop-color="#e7b320"/>
      <stop offset=".53" stop-color="#ebb61f"/>
      <stop offset="1" stop-color="#b68c2e"/>
    </linearGradient>
  </defs>
  <g class="cls-4">
    <g>
      <g>
        <path class="cls-5" d="m240.29,534.16l9.82-84.12,92.48,10.95,93.06-63.44,1.38-109.25,58.67-65.72-59.89-53.3-.59-169.28C214.13,1.61,35.39,181.32,35.39,402.79c0,86.03,26.98,165.77,72.93,231.21l131.97-99.84Z"/>
        <path class="cls-6" d="m240.29,534.16l9.82-84.12,92.48,10.95,93.06-63.44,1.38-109.25,58.67-65.72-59.89-53.3-.05-14.43c-136.08,2.21-245.71,113.19-245.71,249.79,0,50.48,14.98,97.44,40.72,136.73l9.52-7.2Z"/>
        <path class="cls-7" d="m342.58,460.99l93.06-63.44,1.38-109.25.53-.6c-63.02,1.17-113.75,52.61-113.75,115.9,0,20.69,5.43,40.12,14.93,56.94l3.84.45Z"/>
      </g>
      <g>
        <line class="cls-3" x1="442.55" y1="401.95" x2="440.42" y2="400.64"/>
        <line class="cls-2" x1="436.2" y1="398.05" x2="100.92" y2="191.78"/>
        <line class="cls-3" x1="98.81" y1="190.48" x2="96.68" y2="189.17"/>
      </g>
    </g>
  </g>
</svg>