<svg xmlns="http://www.w3.org/2000/svg" xmlns:xlink="http://www.w3.org/1999/xlink" preserveAspectRatio="xMidYMid meet" width="1920" height="1080" viewBox="0 0 1920 1080" style="width:100%;height:100%"><defs><animateTransform repeatCount="indefinite" dur="7.007007s" begin="0s" xlink:href="#_R_G_L_4_G" fill="freeze" attributeName="transform" from="0 0" to="1.5 1.5" type="scale" additive="sum" keyTimes="0;0.1607143;0.2083334;0.5178572;0.5595239;0.702381;0.7440477;0.8511905;0.8988095;1" values="0 0;0 0;0.55 0.55;0.55 0.55;1.5 1.5;1.5 1.5;0.55 0.55;0.55 0.55;1.5 1.5;1.5 1.5" keySplines="0.167 0.167 0.667 1;0.167 0.167 0.667 1;0.167 0 0.667 1;0.333 0 0.667 1;0.167 0 0.667 1;0.333 0 0.667 1;0.167 0 0.667 1;0.333 0 0.667 1;0 0 0 0" calcMode="spline"/><animateTransform repeatCount="indefinite" dur="7.007007s" begin="0s" xlink:href="#_R_G_L_4_G" fill="freeze" attributeName="transform" from="-73.033 -132.597" to="-73.033 -132.597" type="translate" additive="sum" keyTimes="0;1" values="-73.033 -132.597;-73.033 -132.597" keySplines="0 0 1 1" calcMode="spline"/><animateTransform repeatCount="indefinite" dur="7.007007s" begin="0s" xlink:href="#_R_G_L_2_G" fill="freeze" attributeName="transform" from="0 0" to="1.5 1.5" type="scale" additive="sum" keyTimes="0;0.1607143;0.2083334;0.5178572;0.5595239;0.702381;0.7440477;0.8511905;0.8988095;1" values="0 0;0 0;0.55 0.55;0.55 0.55;1.5 1.5;1.5 1.5;0.55 0.55;0.55 0.55;1.5 1.5;1.5 1.5" keySplines="0.167 0.167 0.667 1;0.167 0.167 0.667 1;0.167 0 0.667 1;0.333 0 0.667 1;0.167 0 0.667 1;0.333 0 0.667 1;0.167 0 0.667 1;0.333 0 0.667 1;0 0 0 0" calcMode="spline"/><animateTransform repeatCount="indefinite" dur="7.007007s" begin="0s" xlink:href="#_R_G_L_2_G" fill="freeze" attributeName="transform" from="-73.033 -132.597" to="-73.033 -132.597" type="translate" additive="sum" keyTimes="0;1" values="-73.033 -132.597;-73.033 -132.597" keySplines="0 0 1 1" calcMode="spline"/><animate repeatCount="indefinite" dur="7.007007s" begin="0s" xlink:href="#_R_G_L_1_G_D_0_P_0" fill="freeze" attributeName="d" attributeType="XML" from="M105.07 102.27 C105.07,117.08 99.07,130.48 89.36,140.19 C79.66,149.89 66.26,155.89 51.45,155.89 C36.64,155.89 23.24,149.89 13.54,140.19 C3.83,130.48 -2.17,117.08 -2.17,102.27 C-2.17,87.47 3.83,74.06 13.54,64.36 C23.24,54.66 36.64,48.66 51.45,48.66 C81.06,48.66 105.07,72.66 105.07,102.27z " to="M0.25 204.06 C0.25,204.06 43.63,101.1 43.63,101.1 C43.63,101.1 3.32,101.1 3.32,101.1 C3.32,101.1 43.2,0.25 43.2,0.25 C43.2,0.25 86.62,0.25 86.62,0.25 C86.62,0.25 57.65,70.68 57.65,70.68 C57.65,70.68 100.19,70.68 100.19,70.68 C100.19,70.68 0.25,204.06 0.25,204.06z " keyTimes="0;0.2857143;0.3928571;1" values="M105.07 102.27 C105.07,117.08 99.07,130.48 89.36,140.19 C79.66,149.89 66.26,155.89 51.45,155.89 C36.64,155.89 23.24,149.89 13.54,140.19 C3.83,130.48 -2.17,117.08 -2.17,102.27 C-2.17,87.47 3.83,74.06 13.54,64.36 C23.24,54.66 36.64,48.66 51.45,48.66 C81.06,48.66 105.07,72.66 105.07,102.27z ;M105.07 102.27 C105.07,117.08 99.07,130.48 89.36,140.19 C79.66,149.89 66.26,155.89 51.45,155.89 C36.64,155.89 23.24,149.89 13.54,140.19 C3.83,130.48 -2.17,117.08 -2.17,102.27 C-2.17,87.47 3.83,74.06 13.54,64.36 C23.24,54.66 36.64,48.66 51.45,48.66 C81.06,48.66 105.07,72.66 105.07,102.27z ;M0.25 204.06 C0.25,204.06 43.63,101.1 43.63,101.1 C43.63,101.1 3.32,101.1 3.32,101.1 C3.32,101.1 43.2,0.25 43.2,0.25 C43.2,0.25 86.62,0.25 86.62,0.25 C86.62,0.25 57.65,70.68 57.65,70.68 C57.65,70.68 100.19,70.68 100.19,70.68 C100.19,70.68 0.25,204.06 0.25,204.06z ;M0.25 204.06 C0.25,204.06 43.63,101.1 43.63,101.1 C43.63,101.1 3.32,101.1 3.32,101.1 C3.32,101.1 43.2,0.25 43.2,0.25 C43.2,0.25 86.62,0.25 86.62,0.25 C86.62,0.25 57.65,70.68 57.65,70.68 C57.65,70.68 100.19,70.68 100.19,70.68 C100.19,70.68 0.25,204.06 0.25,204.06z " keySplines="0.333 0 0 1;0.333 0 0 1;0 0 0 0" calcMode="spline"/><animateTransform repeatCount="indefinite" dur="7.007007s" begin="0s" xlink:href="#_R_G_L_1_G" fill="freeze" attributeName="transform" from="0 0" to="1.5 1.5" type="scale" additive="sum" keyTimes="0;0.1607143;0.2083334;0.5178572;0.5595239;0.702381;0.7440477;0.8511905;0.8988095;1" values="0 0;0 0;0.9 0.9;0.9 0.9;1.5 1.5;1.5 1.5;0.9 0.9;0.9 0.9;1.5 1.5;1.5 1.5" keySplines="0.167 0.167 0.667 1;0.167 0.167 0.667 1;0.167 0 0.667 1;0.333 0 0.667 1;0.167 0 0.667 1;0.333 0 0.667 1;0.167 0 0.667 1;0.333 0 0.667 1;0 0 0 0" calcMode="spline"/><animateTransform repeatCount="indefinite" dur="7.007007s" begin="0s" xlink:href="#_R_G_L_1_G" fill="freeze" attributeName="transform" from="-50.221 -102.153" to="-50.221 -102.153" type="translate" additive="sum" keyTimes="0;1" values="-50.221 -102.153;-50.221 -102.153" keySplines="0 0 1 1" calcMode="spline"/><animate attributeType="XML" attributeName="opacity" dur="7s" from="0" to="1" xlink:href="#time_group"/></defs><g id="_R_G"><g id="_R_G_L_5_G" transform=" translate(960, 540) scale(4.77, 4.77) translate(-38.608, -38.283)"><path id="_R_G_L_5_G_D_0_P_0" stroke="#000000" stroke-linecap="round" stroke-linejoin="round" fill="none" stroke-width="5" stroke-opacity="1" d=" M64.72 38.28 C64.72,52.52 53.03,64.07 38.61,64.07 C24.19,64.07 12.5,52.52 12.5,38.28 C12.5,24.04 24.19,12.5 38.61,12.5 C53.03,12.5 64.72,24.04 64.72,38.28z "/></g><g id="_R_G_L_4_G" transform=" translate(952.18, 562.929)"><path id="_R_G_L_4_G_D_0_P_0" fill="#000000" fill-opacity="1" fill-rule="nonzero" d=" M0.25 264.94 C0.25,264.94 62.96,116.1 62.96,116.1 C62.96,116.1 22.93,116.1 22.93,116.1 C22.93,116.1 68.73,0.25 68.73,0.25 C68.73,0.25 128.45,0.25 128.45,0.25 C128.45,0.25 99.47,70.68 99.47,70.68 C99.47,70.68 145.81,70.68 145.81,70.68 C145.81,70.68 0.25,264.94 0.25,264.94z "/></g><g id="_R_G_L_3_G" transform=" translate(960, 540) scale(5, 5) translate(-67.363, -38.283)"><path id="_R_G_L_3_G_D_0_P_0" stroke="#000000" stroke-linecap="round" stroke-linejoin="round" fill="none" stroke-width="5" stroke-opacity="1" d=" M12.5 38.37 C12.5,38.37 35.78,12.5 67.93,12.5 C100.08,12.5 122.23,38.37 122.23,38.37 C122.23,38.37 97.82,64.07 67.93,64.07 C38.05,64.07 12.5,38.37 12.5,38.37z "/></g><g id="_R_G_L_2_G" transform=" translate(952.18, 562.929)"><path id="_R_G_L_2_G_D_0_P_0" fill="#000000" fill-opacity="1" fill-rule="nonzero" d=" M0.25 264.94 C0.25,264.94 62.96,116.1 62.96,116.1 C62.96,116.1 22.93,116.1 22.93,116.1 C22.93,116.1 68.73,0.25 68.73,0.25 C68.73,0.25 128.45,0.25 128.45,0.25 C128.45,0.25 99.47,70.68 99.47,70.68 C99.47,70.68 145.81,70.68 145.81,70.68 C145.81,70.68 0.25,264.94 0.25,264.94z "/></g><g id="_R_G_L_1_G" transform=" translate(960, 539.986)"><path id="_R_G_L_1_G_D_0_P_0" fill="#000000" fill-opacity="1" fill-rule="nonzero" d=" M105.07 102.27 C105.07,117.08 99.07,130.48 89.36,140.19 C79.66,149.89 66.26,155.89 51.45,155.89 C36.64,155.89 23.24,149.89 13.54,140.19 C3.83,130.48 -2.17,117.08 -2.17,102.27 C-2.17,87.47 3.83,74.06 13.54,64.36 C23.24,54.66 36.64,48.66 51.45,48.66 C81.06,48.66 105.07,72.66 105.07,102.27z "/></g><g id="_R_G_L_0_G" transform=" translate(960, 540) translate(0, 0)"><path id="_R_G_L_0_G_D_0_P_0" fill="#000000" fill-opacity="1" fill-rule="nonzero" d="  "/><path id="_R_G_L_0_G_D_1_P_0" stroke="#000000" stroke-linecap="round" stroke-linejoin="round" fill="none" stroke-width="20" stroke-opacity="1" d="  "/></g></g><g id="time_group"/></svg>