<svg xmlns="http://www.w3.org/2000/svg" xmlns:xlink="http://www.w3.org/1999/xlink" preserveAspectRatio="xMidYMid meet" width="1920" height="1080" viewBox="0 0 1920 1080" style="width:100%;height:100%"><defs><animateTransform repeatCount="indefinite" dur="5.5833333s" begin="0s" xlink:href="#_R_G_L_0_G" fill="freeze" attributeName="transform" from="0" to="-12" type="rotate" additive="sum" keyTimes="0;0.5298507;0.641791;0.7686567;1" values="0;0;-12;12;-12" keySplines="0.333 0 0.428 1;0.333 0 0.428 1;0.333 0 0.003 1;0.424 0 0 1" calcMode="spline"/><animateTransform repeatCount="indefinite" dur="5.5833333s" begin="0s" xlink:href="#_R_G_L_0_G" fill="freeze" attributeName="transform" from="-960 -798.582" to="-960 -798.582" type="translate" additive="sum" keyTimes="0;1" values="-960 -798.582;-960 -798.582" keySplines="0 0 1 1" calcMode="spline"/><animate attributeType="XML" attributeName="opacity" dur="6s" from="0" to="1" xlink:href="#time_group"/></defs><g id="_R_G"><g id="_R_G_L_0_G" transform=" translate(960, 676.082)"><path id="_R_G_L_0_G_D_0_P_0" stroke="#000000" stroke-linecap="round" stroke-linejoin="round" fill="none" stroke-width="24" stroke-opacity="1" d=" M1213.79 578.24 C1213.79,606.99 1100.17,630.31 960,630.31 C819.83,630.31 706.21,606.99 706.21,578.24 C706.21,549.48 819.83,526.17 960,526.17 C1100.17,526.17 1213.79,549.48 1213.79,578.24z "/><path id="_R_G_L_0_G_D_1_P_0" stroke="#000000" stroke-linecap="round" stroke-linejoin="round" fill="none" stroke-width="24" stroke-opacity="1" d=" M706.21 578.24 C706.21,578.24 743.5,798.5 960,798.58 C1175,798.66 1213.79,578.24 1213.79,578.24 "/><path id="_R_G_L_0_G_D_2_P_0" stroke="#000000" stroke-linecap="round" stroke-linejoin="round" fill="none" stroke-width="15" stroke-opacity="1" d=" M825.27 716.47 C846.78,734.05 875.77,748.27 914.63,752.46 "/><path id="_R_G_L_0_G_D_3_P_0" stroke="#000000" stroke-linecap="round" stroke-linejoin="round" fill="none" stroke-width="15" stroke-opacity="1" d=" M788.73 674.42 C793.22,681.68 798.56,689.18 804.89,696.55 "/></g></g><g id="time_group"/></svg>