<svg xmlns="http://www.w3.org/2000/svg" xmlns:xlink="http://www.w3.org/1999/xlink" preserveAspectRatio="xMidYMid meet" width="1920" height="1080" viewBox="0 0 1920 1080" style="width:100%;height:100%"><defs><animateMotion repeatCount="indefinite" dur="6s" begin="0s" xlink:href="#_R_G_L_6_G_N_6_T_0" fill="freeze" keyTimes="0;0.5625;0.7291667;0.875;1" path="M895.4 518.5 C895.4,518.5 895.4,518.5 895.4,518.5 C943.57,538 1184.4,635.5 1184.4,635.5 C1184.4,635.5 1030.4,635.5 1030.4,635.5 C1030.4,635.5 1030.4,635.5 1030.4,635.5 " keyPoints="0;0;0.67;1;1" keySplines="0.333 0 0.667 1;0.333 0 0.667 1;0.333 0 0.667 1;0 0 0 0" calcMode="spline"/><animateTransform repeatCount="indefinite" dur="6s" begin="0s" xlink:href="#_R_G_L_6_G_N_6_T_0" fill="freeze" attributeName="transform" from="-147.062 -165.322" to="-147.062 -165.322" type="translate" additive="sum" keyTimes="0;1" values="-147.062 -165.322;-147.062 -165.322" keySplines="0 0 1 1" calcMode="spline"/><animateMotion repeatCount="indefinite" dur="6s" begin="0s" xlink:href="#_R_G_L_3_G" fill="freeze" keyTimes="0;0.5625;0.7291667;0.875;1" path="M895.4 518.5 C895.4,518.5 895.4,518.5 895.4,518.5 C943.57,538 1184.4,635.5 1184.4,635.5 C1184.4,635.5 1030.4,635.5 1030.4,635.5 C1030.4,635.5 1030.4,635.5 1030.4,635.5 " keyPoints="0;0;0.67;1;1" keySplines="0.333 0 0.667 1;0.333 0 0.667 1;0.333 0 0.667 1;0 0 0 0" calcMode="spline"/><animateTransform repeatCount="indefinite" dur="6s" begin="0s" xlink:href="#_R_G_L_3_G" fill="freeze" attributeName="transform" from="-147.062 -165.322" to="-147.062 -165.322" type="translate" additive="sum" keyTimes="0;1" values="-147.062 -165.322;-147.062 -165.322" keySplines="0 0 1 1" calcMode="spline"/><animate repeatCount="indefinite" dur="6s" begin="0s" xlink:href="#_R_G_L_3_G_M" fill="freeze" attributeName="opacity" from="1" to="0" keyTimes="0;0.7430556;0.7430556;1" values="1;1;0;0" keySplines="0 0 0 0;0 0 0 0;0 0 0 0" calcMode="spline"/><animate repeatCount="indefinite" dur="6s" begin="0s" xlink:href="#_R_G_L_1_G_M" fill="freeze" attributeName="opacity" from="1" to="0" keyTimes="0;0.7430556;0.7430556;1" values="1;1;0;0" keySplines="0 0 0 0;0 0 0 0;0 0 0 0" calcMode="spline"/><animateMotion repeatCount="indefinite" dur="6s" begin="0s" xlink:href="#_R_G_L_0_G" fill="freeze" keyTimes="0;0.5625;0.7291667;0.875;1" path="M895.4 518.5 C895.4,518.5 895.4,518.5 895.4,518.5 C943.57,538 1184.4,635.5 1184.4,635.5 C1184.4,635.5 1030.4,635.5 1030.4,635.5 C1030.4,635.5 1030.4,635.5 1030.4,635.5 " keyPoints="0;0;0.67;1;1" keySplines="0.333 0 0.667 1;0.333 0 0.667 1;0.333 0 0.667 1;0 0 0 0" calcMode="spline"/><animateTransform repeatCount="indefinite" dur="6s" begin="0s" xlink:href="#_R_G_L_0_G" fill="freeze" attributeName="transform" from="-147.062 -165.322" to="-147.062 -165.322" type="translate" additive="sum" keyTimes="0;1" values="-147.062 -165.322;-147.062 -165.322" keySplines="0 0 1 1" calcMode="spline"/><animate repeatCount="indefinite" dur="6s" begin="0s" xlink:href="#_R_G_L_0_G_M" fill="freeze" attributeName="opacity" from="0" to="1" keyTimes="0;0.7430556;0.7430563;1" values="0;0;1;1" keySplines="0 0 0 0;0 0 0 0;0 0 0 0" calcMode="spline"/><animate attributeType="XML" attributeName="opacity" dur="6s" from="0" to="1" xlink:href="#time_group"/></defs><g id="_R_G"><g id="_R_G_L_7_G" transform=" translate(890.691, 474.509) translate(-169.853, -215.778)"><path id="_R_G_L_7_G_D_0_P_0" fill="#000000" fill-opacity="1" fill-rule="nonzero" d=" M339.44 256.54 C339.44,308.82 339.45,361.09 339.45,413.37 C339.45,428.65 336.9,431.28 321.81,431.28 C321.81,431.28 175.02,431.27 175.02,431.27 C122.75,431.27 70.47,431.28 18.19,431.28 C2.91,431.28 0.29,428.74 0.28,413.64 C0.26,282.37 0.25,151.09 0.26,19.82 C0.26,2.75 2.69,0.41 19.9,0.41 C87.58,0.4 155.27,0.5 222.95,0.28 C230.71,0.25 236.44,2.59 241.9,8.1 C272.27,38.8 302.86,69.29 333.57,99.66 C338.89,104.93 339.46,111.07 339.45,117.8 C339.4,164.86 339.41,203.93 339.41,207.43 C339.41,207.43 339.44,256.54 339.44,256.54z  M317.89 132.03 C317.88,121.17 317.4,120.75 306.83,120.74 C282.63,120.7 258.43,120.8 234.22,120.66 C222.31,120.59 219.21,117.36 219.16,105.26 C219.08,81.32 219.17,57.39 219.12,33.45 C219.1,22.42 218.79,22.11 208.22,22.1 C149.91,22.09 91.6,22.09 33.29,22.12 C22.35,22.12 22.33,22.19 22.33,33.17 C22.33,93.97 22.33,154.77 22.35,215.57 C22.35,276.92 22.47,338.28 22.19,399.63 C22.16,407.19 24.45,409.7 31.97,409.67 C86.7,409.45 141.44,409.7 196.17,409.28 C196.17,409.28 307.8,409.37 307.8,409.37 C315.36,409.41 317.86,407.12 317.83,399.59 C317.62,344.86 317.93,183.48 317.89,132.03z  M298.42 99.31 C278.73,79.59 260.38,61.21 241.98,42.78 C241.97,42.79 240.98,43.69 240.98,44.6 C240.84,61.06 240.6,77.53 241.08,93.98 C241.13,95.8 245.27,98.83 247.69,99.02 C256.15,99.66 264.69,99.3 273.2,99.31 C281.31,99.32 289.42,99.31 298.42,99.31z "/></g><g id="_R_G_L_6_G_N_6_T_0"><g id="_R_G_L_6_G"><path id="_R_G_L_6_G_D_0_P_0" fill="#000000" fill-opacity="1" fill-rule="nonzero" d=" M166.76 40.29 C209.89,0.25 276.58,19.49 290.44,76.58 C296.12,100.01 291.4,122.62 274.66,140.54 C251.76,165.06 152.14,264.67 125.66,290.31 C84.05,330.59 15.78,310.79 2.85,254.38 C0.25,243.02 1.59,230.31 3.29,218.54 C3.29,218.54 4.81,201.85 28.54,178.12 C62.29,144.96 166.76,40.29 166.76,40.29z "/><path id="_R_G_L_6_G_D_1_P_0" fill="#ffffff" fill-opacity="1" fill-rule="nonzero" d=" M222.77 40.63 C205.1,40.5 193.09,45.01 183.47,54.36 C162.78,74.46 142.58,95.06 122.08,115.36 C118.46,118.94 117.88,121.82 121.8,125.7 C143.07,146.78 164.24,167.97 185.31,189.25 C189.3,193.28 192.39,193.2 196.35,189.2 C216.44,168.88 237.07,149.08 256.75,128.37 C272.33,111.98 275.11,92.16 266.19,71.74 C257.35,51.55 240.69,41.57 222.77,40.63z "/><path id="_R_G_L_6_G_D_2_P_0" fill="#ffffff" fill-opacity="1" fill-rule="nonzero" d=" M21.95 236.84 C21.86,258.55 33.78,277.04 53.98,285.44 C74.24,293.86 93.39,290.71 109.19,275.94 C130.08,256.44 149.69,235.57 170.05,215.48 C174.29,211.29 174.66,208.36 170.2,203.98 C149.42,183.54 128.82,162.92 108.37,142.16 C103.66,137.38 100.15,137.21 95.38,142.06 C76.11,161.67 56.49,180.94 37.19,200.52 C27.35,210.52 21.97,222.61 21.95,236.84z "/></g></g><g id="_R_G_L_5_G" transform=" translate(821.591, 580.814) translate(-57.675, -74.129)"><path id="_R_G_L_5_G_D_0_P_0" fill="#000000" fill-opacity="1" fill-rule="nonzero" d=" M87.37 103.9 C87.37,103.9 113.51,67.26 113.51,67.26 C114.47,65.92 113.51,64.05 111.86,64.05 C111.86,64.05 99.95,64.05 99.95,64.05 C99.28,64.05 98.66,64.38 98.28,64.93 C98.28,64.93 79.57,92.09 79.57,92.09 C78.76,93.26 77.03,93.26 76.23,92.09 C76.23,92.09 50.48,54.65 50.48,54.65 C49.72,53.55 50.22,52.06 51.47,51.59 C61.76,47.81 68.85,39.76 68.85,27 C68.85,27 68.85,26.76 68.85,26.76 C68.85,19.44 66.33,13.2 61.9,8.65 C56.5,3.37 48.22,0.25 37.67,0.25 C37.67,0.25 2.28,0.25 2.28,0.25 C1.16,0.25 0.25,1.16 0.25,2.28 C0.25,2.28 0.25,82.18 0.25,82.18 C0.25,83.3 1.16,84.21 2.28,84.21 C2.28,84.21 12.97,84.21 12.97,84.21 C14.09,84.21 15,83.3 15,82.18 C15,82.18 15,56.97 15,56.97 C15,55.85 15.91,54.94 17.03,54.94 C17.03,54.94 32.42,54.94 32.42,54.94 C33.08,54.94 33.69,55.26 34.07,55.8 C34.07,55.8 39.89,64.05 39.89,64.05 C39.89,64.05 67.95,104.14 67.95,104.14 C68.45,104.84 68.45,105.78 67.95,106.49 C67.95,106.49 40.72,144.8 40.72,144.8 C39.76,146.15 40.72,148.01 42.37,148.01 C42.37,148.01 54.28,148.01 54.28,148.01 C54.95,148.01 55.58,147.68 55.96,147.13 C55.96,147.13 75.75,118.41 75.75,118.41 C76.56,117.24 78.29,117.23 79.09,118.4 C79.09,118.4 99,147.13 99,147.13 C99.38,147.68 100.01,148.01 100.67,148.01 C100.67,148.01 113.07,148.01 113.07,148.01 C114.72,148.01 115.68,146.15 114.72,144.81 C114.72,144.81 87.37,106.25 87.37,106.25 C86.87,105.55 86.87,104.6 87.37,103.9z  M15 39.84 C15,39.84 15,15.71 15,15.71 C15,14.59 15.91,13.68 17.03,13.68 C17.03,13.68 36.47,13.68 36.47,13.68 C47.38,13.68 53.86,18.6 53.86,27.59 C53.86,27.59 53.86,27.84 53.86,27.84 C53.86,36.35 47.15,41.87 36.59,41.87 C36.59,41.87 17.03,41.87 17.03,41.87 C15.91,41.87 15,40.96 15,39.84z "/></g><g id="_R_G_L_4_G" transform=" translate(960, 540) translate(0, 0)"><path id="_R_G_L_4_G_D_0_P_0" stroke="#ff0000" stroke-linecap="round" stroke-linejoin="round" fill="none" stroke-width="16" stroke-opacity="1" d=" M-188.75 56.75 C-188.75,56.75 -188.75,-25.5 -188.75,-25.5 C-188.75,-25.5 -153.25,-25.5 -153.25,-25.5 C-153.25,-25.5 -134,-21.5 -134,-6.25 C-134,9 -148.25,14.75 -154.75,14.75 C-161.25,14.75 -194,14.75 -194,14.75 C-194,14.75 -164.75,5.5 -164.75,5.5 C-164.75,5.5 -85,118.25 -85,118.25 C-85,118.25 -154.75,122.75 -154.75,122.75 C-154.75,122.75 -83,23 -83,23 "/></g><g id="_R_G_L_3_G_M"><g id="_R_G_L_3_G"><path id="_R_G_L_3_G_D_0_P_0" fill="#000000" fill-opacity="1" fill-rule="nonzero" d=" M166.76 40.29 C209.89,0.25 276.58,19.49 290.44,76.58 C296.12,100.01 291.4,122.62 274.66,140.54 C251.76,165.06 152.14,264.67 125.66,290.31 C84.05,330.59 15.78,310.79 2.85,254.38 C0.25,243.02 1.59,230.31 3.29,218.54 C3.29,218.54 4.81,201.85 28.54,178.12 C62.29,144.96 166.76,40.29 166.76,40.29z "/><path id="_R_G_L_3_G_D_1_P_0" fill="#ffffff" fill-opacity="1" fill-rule="nonzero" d=" M222.77 40.63 C205.1,40.5 193.09,45.01 183.47,54.36 C162.78,74.46 142.58,95.06 122.08,115.36 C118.46,118.94 117.88,121.82 121.8,125.7 C143.07,146.78 164.24,167.97 185.31,189.25 C189.3,193.28 192.39,193.2 196.35,189.2 C216.44,168.88 237.07,149.08 256.75,128.37 C272.33,111.98 275.11,92.16 266.19,71.74 C257.35,51.55 240.69,41.57 222.77,40.63z "/><path id="_R_G_L_3_G_D_2_P_0" fill="#ffffff" fill-opacity="1" fill-rule="nonzero" d=" M21.95 236.84 C21.86,258.55 33.78,277.04 53.98,285.44 C74.24,293.86 93.39,290.71 109.19,275.94 C130.08,256.44 149.69,235.57 170.05,215.48 C174.29,211.29 174.66,208.36 170.2,203.98 C149.42,183.54 128.82,162.92 108.37,142.16 C103.66,137.38 100.15,137.21 95.38,142.06 C76.11,161.67 56.49,180.94 37.19,200.52 C27.35,210.52 21.97,222.61 21.95,236.84z "/></g></g><g id="_R_G_L_2_G" transform=" translate(833.066, 352.71) translate(-55.621, -31.441)"><path id="_R_G_L_2_G_D_0_P_0" stroke="#000000" stroke-linecap="round" stroke-linejoin="round" fill="none" stroke-width="18" stroke-opacity="1" d=" M77.87 7.78 C77.87,7.78 7.78,7.78 7.78,7.78 "/><path id="_R_G_L_2_G_D_1_P_0" stroke="#000000" stroke-linecap="round" stroke-linejoin="round" fill="none" stroke-width="18" stroke-opacity="1" d=" M103.47 55.11 C103.47,55.11 9.57,55.11 9.57,55.11 "/></g><g id="_R_G_L_1_G_M"><g id="_R_G_L_1_G" transform=" translate(890.691, 474.509) translate(-169.853, -215.778)"><path id="_R_G_L_1_G_D_0_P_0" fill="#000000" fill-opacity="1" fill-rule="nonzero" d=" M339.44 256.54 C339.44,308.82 339.45,361.09 339.45,413.37 C339.45,428.65 336.9,431.28 321.81,431.28 C321.81,431.28 175.02,431.27 175.02,431.27 C122.75,431.27 70.47,431.28 18.19,431.28 C2.91,431.28 0.29,428.74 0.28,413.64 C0.26,282.37 0.25,151.09 0.26,19.82 C0.26,2.75 2.69,0.41 19.9,0.41 C87.58,0.4 155.27,0.5 222.95,0.28 C230.71,0.25 236.44,2.59 241.9,8.1 C272.27,38.8 302.86,69.29 333.57,99.66 C338.89,104.93 339.46,111.07 339.45,117.8 C339.4,164.86 339.41,203.93 339.41,207.43 C339.41,207.43 339.44,256.54 339.44,256.54z  M317.89 132.03 C317.88,121.17 317.4,120.75 306.83,120.74 C282.63,120.7 258.43,120.8 234.22,120.66 C222.31,120.59 219.21,117.36 219.16,105.26 C219.08,81.32 219.17,57.39 219.12,33.45 C219.1,22.42 218.79,22.11 208.22,22.1 C149.91,22.09 91.6,22.09 33.29,22.12 C22.35,22.12 22.33,22.19 22.33,33.17 C22.33,93.97 22.33,154.77 22.35,215.57 C22.35,276.92 22.47,338.28 22.19,399.63 C22.16,407.19 24.45,409.7 31.97,409.67 C86.7,409.45 141.44,409.7 196.17,409.28 C196.17,409.28 307.8,409.37 307.8,409.37 C315.36,409.41 317.86,407.12 317.83,399.59 C317.62,344.86 317.93,183.48 317.89,132.03z  M298.42 99.31 C278.73,79.59 260.38,61.21 241.98,42.78 C241.97,42.79 240.98,43.69 240.98,44.6 C240.84,61.06 240.6,77.53 241.08,93.98 C241.13,95.8 245.27,98.83 247.69,99.02 C256.15,99.66 264.69,99.3 273.2,99.31 C281.31,99.32 289.42,99.31 298.42,99.31z "/></g></g><g id="_R_G_L_0_G_M"><g id="_R_G_L_0_G"><path id="_R_G_L_0_G_D_0_P_0" fill="#000000" fill-opacity="1" fill-rule="nonzero" d=" M166.76 40.29 C209.89,0.25 276.58,19.49 290.44,76.58 C296.12,100.01 291.4,122.62 274.66,140.54 C251.76,165.06 152.14,264.67 125.66,290.31 C84.05,330.59 15.78,310.79 2.85,254.38 C0.25,243.02 1.59,230.31 3.29,218.54 C3.29,218.54 4.81,201.85 28.54,178.12 C62.29,144.96 166.76,40.29 166.76,40.29z "/><path id="_R_G_L_0_G_D_1_P_0" fill="#ffffff" fill-opacity="1" fill-rule="nonzero" d=" M222.77 40.63 C205.1,40.5 193.09,45.01 183.47,54.36 C162.78,74.46 142.58,95.06 122.08,115.36 C118.46,118.94 117.88,121.82 121.8,125.7 C143.07,146.78 164.24,167.97 185.31,189.25 C189.3,193.28 192.39,193.2 196.35,189.2 C216.44,168.88 237.07,149.08 256.75,128.37 C272.33,111.98 275.11,92.16 266.19,71.74 C257.35,51.55 240.69,41.57 222.77,40.63z "/><path id="_R_G_L_0_G_D_2_P_0" fill="#ffffff" fill-opacity="1" fill-rule="nonzero" d=" M21.95 236.84 C21.86,258.55 33.78,277.04 53.98,285.44 C74.24,293.86 93.39,290.71 109.19,275.94 C130.08,256.44 149.69,235.57 170.05,215.48 C174.29,211.29 174.66,208.36 170.2,203.98 C149.42,183.54 128.82,162.92 108.37,142.16 C103.66,137.38 100.15,137.21 95.38,142.06 C76.11,161.67 56.49,180.94 37.19,200.52 C27.35,210.52 21.97,222.61 21.95,236.84z "/></g></g></g><g id="time_group"/></svg>