<?xml version="1.0" encoding="UTF-8"?>
<svg id="Layer_1" data-name="Layer 1" xmlns="http://www.w3.org/2000/svg" xmlns:xlink="http://www.w3.org/1999/xlink" viewBox="0 0 892.14 858.81">
  <defs>
    <style>
      .cls-1 {
        fill: url(#New_Gradient_Swatch_3);
      }

      .cls-2 {
        fill: url(#New_Gradient_Swatch_1);
      }

      .cls-3 {
        fill: url(#New_Gradient_Swatch_4);
      }

      .cls-4, .cls-5 {
        fill: none;
        stroke: #fff;
        stroke-linecap: round;
        stroke-linejoin: round;
        stroke-width: 2px;
      }

      .cls-5 {
        stroke-dasharray: 0 0 5.01 5.01;
      }
    </style>
    <linearGradient id="New_Gradient_Swatch_3" data-name="New Gradient Swatch 3" x1="201.65" y1="733.26" x2="753.44" y2="157.72" gradientUnits="userSpaceOnUse">
      <stop offset="0" stop-color="#9f6d29"/>
      <stop offset=".03" stop-color="#a56f28"/>
      <stop offset=".15" stop-color="#bf7927"/>
      <stop offset=".27" stop-color="#d28125"/>
      <stop offset=".4" stop-color="#de8525"/>
      <stop offset=".53" stop-color="#e28725"/>
      <stop offset="1" stop-color="#9f6d29"/>
    </linearGradient>
    <linearGradient id="New_Gradient_Swatch_1" data-name="New Gradient Swatch 1" x1="304.85" y1="623.72" x2="629.59" y2="250.14" gradientUnits="userSpaceOnUse">
      <stop offset="0" stop-color="#808185"/>
      <stop offset=".02" stop-color="#86878b"/>
      <stop offset=".11" stop-color="#a8a9ac"/>
      <stop offset=".21" stop-color="#c2c3c5"/>
      <stop offset=".32" stop-color="#d5d6d8"/>
      <stop offset=".42" stop-color="#e1e2e3"/>
      <stop offset=".53" stop-color="#e5e6e7"/>
      <stop offset="1" stop-color="#808185"/>
    </linearGradient>
    <linearGradient id="New_Gradient_Swatch_4" data-name="New Gradient Swatch 4" x1="367.93" y1="504.64" x2="527.66" y2="339.63" gradientUnits="userSpaceOnUse">
      <stop offset="0" stop-color="#b68c2e"/>
      <stop offset=".1" stop-color="#c99b28"/>
      <stop offset=".24" stop-color="#dbaa23"/>
      <stop offset=".38" stop-color="#e7b320"/>
      <stop offset=".53" stop-color="#ebb61f"/>
      <stop offset="1" stop-color="#b68c2e"/>
    </linearGradient>
  </defs>
  <path class="cls-1" d="m443.79,165.68l63.21,56.25-62.02,69.47-1.35,106.66,97.37,59.99,26.24,84.11,76.49-24,143.88,85.21c33.97-59.06,53.4-127.54,53.4-200.57C841.02,182,663.37,2.7,443.22.01l.57,165.66Z"/>
  <path class="cls-2" d="m443.79,165.68l63.21,56.25-62.02,69.47-1.35,106.66,97.37,59.99,26.24,84.11,76.49-24,14.24,8.43c20.21-36.07,31.75-77.66,31.75-121.95,0-136.69-109.78-247.72-245.97-249.79l.04,10.84Z"/>
  <path class="cls-3" d="m444.98,291.39l-1.35,106.66,97.37,59.99.4,1.3c9.09-16.54,14.26-35.54,14.26-55.74,0-61.24-47.48-111.38-107.63-115.63l-3.06,3.42Z"/>
  <g>
    <line class="cls-4" x1="445.17" y1="397.69" x2="447.31" y2="396.4"/>
    <line class="cls-5" x1="451.59" y1="393.8" x2="783.55" y2="192.36"/>
    <line class="cls-4" x1="785.69" y1="191.06" x2="787.83" y2="189.76"/>
  </g>
</svg>