<?xml version="1.0" encoding="UTF-8"?>
<svg id="Layer_1" data-name="Layer 1" xmlns="http://www.w3.org/2000/svg" xmlns:xlink="http://www.w3.org/1999/xlink" viewBox="0 0 660.48 804.37">
  <defs>
    <style>
      .cls-1 {
        fill: #fff;
      }

      .cls-2 {
        fill: url(#New_Gradient_Swatch_3);
      }

      .cls-3 {
        fill: url(#New_Gradient_Swatch_1);
      }

      .cls-4 {
        fill: url(#New_Gradient_Swatch_4);
      }
    </style>
    <linearGradient id="New_Gradient_Swatch_3" data-name="New Gradient Swatch 3" x1="46.5" y1="643" x2="577.49" y2="112" gradientUnits="userSpaceOnUse">
      <stop offset="0" stop-color="#9f6d29"/>
      <stop offset=".03" stop-color="#a56f28"/>
      <stop offset=".15" stop-color="#bf7927"/>
      <stop offset=".27" stop-color="#d28125"/>
      <stop offset=".4" stop-color="#de8525"/>
      <stop offset=".53" stop-color="#e28725"/>
      <stop offset="1" stop-color="#9f6d29"/>
    </linearGradient>
    <linearGradient id="New_Gradient_Swatch_1" data-name="New Gradient Swatch 1" x1="204.53" y1="592.52" x2="555.68" y2="241.38" gradientUnits="userSpaceOnUse">
      <stop offset="0" stop-color="#808185"/>
      <stop offset=".02" stop-color="#86878b"/>
      <stop offset=".11" stop-color="#a8a9ac"/>
      <stop offset=".21" stop-color="#c2c3c5"/>
      <stop offset=".32" stop-color="#d5d6d8"/>
      <stop offset=".42" stop-color="#e1e2e3"/>
      <stop offset=".53" stop-color="#e5e6e7"/>
      <stop offset="1" stop-color="#808185"/>
    </linearGradient>
    <linearGradient id="New_Gradient_Swatch_4" data-name="New Gradient Swatch 4" x1="370.74" y1="537.17" x2="532.92" y2="375" gradientUnits="userSpaceOnUse">
      <stop offset="0" stop-color="#b68c2e"/>
      <stop offset=".1" stop-color="#c99b28"/>
      <stop offset=".24" stop-color="#dbaa23"/>
      <stop offset=".38" stop-color="#e7b320"/>
      <stop offset=".53" stop-color="#ebb61f"/>
      <stop offset="1" stop-color="#b68c2e"/>
    </linearGradient>
  </defs>
  <path class="cls-2" d="m513.48,47.99c-.38,0-.75,0-1.13,0-244.95,0-443.52,198.57-443.52,443.52,0,94.1,29.31,181.34,79.28,253.13l135.51-95.81,11.25-96.42,106.01,12.55,112.59-76.75.44.26-.44-440.47Z"/>
  <path class="cls-3" d="m513.63,199.33c-162.24.38-293.65,132.01-293.65,294.34,0,60.97,18.54,117.61,50.28,164.59l13.36-9.44,11.25-96.42,106.01,12.55,112.59-76.75.44.26-2.78-133.26,69.74-76.19-67.39-61.15.14-18.53Z"/>
  <path class="cls-4" d="m513.79,355.87c-75.26.2-136.21,61.27-136.21,136.57,0,26.5,7.56,51.24,20.62,72.18l2.69.32,112.59-76.75.44.26-.13-132.59Z"/>
  <path class="cls-1" d="m512.66,488.46c-.22,0-.45-.06-.65-.18l-5.34-3.14c-.59-.35-.78-1.1-.42-1.68.36-.58,1.13-.76,1.73-.41l5.34,3.14c.59.35.78,1.1.42,1.68-.24.38-.65.59-1.08.59Zm-10.68-6.29c-.22,0-.45-.06-.65-.18l-5.34-3.14c-.59-.35-.78-1.1-.42-1.68.36-.58,1.13-.76,1.73-.41l5.34,3.14c.59.35.78,1.1.42,1.68-.24.38-.65.59-1.08.59Zm-10.68-6.29c-.22,0-.45-.06-.65-.18l-5.34-3.14c-.59-.35-.78-1.1-.42-1.68.36-.58,1.13-.76,1.73-.41l5.34,3.14c.59.35.78,1.1.42,1.68-.24.38-.65.59-1.08.59Zm-10.68-6.29c-.22,0-.45-.06-.65-.18l-5.34-3.14c-.59-.35-.78-1.1-.42-1.68.36-.58,1.13-.76,1.73-.41l5.34,3.14c.59.35.78,1.1.42,1.68-.24.38-.65.59-1.08.59Zm-10.68-6.29c-.22,0-.45-.06-.65-.18l-5.34-3.14c-.59-.35-.78-1.1-.42-1.68.36-.58,1.13-.76,1.73-.41l5.34,3.14c.59.35.78,1.1.42,1.68-.24.38-.65.59-1.08.59Zm-10.68-6.29c-.22,0-.45-.06-.65-.18l-5.34-3.15c-.59-.35-.78-1.1-.42-1.68.36-.58,1.13-.76,1.73-.41l5.34,3.15c.59.35.78,1.1.42,1.68-.24.38-.65.59-1.08.59Zm-10.68-6.29c-.22,0-.45-.06-.65-.18l-5.34-3.15c-.59-.35-.78-1.1-.42-1.68.36-.58,1.13-.76,1.73-.41l5.34,3.15c.59.35.78,1.1.42,1.68-.24.38-.65.59-1.08.59Zm-10.68-6.29c-.22,0-.45-.06-.65-.18l-5.34-3.15c-.59-.35-.78-1.1-.42-1.68.36-.58,1.13-.76,1.73-.41l5.34,3.15c.59.35.78,1.1.42,1.68-.24.38-.65.59-1.08.59Zm-10.68-6.29c-.22,0-.45-.06-.65-.18l-5.34-3.15c-.59-.35-.78-1.1-.42-1.68.36-.58,1.13-.76,1.73-.41l5.34,3.14c.59.35.78,1.1.42,1.68-.24.38-.65.59-1.08.59Zm-10.68-6.29c-.22,0-.45-.06-.65-.18l-5.34-3.14c-.59-.35-.78-1.1-.42-1.68.36-.58,1.13-.76,1.73-.41l5.34,3.14c.59.35.78,1.1.42,1.68-.24.38-.65.59-1.08.59Zm-10.68-6.29c-.22,0-.45-.06-.65-.18l-5.34-3.14c-.59-.35-.78-1.1-.42-1.68.36-.58,1.13-.76,1.73-.41l5.34,3.14c.59.35.78,1.1.42,1.68-.24.38-.65.59-1.08.59Zm-10.68-6.29c-.22,0-.45-.06-.65-.18l-5.34-3.14c-.59-.35-.78-1.1-.42-1.68.36-.58,1.13-.76,1.73-.41l5.34,3.14c.59.35.78,1.1.42,1.68-.24.38-.65.59-1.08.59Zm-10.68-6.29c-.22,0-.45-.06-.65-.18l-5.34-3.15c-.59-.35-.78-1.1-.42-1.68.36-.58,1.13-.76,1.73-.41l5.34,3.15c.59.35.78,1.1.42,1.68-.24.38-.65.59-1.08.59Zm-10.68-6.29c-.22,0-.45-.06-.65-.18l-5.34-3.15c-.59-.35-.78-1.1-.42-1.68.36-.58,1.13-.76,1.73-.41l5.34,3.15c.59.35.78,1.1.42,1.68-.24.38-.65.59-1.08.59Zm-10.68-6.29c-.22,0-.45-.06-.65-.18l-5.34-3.15c-.59-.35-.78-1.1-.42-1.68.36-.58,1.13-.76,1.73-.41l5.34,3.15c.59.35.78,1.1.42,1.68-.24.38-.65.59-1.08.59Zm-10.68-6.29c-.22,0-.45-.06-.65-.18l-5.34-3.15c-.59-.35-.78-1.1-.42-1.68.36-.58,1.13-.76,1.73-.41l5.34,3.15c.59.35.78,1.1.42,1.68-.24.38-.65.59-1.08.59Zm-10.68-6.29c-.22,0-.45-.06-.65-.18l-5.34-3.14c-.59-.35-.78-1.1-.42-1.68.36-.58,1.13-.76,1.73-.41l5.34,3.14c.59.35.78,1.1.42,1.68-.24.38-.65.59-1.08.59Zm-10.68-6.29c-.22,0-.45-.06-.65-.18l-5.34-3.14c-.59-.35-.78-1.1-.42-1.68.36-.58,1.13-.76,1.73-.41l5.34,3.14c.59.35.78,1.1.42,1.68-.24.38-.65.59-1.08.59Zm-10.68-6.29c-.22,0-.45-.06-.65-.18l-5.34-3.14c-.59-.35-.78-1.1-.42-1.68.36-.58,1.13-.76,1.73-.41l5.34,3.14c.59.35.78,1.1.42,1.68-.24.38-.65.59-1.08.59Zm-10.68-6.29c-.22,0-.45-.06-.65-.18l-5.34-3.14c-.59-.35-.78-1.1-.42-1.68.36-.58,1.13-.76,1.73-.41l5.34,3.14c.59.35.78,1.1.42,1.68-.24.38-.65.59-1.08.59Zm-10.68-6.29c-.22,0-.45-.06-.65-.18l-5.34-3.15c-.59-.35-.78-1.1-.42-1.68.36-.58,1.13-.76,1.73-.41l5.34,3.15c.59.35.78,1.1.42,1.68-.24.38-.65.59-1.08.59Zm-10.68-6.29c-.22,0-.45-.06-.65-.18l-5.34-3.15c-.59-.35-.78-1.1-.42-1.68.36-.58,1.13-.76,1.73-.41l5.34,3.15c.59.35.78,1.1.42,1.68-.24.38-.65.59-1.08.59Zm-10.68-6.29c-.22,0-.45-.06-.65-.18l-5.34-3.15c-.59-.35-.78-1.1-.42-1.68.36-.58,1.13-.76,1.73-.41l5.34,3.15c.59.35.78,1.1.42,1.68-.24.38-.65.59-1.08.59Zm-10.68-6.29c-.22,0-.45-.06-.65-.18l-5.34-3.14c-.59-.35-.78-1.1-.42-1.68.36-.58,1.13-.76,1.73-.41l5.34,3.14c.59.35.78,1.1.42,1.68-.24.38-.65.59-1.08.59Zm-10.68-6.29c-.22,0-.45-.06-.65-.18l-5.34-3.14c-.59-.35-.78-1.1-.42-1.68.36-.58,1.13-.76,1.73-.41l5.34,3.14c.59.35.78,1.1.42,1.68-.24.38-.65.59-1.08.59Zm-10.68-6.29c-.22,0-.45-.06-.65-.18l-5.34-3.14c-.59-.35-.78-1.1-.42-1.68.36-.58,1.13-.76,1.73-.41l5.34,3.15c.59.35.78,1.1.42,1.68-.24.38-.65.59-1.08.59Zm-10.68-6.29c-.22,0-.45-.06-.65-.18l-5.34-3.15c-.59-.35-.78-1.1-.42-1.68.36-.58,1.13-.76,1.73-.41l5.34,3.14c.59.35.78,1.1.42,1.68-.24.38-.65.59-1.08.59Zm-10.68-6.29c-.22,0-.45-.06-.65-.18l-5.34-3.14c-.59-.35-.78-1.1-.42-1.68.36-.58,1.13-.76,1.73-.41l5.34,3.14c.59.35.78,1.1.42,1.68-.24.38-.65.59-1.08.59Zm-10.68-6.29c-.22,0-.45-.06-.65-.18l-5.34-3.15c-.59-.35-.78-1.1-.42-1.68.36-.58,1.13-.76,1.73-.41l5.34,3.15c.59.35.78,1.1.42,1.68-.24.38-.65.59-1.08.59Zm-10.68-6.29c-.22,0-.45-.06-.65-.18l-5.34-3.15c-.59-.35-.78-1.1-.42-1.68.36-.58,1.13-.76,1.73-.41l5.34,3.15c.59.35.78,1.1.42,1.68-.24.38-.65.59-1.08.59Zm-10.68-6.29c-.22,0-.45-.06-.65-.18l-5.34-3.15c-.59-.35-.78-1.1-.42-1.68.36-.58,1.13-.76,1.73-.41l5.34,3.15c.59.35.78,1.1.42,1.68-.24.38-.65.59-1.08.59Zm-10.68-6.29c-.22,0-.45-.06-.65-.18l-5.34-3.14c-.59-.35-.78-1.1-.42-1.68.36-.58,1.13-.76,1.73-.41l5.34,3.14c.59.35.78,1.1.42,1.68-.24.38-.65.59-1.08.59Zm-10.68-6.29c-.22,0-.45-.06-.65-.18l-5.34-3.14c-.59-.35-.78-1.1-.42-1.68.36-.58,1.13-.76,1.73-.41l5.34,3.14c.59.35.78,1.1.42,1.68-.24.38-.65.59-1.08.59Zm-10.68-6.29c-.22,0-.45-.06-.65-.18l-5.34-3.15c-.59-.35-.78-1.1-.42-1.68.36-.58,1.13-.76,1.73-.41l5.34,3.14c.59.35.78,1.1.42,1.68-.24.38-.65.59-1.08.59Zm-10.68-6.29c-.22,0-.45-.06-.65-.18l-5.34-3.14c-.59-.35-.78-1.1-.42-1.68.36-.58,1.13-.76,1.73-.41l5.34,3.14c.59.35.78,1.1.42,1.68-.24.38-.65.59-1.08.59Zm-10.68-6.29c-.22,0-.45-.06-.65-.18l-5.34-3.15c-.59-.35-.78-1.1-.42-1.68.36-.58,1.13-.76,1.73-.41l5.34,3.15c.59.35.78,1.1.42,1.68-.24.38-.65.59-1.08.59Z"/>
</svg>